{
.appVersion = "3110";
.formatVersion = 3;
DisplayStrings = (
"The quick brow/_corner.left n fox jumps over a lazy dog
THW THE QUICK BROWN FO JUMPS OVER A LAZY DOG",
"HHHOOOADJUSTINGkemie@/at.case QUIVER.COM AND BOW, ZOMPYC† KILLED $7 THE FO. Amazingly, C.J. Hquaffed sıix vodkas without burping. BaAc/_corner.caps_diag_xs k ›homenononn/arch_n/arch_n_text/n.ss01 ooonnn after‹ jiving, sheUSA expired (with quizzicality). Bo rocked a £3,500 xylophone, making quiet waves of ȷjazz. Chip required 44% booze to fix my VolkPAagen® Jetta. Cozy sphinx©waves.com quart §28.2 ȷjug of bad milk. Even while I adȷjust [my expectations hıigher,] you keep NYSE amazing me. I request: be my wife. \"Exquisite farm wench\" gives body* jolt to prize stinker. Five wine¶ experts MTA ȷjokingly quizzed sample; cha/bowl blis. French wine: ‘Ze bouquet is exceptıional, aqvec ȷjust un peu of monkey Hdung.’ GQ Magazine© backers enjoyed; the Pixies’ „Wave of Mutilation.” 


glyphs = (
{
glyphname = A;
kernLeft = A;
kernRight = A;
layers = (
{
anchors = (
{
name = bottom;
pos = (407,0);
},
{
name = ogonek;
pos = (708,0);
},
{
name = top;
pos = (407,684);
}
);
hints = (
{
name = _corner.caps_diag;
options = 2;
origin = (0,0);
scale = (-1,1);
type = Corner;
}
);
layerId = "873CAA12-270D-4223-A88E-AE8E101FDBE8";
shapes = (
{
closed = 1;
nodes = (
(191,47,l,{
"Letterink-NibData" = {
AngleInDegrees = 21.94173;
};
}),
(274,252,l,{
"Letterink-NibData" = {
AngleInDegrees = 235.95406;
};
}),
(237,227,l,{
"Letterink-NibData" = {
AngleInDegrees = 90;
};
}),
(576,227,l,{
"Letterink-NibData" = {
AngleInDegrees = 304.04594;
};
}),
(539,252,l,{
"Letterink-NibData" = {
AngleInDegrees = 157.38014;
};
}),
(644,0,l,{
"Letterink-NibData" = {
AngleInDegrees = 90;
};
}),
(708,0,l,{
"Letterink-NibData" = {
AngleInDegrees = 337.22181;
};
}),
(417,693,l,{
"Letterink-NibData" = {
AngleInDegrees = 270;
};
}),
(397,693,l,{
"Letterink-NibData" = {
AngleInDegrees = 202.60001;
};
}),
(138,73,l,{
"Letterink-NibData" = {
AngleInDegrees = 202.61986;
};
})
);
},
{
closed = 1;
nodes = (
(396,552,l,{
"Letterink-NibData" = {
AngleInDegrees = 14.03624;
};
}),
(406,592,l,{
"Letterink-NibData" = {
AngleInDegrees = 164.62375;
};
}),
(417,552,l,{
"Letterink-NibData" = {
AngleInDegrees = 158.13142;
};
}),
(535,258,l,{
"Letterink-NibData" = {
AngleInDegrees = 34.2157;
};
}),
(552,283,l,{
"Letterink-NibData" = {
AngleInDegrees = 270;
};
}),
(261,283,l,{
"Letterink-NibData" = {
AngleInDegrees = 145.7843;
};
}),
(278,258,l,{
"Letterink-NibData" = {
AngleInDegrees = 21.86858;
};
})
);
}
);
width = 724;
},
{
anchors = (
{
name = bottom;
pos = (399,0);
},
{
name = ogonek;
pos = (708,-1);
},
{
name = top;
pos = (397,684);
}
);
hints = (
{
name = _corner.caps_diag;
options = 1;
origin = (0,0);
scale = (-1,1);
type = Corner;
}
);
layerId = "0CAF3BED-C4AC-4024-B3E1-4C69D1EF7EC0";
shapes = (
{
closed = 1;
nodes = (
(198,50,l,{
"Letterink-NibData" = {
AngleInDegrees = 22.71999;
};
}),
(283,253,l,{
"Letterink-NibData" = {
AngleInDegrees = 236.57519;
};
}),
(233,220,l,{
"Letterink-NibData" = {
AngleInDegrees = 90;
};
}),
(565,220,l,{
"Letterink-NibData" = {
AngleInDegrees = 303.42481;
};
}),
(515,253,l,{
"Letterink-NibData" = {
AngleInDegrees = 157.34811;
};
}),
(621,-1,l,{
"Letterink-NibData" = {
AngleInDegrees = 90;
};
}),
(708,-1,l,{
"Letterink-NibData" = {
AngleInDegrees = 336.96218;
};
}),
(415,688,l,{
"Letterink-NibData" = {
AngleInDegrees = 270;
};
}),
(381,688,l,{
"Letterink-NibData" = {
AngleInDegrees = 202.82503;
};
}),
(124,80,l,{
"Letterink-NibData" = {
AngleInDegrees = 202.38014;
};
})
);
},
{
closed = 1;
nodes = (
(395,548,l,{
"Letterink-NibData" = {
AngleInDegrees = 8.1301;
};
}),
(398,569,l,{
"Letterink-NibData" = {
AngleInDegrees = 171.8699;
};
}),
(401,548,l,{
"Letterink-NibData" = {
AngleInDegrees = 159.79358;
};
}),
(507,260,l,{
"Letterink-NibData" = {
AngleInDegrees = 35.21759;
};
}),
(531,294,l,{
"Letterink-NibData" = {
AngleInDegrees = 270;
};
}),
(263,294,l,{
"Letterink-NibData" = {
AngleInDegrees = 145.92281;
};
}),
(286,260,l,{
"Letterink-NibData" = {
AngleInDegrees = 20.73026;
};
})
);
}
);
width = 716;
},
{
anchors = (
{
name = bottom;
pos = (417,0);
},
{
name = ogonek;
pos = (710,1);
},
{
name = top;
pos = (417,684);
}
);
hints = (
{
name = _corner.caps_diag;
options = 1;
origin = (0,0);
scale = (-1,1);
type = Corner;
}
);
layerId = "49C16FD3-6177-408B-A733-AEB3898BB77C";
shapes = (
{
closed = 1;
nodes = (
(186,42,l,{
"Letterink-NibData" = {
AngleInDegrees = 22.1315;
};
}),
(271,251,l,{
"Letterink-NibData" = {
AngleInDegrees = 235.7843;
};
}),
(246,234,l,{
"Letterink-NibData" = {
AngleInDegrees = 90;
};
}),
(586,234,l,{
"Letterink-NibData" = {
AngleInDegrees = 304.2157;
};
}),
(561,251,l,{
"Letterink-NibData" = {
AngleInDegrees = 157.41269;
};
}),
(665,1,l,{
"Letterink-NibData" = {
AngleInDegrees = 90;
};
}),
(710,1,l,{
"Letterink-NibData" = {
AngleInDegrees = 337.30364;
};
}),
(423,692,l,{
"Letterink-NibData" = {
AngleInDegrees = 270;
};
}),
(411,692,l,{
"Letterink-NibData" = {
AngleInDegrees = 202.68401;
};
}),
(149,60,l,{
"Letterink-NibData" = {
AngleInDegrees = 202.61986;
};
})
);
},
{
closed = 1;
nodes = (
(397,560,l,{
"Letterink-NibData" = {
AngleInDegrees = 16.29405;
};
}),
(417,626,l,{
"Letterink-NibData" = {
AngleInDegrees = 163.21735;
};
}),
(435,562,l,{
"Letterink-NibData" = {
AngleInDegrees = 158.19859;
};
}),
(557,257,l,{
"Letterink-NibData" = {
AngleInDegrees = 32.90524;
};
}),
(568,274,l,{
"Letterink-NibData" = {
AngleInDegrees = 270;
};
}),
(263,274,l,{
"Letterink-NibData" = {
AngleInDegrees = 147.09476;
};
}),
(274,257,l,{
"Letterink-NibData" = {
AngleInDegrees = 22.09423;
};
})
);
}
);
width = 737;
},
{
anchors = (
{
name = bottom;
pos = (421,-8);
},
{
name = ogonek;
pos = (714,1);
},
{
name = top;
pos = (421,684);
}
);
associatedMasterId = "49C16FD3-6177-408B-A733-AEB3898BB77C";
layerId = "E63F2094-54D6-44F3-A00F-83DE5DFBC8F4";
name = "6 Jan 22, 16:48";
shapes = (
{
closed = 1;
nodes = (
(148,-9,o),
(176,8,o),
(190,42,cs,{
"Letterink-NibData" = {
AngleInDegrees = 22.1315;
};
}),
(275,251,l,{
"Letterink-NibData" = {
AngleInDegrees = 235.7843;
};
}),
(250,234,l,{
"Letterink-NibData" = {
AngleInDegrees = 90;
};
}),
(590,234,l,{
"Letterink-NibData" = {
AngleInDegrees = 304.2157;
};
}),
(565,251,l,{
"Letterink-NibData" = {
AngleInDegrees = 157.41269;
};
}),
(669,1,l,{
"Letterink-NibData" = {
AngleInDegrees = 90;
};
}),
(714,1,l,{
"Letterink-NibData" = {
AngleInDegrees = 337.30364;
};
}),
(425,692,l,{
"Letterink-NibData" = {
AngleInDegrees = 270;
};
}),
(417,692,l,{
"Letterink-NibData" = {
AngleInDegrees = 202.68401;
};
}),
(152,58,ls,{
"Letterink-NibData" = {
AngleInDegrees = 202.61986;
};
}),
(147,46,o),
(132,31,o),
(115,31,cs,{
"Letterink-NibData" = {
AngleInDegrees = 270;
};
}),
(96,31,o),
(80,45,o),
(75,59,c,{
"Letterink-NibData" = {
AngleInDegrees = 261.25384;
};
}),
(36,53,l,{
"Letterink-NibData" = {
AngleInDegrees = 163.85566;
};
}),
(47,15,o),
(76,-9,o),
(114,-9,cs,{
"Letterink-NibData" = {
AngleInDegrees = 90;
};
})
);
},
{
closed = 1;
nodes = (
(401,560,l,{
"Letterink-NibData" = {
AngleInDegrees = 16.29405;
};
}),
(420,625,l,{
"Letterink-NibData" = {
AngleInDegrees = 163.21735;
};
}),
(439,562,l,{
"Letterink-NibData" = {
AngleInDegrees = 158.19859;
};
}),
(561,257,l,{
"Letterink-NibData" = {
AngleInDegrees = 32.90524;
};
}),
(572,274,l,{
"Letterink-NibData" = {
AngleInDegrees = 270;
};
}),
(267,274,l,{
"Letterink-NibData" = {
AngleInDegrees = 147.09476;
};
}),
(278,257,l,{
"Letterink-NibData" = {
AngleInDegrees = 22.09423;
};
})
);
}
);
width = 752;
}
);
unicode = 65;
userData = {
position = 666;
width = 20;
};
},
{
glyphname = A.ss01;
kernLeft = Atext;
kernRight = A;
layers = (
{
anchors = (
{
name = bottom;
pos = (319,0);
},
{
name = ogonek;
pos = (621,0);
},
{
name = top;
pos = (318,684);
}
);
layerId = "873CAA12-270D-4223-A88E-AE8E101FDBE8";
shapes = (
{
closed = 1;
nodes = (
(80,0,l,{
"Letterink-NibData" = {
AngleInDegrees = 22.61986;
};
}),
(185,252,l,{
"Letterink-NibData" = {
AngleInDegrees = 235.95406;
};
}),
(148,227,l,{
"Letterink-NibData" = {
AngleInDegrees = 90;
};
}),
(487,227,l,{
"Letterink-NibData" = {
AngleInDegrees = 303.34071;
};
}),
(449,252,l,{
"Letterink-NibData" = {
AngleInDegrees = 156.80141;
};
}),
(557,0,l,{
"Letterink-NibData" = {
AngleInDegrees = 90;
};
}),
(621,0,l,{
"Letterink-NibData" = {
AngleInDegrees = 337.30494;
};
}),
(327,703,l,{
"Letterink-NibData" = {
AngleInDegrees = 270;
};
}),
(308,703,l,{
"Letterink-NibData" = {
AngleInDegrees = 202.55618;
};
}),
(16,0,l,{
"Letterink-NibData" = {
AngleInDegrees = 90;
};
})
);
},
{
closed = 1;
nodes = (
(293,517,ls,{
"Letterink-NibData" = {
AngleInDegrees = 21.80141;
};
}),
(303,542,o),
(309,565,o),
(317,595,c,{
"Letterink-NibData" = {
AngleInDegrees = 166.6075;
};
}),
(322,574,o),
(332,542,o),
(342,517,cs,{
"Letterink-NibData" = {
AngleInDegrees = 158.12235;
};
}),
(446,258,l,{
"Letterink-NibData" = {
AngleInDegrees = 34.2157;
};
}),
(463,283,l,{
"Letterink-NibData" = {
AngleInDegrees = 270;
};
}),
(172,283,l,{
"Letterink-NibData" = {
AngleInDegrees = 145.7843;
};
}),
(189,258,l,{
"Letterink-NibData" = {
AngleInDegrees = 21.87765;
};
})
);
}
);
width = 637;
},
{
anchors = (
{
name = bottom;
pos = (318,0);
},
{
name = ogonek;
pos = (628,-1);
},
{
name = top;
pos = (317,684);
}
);
layerId = "0CAF3BED-C4AC-4024-B3E1-4C69D1EF7EC0";
shapes = (
{
closed = 1;
nodes = (
(94,-1,l,{
"Letterink-NibData" = {
AngleInDegrees = 22.65189;
};
}),
(200,253,l,{
"Letterink-NibData" = {
AngleInDegrees = 236.57519;
};
}),
(150,220,l,{
"Letterink-NibData" = {
AngleInDegrees = 90;
};
}),
(483,220,l,{
"Letterink-NibData" = {
AngleInDegrees = 303.42481;
};
}),
(433,253,l,{
"Letterink-NibData" = {
AngleInDegrees = 156.96496;
};
}),
(541,-1,l,{
"Letterink-NibData" = {
AngleInDegrees = 90;
};
}),
(628,-1,l,{
"Letterink-NibData" = {
AngleInDegrees = 337.32254;
};
}),
(333,705,l,{
"Letterink-NibData" = {
AngleInDegrees = 270;
};
}),
(300,705,l,{
"Letterink-NibData" = {
AngleInDegrees = 202.53914;
};
}),
(7,-1,l,{
"Letterink-NibData" = {
AngleInDegrees = 90;
};
})
);
},
{
closed = 1;
nodes = (
(301,508,ls,{
"Letterink-NibData" = {
AngleInDegrees = 19.98311;
};
}),
(305,519,o),
(312,545,o),
(316,557,c,{
"Letterink-NibData" = {
AngleInDegrees = 161.56505;
};
}),
(320,545,o),
(326,519,o),
(330,508,cs,{
"Letterink-NibData" = {
AngleInDegrees = 158.35875;
};
}),
(428,261,l,{
"Letterink-NibData" = {
AngleInDegrees = 34.87533;
};
}),
(451,294,l,{
"Letterink-NibData" = {
AngleInDegrees = 270;
};
}),
(181,294,l,{
"Letterink-NibData" = {
AngleInDegrees = 145.92281;
};
}),
(204,260,l,{
"Letterink-NibData" = {
AngleInDegrees = 21.36191;
};
})
);
}
);
width = 635;
},
{
anchors = (
{
name = bottom;
pos = (328,0);
},
{
name = ogonek;
pos = (630,1);
},
{
name = top;
pos = (327,684);
}
);
layerId = "49C16FD3-6177-408B-A733-AEB3898BB77C";
shapes = (
{
closed = 1;
nodes = (
(72,1,l,{
"Letterink-NibData" = {
AngleInDegrees = 22.78241;
};
}),
(177,251,l,{
"Letterink-NibData" = {
AngleInDegrees = 235.7843;
};
}),
(152,234,l,{
"Letterink-NibData" = {
AngleInDegrees = 90;
};
}),
(502,234,l,{
"Letterink-NibData" = {
AngleInDegrees = 304.2157;
};
}),
(477,251,l,{
"Letterink-NibData" = {
AngleInDegrees = 157.02305;
};
}),
(583,1,l,{
"Letterink-NibData" = {
AngleInDegrees = 90;
};
}),
(630,1,l,{
"Letterink-NibData" = {
AngleInDegrees = 336.95898;
};
}),
(331,704,l,{
"Letterink-NibData" = {
AngleInDegrees = 270;
};
}),
(323,704,l,{
"Letterink-NibData" = {
AngleInDegrees = 202.90284;
};
}),
(26,1,l,{
"Letterink-NibData" = {
AngleInDegrees = 90;
};
})
);
},
{
closed = 1;
nodes = (
(293,526,ls,{
"Letterink-NibData" = {
AngleInDegrees = 22.61986;
};
}),
(308,562,o),
(321,614,o),
(326,629,c,{
"Letterink-NibData" = {
AngleInDegrees = 160.34617;
};
}),
(330,617,o),
(349,559,o),
(363,526,cs,{
"Letterink-NibData" = {
AngleInDegrees = 157.39526;
};
}),
(475,257,l,{
"Letterink-NibData" = {
AngleInDegrees = 32.90524;
};
}),
(486,274,l,{
"Letterink-NibData" = {
AngleInDegrees = 270;
};
}),
(168,274,l,{
"Letterink-NibData" = {
AngleInDegrees = 147.09476;
};
}),
(179,257,l,{
"Letterink-NibData" = {
AngleInDegrees = 22.96683;
};
})
);
}
);
width = 656;
}
);
userData = {
position = 10;
width = 615;
};
},
{
glyphname = A.swsh;
kernLeft = A;
kernRight = A;
layers = (
{
anchors = (
{
name = bottom;
pos = (435,0);
},
{
name = ogonek;
pos = (736,0);
},
{
name = top;
pos = (435,684);
}
);
hints = (
{
name = _corner.caps_swash_diag;
options = 1;
origin = (0,0);
scale = (-1,1);
type = Corner;
}
);
layerId = "873CAA12-270D-4223-A88E-AE8E101FDBE8";
shapes = (
{
closed = 1;
nodes = (
(229,70,l,{
"Letterink-NibData" = {
AngleInDegrees = 21.85567;
};
}),
(302,252,l,{
"Letterink-NibData" = {
AngleInDegrees = 235.95406;
};
}),
(265,227,l,{
"Letterink-NibData" = {
AngleInDegrees = 90;
};
}),
(604,227,l,{
"Letterink-NibData" = {
AngleInDegrees = 304.04594;
};
}),
(567,252,l,{
"Letterink-NibData" = {
AngleInDegrees = 157.38014;
};
}),
(672,0,l,{
"Letterink-NibData" = {
AngleInDegrees = 90;
};
}),
(736,0,l,{
"Letterink-NibData" = {
AngleInDegrees = 337.15156;
};
}),
(444,693,l,{
"Letterink-NibData" = {
AngleInDegrees = 270;
};
}),
(425,693,l,{
"Letterink-NibData" = {
AngleInDegrees = 202.66723;
};
}),
(174,93,l,{
"Letterink-NibData" = {
AngleInDegrees = 202.61986;
};
})
);
},
{
closed = 1;
nodes = (
(424,552,l,{
"Letterink-NibData" = {
AngleInDegrees = 14.03624;
};
}),
(434,592,l,{
"Letterink-NibData" = {
AngleInDegrees = 164.62375;
};
}),
(445,552,l,{
"Letterink-NibData" = {
AngleInDegrees = 158.13142;
};
}),
(563,258,l,{
"Letterink-NibData" = {
AngleInDegrees = 34.2157;
};
}),
(580,283,l,{
"Letterink-NibData" = {
AngleInDegrees = 270;
};
}),
(289,283,l,{
"Letterink-NibData" = {
AngleInDegrees = 145.7843;
};
}),
(306,258,l,{
"Letterink-NibData" = {
AngleInDegrees = 21.86858;
};
})
);
}
);
width = 752;
},
{
anchors = (
{
name = bottom;
pos = (424,11);
},
{
name = ogonek;
pos = (738,-1);
},
{
name = top;
pos = (422,684);
}
);
hints = (
{
name = _corner.caps_swash_diag;
options = 1;
origin = (0,0);
scale = (-1,1);
type = Corner;
}
);
layerId = "0CAF3BED-C4AC-4024-B3E1-4C69D1EF7EC0";
shapes = (
{
closed = 1;
nodes = (
(226,69,l,{
"Letterink-NibData" = {
AngleInDegrees = 22.79277;
};
}),
(302,253,l,{
"Letterink-NibData" = {
AngleInDegrees = 236.57519;
};
}),
(252,220,l,{
"Letterink-NibData" = {
AngleInDegrees = 90;
};
}),
(595,220,l,{
"Letterink-NibData" = {
AngleInDegrees = 303.42481;
};
}),
(545,253,l,{
"Letterink-NibData" = {
AngleInDegrees = 157.26766;
};
}),
(651,0,l,{
"Letterink-NibData" = {
AngleInDegrees = 90;
};
}),
(738,0,l,{
"Letterink-NibData" = {
AngleInDegrees = 336.58066;
};
}),
(440,688,l,{
"Letterink-NibData" = {
AngleInDegrees = 270;
};
}),
(406,688,l,{
"Letterink-NibData" = {
AngleInDegrees = 203.31771;
};
}),
(156,108,l,{
"Letterink-NibData" = {
AngleInDegrees = 202.9321;
};
})
);
},
{
closed = 1;
nodes = (
(410,518,l,{
"Letterink-NibData" = {
AngleInDegrees = 15.78075;
};
}),
(423,564,l,{
"Letterink-NibData" = {
AngleInDegrees = 164.21925;
};
}),
(436,518,l,{
"Letterink-NibData" = {
AngleInDegrees = 158.35251;
};
}),
(538,261,l,{
"Letterink-NibData" = {
AngleInDegrees = 34.87533;
};
}),
(561,294,l,{
"Letterink-NibData" = {
AngleInDegrees = 270;
};
}),
(282,294,l,{
"Letterink-NibData" = {
AngleInDegrees = 146.30993;
};
}),
(304,261,l,{
"Letterink-NibData" = {
AngleInDegrees = 22.41376;
};
})
);
}
);
width = 745;
},
{
anchors = (
{
name = bottom;
pos = (435,0);
},
{
name = ogonek;
pos = (731,0);
},
{
name = top;
pos = (435,684);
}
);
hints = (
{
name = _corner.caps_swash_diag;
options = 1;
origin = (0,0);
scale = (-1,1);
type = Corner;
}
);
layerId = "49C16FD3-6177-408B-A733-AEB3898BB77C";
shapes = (
{
closed = 1;
nodes = (
(222,69,l,{
"Letterink-NibData" = {
AngleInDegrees = 21.9487;
};
}),
(296,250,l,{
"Letterink-NibData" = {
AngleInDegrees = 235.7843;
};
}),
(271,233,l,{
"Letterink-NibData" = {
AngleInDegrees = 90;
};
}),
(598,233,l,{
"Letterink-NibData" = {
AngleInDegrees = 304.2157;
};
}),
(573,250,l,{
"Letterink-NibData" = {
AngleInDegrees = 157.41269;
};
}),
(677,0,l,{
"Letterink-NibData" = {
AngleInDegrees = 90;
};
}),
(726,0,l,{
"Letterink-NibData" = {
AngleInDegrees = 337.54495;
};
}),
(440,692,l,{
"Letterink-NibData" = {
AngleInDegrees = 270;
};
}),
(430,692,l,{
"Letterink-NibData" = {
AngleInDegrees = 202.29205;
};
}),
(183,85,l,{
"Letterink-NibData" = {
AngleInDegrees = 202.47943;
};
})
);
},
{
closed = 1;
nodes = (
(421,569,l,{
"Letterink-NibData" = {
AngleInDegrees = 15.64224;
};
}),
(435,619,l,{
"Letterink-NibData" = {
AngleInDegrees = 165.42579;
};
}),
(448,569,l,{
"Letterink-NibData" = {
AngleInDegrees = 158.93765;
};
}),
(567,260,l,{
"Letterink-NibData" = {
AngleInDegrees = 35.21759;
};
}),
(579,277,l,{
"Letterink-NibData" = {
AngleInDegrees = 270;
};
}),
(290,277,l,{
"Letterink-NibData" = {
AngleInDegrees = 144.78241;
};
}),
(302,260,l,{
"Letterink-NibData" = {
AngleInDegrees = 21.06235;
};
})
);
}
);
width = 753;
},
{
anchors = (
{
name = bottom;
pos = (424,-6);
},
{
name = ogonek;
pos = (720,0);
},
{
name = top;
pos = (424,684);
}
);
associatedMasterId = "49C16FD3-6177-408B-A733-AEB3898BB77C";
layerId = "58617E73-3A60-467D-AD5A-D66EDA6AE7B6";
name = "6 Jan 22, 16:52";
shapes = (
{
closed = 1;
nodes = (
(162,-11,o),
(188,10,o),
(204,49,cs,{
"Letterink-NibData" = {
AngleInDegrees = 21.9487;
};
}),
(285,250,l,{
"Letterink-NibData" = {
AngleInDegrees = 235.7843;
};
}),
(260,233,l,{
"Letterink-NibData" = {
AngleInDegrees = 90;
};
}),
(587,233,l,{
"Letterink-NibData" = {
AngleInDegrees = 304.2157;
};
}),
(562,250,l,{
"Letterink-NibData" = {
AngleInDegrees = 157.41269;
};
}),
(666,0,l,{
"Letterink-NibData" = {
AngleInDegrees = 90;
};
}),
(715,0,l,{
"Letterink-NibData" = {
AngleInDegrees = 337.54495;
};
}),
(429,692,l,{
"Letterink-NibData" = {
AngleInDegrees = 270;
};
}),
(419,692,l,{
"Letterink-NibData" = {
AngleInDegrees = 202.29205;
};
}),
(164,70,ls,{
"Letterink-NibData" = {
AngleInDegrees = 202.47943;
};
}),
(152,41,o),
(141,30,o),
(121,30,cs,{
"Letterink-NibData" = {
AngleInDegrees = 270;
};
}),
(101,30,o),
(84,48,o),
(84,67,cs),
(84,72,o),
(85,77,o),
(87,82,c,{
"Letterink-NibData" = {
AngleInDegrees = 304.43899;
};
}),
(52,106,l,{
"Letterink-NibData" = {
AngleInDegrees = 213.69007;
};
}),
(44,94,o),
(40,76,o),
(40,66,cs,{
"Letterink-NibData" = {
AngleInDegrees = 180;
};
}),
(40,21,o),
(81,-11,o),
(123,-11,cs,{
"Letterink-NibData" = {
AngleInDegrees = 90;
};
})
);
},
{
closed = 1;
nodes = (
(410,569,l,{
"Letterink-NibData" = {
AngleInDegrees = 15.64224;
};
}),
(424,619,l,{
"Letterink-NibData" = {
AngleInDegrees = 165.42579;
};
}),
(437,569,l,{
"Letterink-NibData" = {
AngleInDegrees = 158.93765;
};
}),
(556,260,l,{
"Letterink-NibData" = {
AngleInDegrees = 35.21759;
};
}),
(568,277,l,{
"Letterink-NibData" = {
AngleInDegrees = 270;
};
}),
(279,277,l,{
"Letterink-NibData" = {
AngleInDegrees = 144.78241;
};
}),
(291,260,l,{
"Letterink-NibData" = {
AngleInDegrees = 21.06235;
};
})
);
}
);
width = 753;
},
{
anchors = (
{
name = bottom;
pos = (428,0);
},
{
name = ogonek;
pos = (729,0);
},
{
name = top;
pos = (428,684);
}
);
associatedMasterId = "873CAA12-270D-4223-A88E-AE8E101FDBE8";
layerId = "C1E53CD0-1AF8-4A71-8E4B-82556DFB914A";
name = "6 Jan 22, 16:55";
shapes = (
{
closed = 1;
nodes = (
(175,-11,o),
(197,9,o),
(222,70,cs,{
"Letterink-NibData" = {
AngleInDegrees = 21.85567;
};
}),
(295,252,l,{
"Letterink-NibData" = {
AngleInDegrees = 235.95406;
};
}),
(258,227,l,{
"Letterink-NibData" = {
AngleInDegrees = 90;
};
}),
(597,227,l,{
"Letterink-NibData" = {
AngleInDegrees = 304.04594;
};
}),
(560,252,l,{
"Letterink-NibData" = {
AngleInDegrees = 157.38014;
};
}),
(665,0,l,{
"Letterink-NibData" = {
AngleInDegrees = 90;
};
}),
(729,0,l,{
"Letterink-NibData" = {
AngleInDegrees = 337.15156;
};
}),
(437,693,l,{
"Letterink-NibData" = {
AngleInDegrees = 270;
};
}),
(418,693,l,{
"Letterink-NibData" = {
AngleInDegrees = 202.66723;
};
}),
(167,92,ls,{
"Letterink-NibData" = {
AngleInDegrees = 202.61986;
};
}),
(152,56,o),
(148,43,o),
(120,43,cs,{
"Letterink-NibData" = {
AngleInDegrees = 270;
};
}),
(109,43,o),
(92,55,o),
(92,71,cs),
(92,75,o),
(92,79,o),
(94,83,c,{
"Letterink-NibData" = {
AngleInDegrees = 302.55;
};
}),
(47,113,l,{
"Letterink-NibData" = {
AngleInDegrees = 213.69007;
};
}),
(39,101,o),
(36,83,o),
(36,71,cs,{
"Letterink-NibData" = {
AngleInDegrees = 180;
};
}),
(36,25,o),
(76,-13,o),
(127,-12,cs,{
"Letterink-NibData" = {
AngleInDegrees = 88.80651;
};
})
);
},
{
closed = 1;
nodes = (
(417,552,l,{
"Letterink-NibData" = {
AngleInDegrees = 14.03624;
};
}),
(427,592,l,{
"Letterink-NibData" = {
AngleInDegrees = 164.62375;
};
}),
(438,552,l,{
"Letterink-NibData" = {
AngleInDegrees = 158.13142;
};
}),
(556,258,l,{
"Letterink-NibData" = {
AngleInDegrees = 34.2157;
};
}),
(573,283,l,{
"Letterink-NibData" = {
AngleInDegrees = 270;
};
}),
(282,283,l,{
"Letterink-NibData" = {
AngleInDegrees = 145.7843;
};
}),
(299,258,l,{
"Letterink-NibData" = {
AngleInDegrees = 21.86858;
};
})
);
}
);
width = 762;
}
);
userData = {
position = 666;
width = 20;
};
},
{
glyphname = AE;
kernLeft = AE;
kernRight = E;
layers = (
{
anchors = (
{
name = bottom;
pos = (543,0);
},
{
name = top;
pos = (553,682);
}
);
hints = (
{
name = _corner.caps_diag;
options = 1;
origin = (0,0);
scale = (-1,1);
type = Corner;
}
);
layerId = "873CAA12-270D-4223-A88E-AE8E101FDBE8";
shapes = (
{
closed = 1;
nodes = (
(184,42,l,{
"Letterink-NibData" = {
AngleInDegrees = 26.79844;
};
}),
(275,227,l,{
"Letterink-NibData" = {
AngleInDegrees = 90;
};
}),
(492,227,l,{
"Letterink-NibData" = {
AngleInDegrees = 180;
};
}),
(492,0,l,{
"Letterink-NibData" = {
AngleInDegrees = 90;
};
}),
(920,0,l),
(920,56,l,{
"Letterink-NibData" = {
AngleInDegrees = 270;
};
}),
(553,56,l),
(553,334,l,{
"Letterink-NibData" = {
AngleInDegrees = 90;
};
}),
(800,334,l),
(800,390,l,{
"Letterink-NibData" = {
AngleInDegrees = 270;
};
}),
(553,390,l),
(553,628,l,{
"Letterink-NibData" = {
AngleInDegrees = 90;
};
}),
(900,628,l),
(900,684,l,{
"Letterink-NibData" = {
AngleInDegrees = 270;
};
}),
(468,684,l,{
"Letterink-NibData" = {
AngleInDegrees = 208.73294;
};
}),
(134,73,l,{
"Letterink-NibData" = {
AngleInDegrees = 209.0546;
};
})
);
},
{
closed = 1;
nodes = (
(480,592,l,{
"Letterink-NibData" = {
AngleInDegrees = 25.34617;
};
}),
(493,630,l,{
"Letterink-NibData" = {
AngleInDegrees = 180.16512;
};
}),
(492,283,l,{
"Letterink-NibData" = {
AngleInDegrees = 270;
};
}),
(310,283,l,{
"Letterink-NibData" = {
AngleInDegrees = 28.81791;
};
})
);
}
);
width = 961;
},
{
anchors = (
{
name = bottom;
pos = (530,0);
},
{
name = top;
pos = (541,673);
}
);
hints = (
{
name = _corner.caps_diag;
options = 1;
origin = (0,0);
scale = (-1,1);
type = Corner;
}
);
layerId = "0CAF3BED-C4AC-4024-B3E1-4C69D1EF7EC0";
shapes = (
{
closed = 1;
nodes = (
(194,39,l,{
"Letterink-NibData" = {
AngleInDegrees = 26.8249;
};
}),
(283,220,l,{
"Letterink-NibData" = {
AngleInDegrees = 90;
};
}),
(470,220,l,{
"Letterink-NibData" = {
AngleInDegrees = 180;
};
}),
(470,-1,l,{
"Letterink-NibData" = {
AngleInDegrees = 90;
};
}),
(907,-1,l),
(907,75,l,{
"Letterink-NibData" = {
AngleInDegrees = 270;
};
}),
(552,75,l),
(552,325,l,{
"Letterink-NibData" = {
AngleInDegrees = 90;
};
}),
(789,325,l),
(789,401,l,{
"Letterink-NibData" = {
AngleInDegrees = 270;
};
}),
(552,401,l),
(552,610,l,{
"Letterink-NibData" = {
AngleInDegrees = 90;
};
}),
(887,610,l),
(887,686,l,{
"Letterink-NibData" = {
AngleInDegrees = 270;
};
}),
(443,686,l,{
"Letterink-NibData" = {
AngleInDegrees = 208.5766;
};
}),
(130,88,l,{
"Letterink-NibData" = {
AngleInDegrees = 209.0546;
};
})
);
},
{
closed = 1;
nodes = (
(454,537,l,{
"Letterink-NibData" = {
AngleInDegrees = 23.19859;
};
}),
(470,586,l,{
"Letterink-NibData" = {
AngleInDegrees = 180;
};
}),
(470,296,l,{
"Letterink-NibData" = {
AngleInDegrees = 270;
};
}),
(327,296,l,{
"Letterink-NibData" = {
AngleInDegrees = 28.71031;
};
})
);
}
);
width = 949;
},
{
anchors = (
{
name = bottom;
pos = (552,0);
},
{
name = top;
pos = (560,692);
}
);
hints = (
{
name = _corner.caps_diag;
origin = (0,0);
scale = (-1,1);
type = Corner;
}
);
layerId = "49C16FD3-6177-408B-A733-AEB3898BB77C";
shapes = (
{
closed = 1;
nodes = (
(176,44,l,{
"Letterink-NibData" = {
AngleInDegrees = 29.29136;
};
}),
(278,235,l,{
"Letterink-NibData" = {
AngleInDegrees = 90;
};
}),
(506,235,l,{
"Letterink-NibData" = {
AngleInDegrees = 180;
};
}),
(506,1,l,{
"Letterink-NibData" = {
AngleInDegrees = 90;
};
}),
(925,1,l),
(925,41,l,{
"Letterink-NibData" = {
AngleInDegrees = 270;
};
}),
(548,41,l),
(548,344,l,{
"Letterink-NibData" = {
AngleInDegrees = 90;
};
}),
(802,344,l),
(802,384,l,{
"Letterink-NibData" = {
AngleInDegrees = 270;
};
}),
(548,384,l),
(548,645,l,{
"Letterink-NibData" = {
AngleInDegrees = 90;
};
}),
(905,645,l),
(905,685,l,{
"Letterink-NibData" = {
AngleInDegrees = 270;
};
}),
(478,685,l,{
"Letterink-NibData" = {
AngleInDegrees = 208.82166;
};
}),
(138,61,l,{
"Letterink-NibData" = {
AngleInDegrees = 213.69007;
};
})
);
},
{
closed = 1;
nodes = (
(474,596,l,{
"Letterink-NibData" = {
AngleInDegrees = 27.32389;
};
}),
(505,656,l,{
"Letterink-NibData" = {
AngleInDegrees = 179.84962;
};
}),
(506,275,l,{
"Letterink-NibData" = {
AngleInDegrees = 270;
};
}),
(299,275,l,{
"Letterink-NibData" = {
AngleInDegrees = 28.59795;
};
})
);
}
);
width = 940;
},
{
anchors = (
{
name = bottom;
pos = (548,0);
},
{
name = top;
pos = (556,692);
}
);
associatedMasterId = "49C16FD3-6177-408B-A733-AEB3898BB77C";
layerId = "C1A3D0A8-503D-4B78-876F-381CB7337013";
name = "11 Jan 22, 13:13";
shapes = (
{
closed = 1;
nodes = (
(139,-2,o),
(151,26,o),
(182,71,c,{
"Letterink-NibData" = {
AngleInDegrees = 29.29136;
};
}),
(274,235,l,{
"Letterink-NibData" = {
AngleInDegrees = 90;
};
}),
(502,235,l,{
"Letterink-NibData" = {
AngleInDegrees = 180;
};
}),
(502,1,l,{
"Letterink-NibData" = {
AngleInDegrees = 90;
};
}),
(921,1,l),
(921,41,l,{
"Letterink-NibData" = {
AngleInDegrees = 270;
};
}),
(544,41,l),
(544,344,l,{
"Letterink-NibData" = {
AngleInDegrees = 90;
};
}),
(798,344,l),
(798,384,l,{
"Letterink-NibData" = {
AngleInDegrees = 270;
};
}),
(544,384,l),
(544,645,l,{
"Letterink-NibData" = {
AngleInDegrees = 90;
};
}),
(901,645,l),
(901,685,l,{
"Letterink-NibData" = {
AngleInDegrees = 270;
};
}),
(474,685,l,{
"Letterink-NibData" = {
AngleInDegrees = 208.82166;
};
}),
(140,78,l,{
"Letterink-NibData" = {
AngleInDegrees = 213.69007;
};
}),
(126,57,o),
(117,38,o),
(93,38,cs,{
"Letterink-NibData" = {
AngleInDegrees = 270;
};
}),
(79,38,o),
(62,47,o),
(54,56,c,{
"Letterink-NibData" = {
AngleInDegrees = 244.0577;
};
}),
(17,38,l,{
"Letterink-NibData" = {
AngleInDegrees = 146.82149;
};
}),
(34,12,o),
(61,-2,o),
(92,-2,cs,{
"Letterink-NibData" = {
AngleInDegrees = 90;
};
})
);
},
{
closed = 1;
nodes = (
(470,596,l,{
"Letterink-NibData" = {
AngleInDegrees = 27.32389;
};
}),
(501,656,l,{
"Letterink-NibData" = {
AngleInDegrees = 179.84962;
};
}),
(502,275,l,{
"Letterink-NibData" = {
AngleInDegrees = 270;
};
}),
(295,275,l,{
"Letterink-NibData" = {
AngleInDegrees = 28.59795;
};
})
);
}
);
width = 966;
},
{
anchors = (
{
name = bottom;
pos = (543,0);
},
{
name = top;
pos = (554,673);
}
);
associatedMasterId = "0CAF3BED-C4AC-4024-B3E1-4C69D1EF7EC0";
layerId = "8D16C2AC-4E99-48C9-ADA3-C168C353B72B";
name = "11 Jan 22, 13:30";
shapes = (
{
closed = 1;
nodes = (
(142,-12,o),
(179,8,o),
(197,44,cs,{
"Letterink-NibData" = {
AngleInDegrees = 26.8249;
};
}),
(286,220,l,{
"Letterink-NibData" = {
AngleInDegrees = 90;
};
}),
(483,220,l,{
"Letterink-NibData" = {
AngleInDegrees = 180;
};
}),
(483,-1,l,{
"Letterink-NibData" = {
AngleInDegrees = 90;
};
}),
(920,-1,l),
(920,75,l,{
"Letterink-NibData" = {
AngleInDegrees = 270;
};
}),
(565,75,l),
(565,325,l,{
"Letterink-NibData" = {
AngleInDegrees = 90;
};
}),
(802,325,l),
(802,401,l,{
"Letterink-NibData" = {
AngleInDegrees = 270;
};
}),
(565,401,l),
(565,610,l,{
"Letterink-NibData" = {
AngleInDegrees = 90;
};
}),
(900,610,l),
(900,686,l,{
"Letterink-NibData" = {
AngleInDegrees = 270;
};
}),
(456,686,l,{
"Letterink-NibData" = {
AngleInDegrees = 208.5766;
};
}),
(133,93,ls,{
"Letterink-NibData" = {
AngleInDegrees = 209.0546;
};
}),
(123,75,o),
(114,67,o),
(99,67,cs,{
"Letterink-NibData" = {
AngleInDegrees = 270;
};
}),
(88,67,o),
(76,72,o),
(66,86,c,{
"Letterink-NibData" = {
AngleInDegrees = 220.6013;
};
}),
(18,30,l,{
"Letterink-NibData" = {
AngleInDegrees = 145.7843;
};
}),
(35,5,o),
(66,-12,o),
(107,-12,cs,{
"Letterink-NibData" = {
AngleInDegrees = 90;
};
})
);
},
{
closed = 1;
nodes = (
(462,537,l,{
"Letterink-NibData" = {
AngleInDegrees = 23.19859;
};
}),
(483,586,l,{
"Letterink-NibData" = {
AngleInDegrees = 180;
};
}),
(483,296,l,{
"Letterink-NibData" = {
AngleInDegrees = 270;
};
}),
(330,296,l,{
"Letterink-NibData" = {
AngleInDegrees = 28.71031;
};
})
);
}
);
width = 962;
}
);
metricLeft = "=A*.6";
unicode = 198;
userData = {
position = 422;
width = 61;
};
},
{
glyphname = AE.ss01;
kernLeft = AE;
kernRight = E;
layers = (
{
anchors = (
{
name = bottom;
pos = (470,0);
},
{
name = top;
pos = (480,682);
}
);
layerId = "873CAA12-270D-4223-A88E-AE8E101FDBE8";
shapes = (
{
closed = 1;
nodes = (
(75,0,l,{
"Letterink-NibData" = {
AngleInDegrees = 28.83986;
};
}),
(200,227,l,{
"Letterink-NibData" = {
AngleInDegrees = 90;
};
}),
(419,227,l,{
"Letterink-NibData" = {
AngleInDegrees = 180;
};
}),
(419,0,l,{
"Letterink-NibData" = {
AngleInDegrees = 90;
};
}),
(836,0,l),
(836,56,l,{
"Letterink-NibData" = {
AngleInDegrees = 270;
};
}),
(479,56,l),
(479,334,l,{
"Letterink-NibData" = {
AngleInDegrees = 90;
};
}),
(716,334,l),
(716,390,l,{
"Letterink-NibData" = {
AngleInDegrees = 270;
};
}),
(479,390,l),
(479,628,l,{
"Letterink-NibData" = {
AngleInDegrees = 90;
};
}),
(816,628,l),
(816,684,l,{
"Letterink-NibData" = {
AngleInDegrees = 270;
};
}),
(396,684,l,{
"Letterink-NibData" = {
AngleInDegrees = 209.62747;
};
}),
(7,0,l,{
"Letterink-NibData" = {
AngleInDegrees = 90;
};
})
);
},
{
closed = 1;
nodes = (
(400,587,l,{
"Letterink-NibData" = {
AngleInDegrees = 23.35556;
};
}),
(419,631,l,{
"Letterink-NibData" = {
AngleInDegrees = 180;
};
}),
(419,283,l,{
"Letterink-NibData" = {
AngleInDegrees = 270;
};
}),
(228,283,l,{
"Letterink-NibData" = {
AngleInDegrees = 29.50073;
};
})
);
}
);
width = 877;
},
{
anchors = (
{
name = bottom;
pos = (470,0);
},
{
name = top;
pos = (481,673);
}
);
layerId = "0CAF3BED-C4AC-4024-B3E1-4C69D1EF7EC0";
shapes = (
{
closed = 1;
nodes = (
(92,0,l,{
"Letterink-NibData" = {
AngleInDegrees = 28.81079;
};
}),
(213,220,l,{
"Letterink-NibData" = {
AngleInDegrees = 90;
};
}),
(410,220,l,{
"Letterink-NibData" = {
AngleInDegrees = 180;
};
}),
(410,-1,l,{
"Letterink-NibData" = {
AngleInDegrees = 90;
};
}),
(837,-1,l),
(837,75,l,{
"Letterink-NibData" = {
AngleInDegrees = 270;
};
}),
(492,75,l),
(492,325,l,{
"Letterink-NibData" = {
AngleInDegrees = 90;
};
}),
(719,325,l),
(719,401,l,{
"Letterink-NibData" = {
AngleInDegrees = 270;
};
}),
(492,401,l),
(492,610,l,{
"Letterink-NibData" = {
AngleInDegrees = 90;
};
}),
(817,610,l),
(817,686,l,{
"Letterink-NibData" = {
AngleInDegrees = 270;
};
}),
(393,686,l,{
"Letterink-NibData" = {
AngleInDegrees = 209.70894;
};
}),
(1,-1,l,{
"Letterink-NibData" = {
AngleInDegrees = 89.3704;
};
})
);
},
{
closed = 1;
nodes = (
(396,561,l,{
"Letterink-NibData" = {
AngleInDegrees = 23.62938;
};
}),
(410,593,l,{
"Letterink-NibData" = {
AngleInDegrees = 180;
};
}),
(410,296,l,{
"Letterink-NibData" = {
AngleInDegrees = 270;
};
}),
(251,296,l,{
"Letterink-NibData" = {
AngleInDegrees = 28.68615;
};
})
);
}
);
width = 880;
},
{
anchors = (
{
name = bottom;
pos = (462,0);
},
{
name = top;
pos = (469,692);
}
);
layerId = "49C16FD3-6177-408B-A733-AEB3898BB77C";
shapes = (
{
closed = 1;
nodes = (
(64,1,l,{
"Letterink-NibData" = {
AngleInDegrees = 28.2127;
};
}),
(189,234,l,{
"Letterink-NibData" = {
AngleInDegrees = 90;
};
}),
(416,234,l,{
"Letterink-NibData" = {
AngleInDegrees = 180;
};
}),
(416,1,l,{
"Letterink-NibData" = {
AngleInDegrees = 90;
};
}),
(836,1,l),
(836,41,l,{
"Letterink-NibData" = {
AngleInDegrees = 270;
};
}),
(458,41,l),
(458,344,l,{
"Letterink-NibData" = {
AngleInDegrees = 90;
};
}),
(714,344,l),
(714,384,l,{
"Letterink-NibData" = {
AngleInDegrees = 270;
};
}),
(458,384,l),
(458,645,l,{
"Letterink-NibData" = {
AngleInDegrees = 90;
};
}),
(816,645,l),
(816,685,l,{
"Letterink-NibData" = {
AngleInDegrees = 270;
};
}),
(389,685,l,{
"Letterink-NibData" = {
AngleInDegrees = 208.86222;
};
}),
(12,1,l,{
"Letterink-NibData" = {
AngleInDegrees = 90;
};
})
);
},
{
closed = 1;
nodes = (
(386,598,l,{
"Letterink-NibData" = {
AngleInDegrees = 32.55;
};
}),
(416,645,l,{
"Letterink-NibData" = {
AngleInDegrees = 180;
};
}),
(416,274,l,{
"Letterink-NibData" = {
AngleInDegrees = 270;
};
}),
(207,274,l,{
"Letterink-NibData" = {
AngleInDegrees = 28.9193;
};
})
);
}
);
width = 880;
}
);
metricLeft = "=A*.5";
userData = {
position = 422;
width = 61;
};
},
{
glyphname = B;
kernLeft = E;
kernRight = B;
layers = (
{
anchors = (
{
name = bottom;
pos = (311,0);
},
{
name = top;
pos = (311,684);
}
);
hints = (
{
name = _corner.caps_left;
origin = (0,22);
type = Corner;
}
);
layerId = "873CAA12-270D-4223-A88E-AE8E101FDBE8";
shapes = (
{
closed = 1;
nodes = (
(198,-5,ls,{
"Letterink-NibData" = {
AngleInDegrees = 96.00901;
};
}),
(217,-7,o),
(273,-10,o),
(322,-10,cs,{
"Letterink-NibData" = {
AngleInDegrees = 90;
};
}),
(494,-10,o),
(600,47,o),
(600,181,cs),
(600,263,o),
(560,328,o),
(494,358,cs,{
"Letterink-NibData" = {
AngleInDegrees = 294.77514;
};
}),
(481,364,o),
(476,364,o),
(462,368,c,{
"Letterink-NibData" = {
AngleInDegrees = 72.89727;
};
}),
(479,373,o),
(485,374,o),
(495,379,cs,{
"Letterink-NibData" = {
AngleInDegrees = 71.56505;
};
}),
(536,400,o),
(568,449,o),
(568,514,cs),
(568,625,o),
(479,695,o),
(366,695,cs,{
"Letterink-NibData" = {
AngleInDegrees = 270;
};
}),
(145,695,l,{
"Letterink-NibData" = {
AngleInDegrees = 180;
};
}),
(145,1,l,{
"Letterink-NibData" = {
AngleInDegrees = 96.45882;
};
})
);
},
{
closed = 1;
nodes = (
(319,45,o),
(259,45,o),
(205,50,c),
(205,639,l,{
"Letterink-NibData" = {
AngleInDegrees = 90;
};
}),
(380,639,l,{
"Letterink-NibData" = {
AngleInDegrees = 93.05288;
};
}),
(455,635,o),
(508,595,o),
(508,515,cs,{
"Letterink-NibData" = {
AngleInDegrees = 180;
};
}),
(508,476,o),
(495,445,o),
(469,423,cs,{
"Letterink-NibData" = {
AngleInDegrees = 229.96974;
};
}),
(444,402,o),
(407,390,o),
(365,390,cs,{
"Letterink-NibData" = {
AngleInDegrees = 270;
};
}),
(277,390,l,{
"Letterink-NibData" = {
AngleInDegrees = 180;
};
}),
(277,335,l,{
"Letterink-NibData" = {
AngleInDegrees = 90;
};
}),
(372,335,ls,{
"Letterink-NibData" = {
AngleInDegrees = 90;
};
}),
(464,335,o),
(540,281,o),
(540,183,cs,{
"Letterink-NibData" = {
AngleInDegrees = 180;
};
}),
(540,81,o),
(459,45,o),
(339,45,cs,{
"Letterink-NibData" = {
AngleInDegrees = 270;
};
})
);
}
);
width = 637;
},
{
anchors = (
{
name = bottom;
pos = (318,0);
},
{
name = top;
pos = (318,684);
}
);
hints = (
{
name = _corner.caps_left;
origin = (0,22);
type = Corner;
}
);
layerId = "0CAF3BED-C4AC-4024-B3E1-4C69D1EF7EC0";
shapes = (
{
closed = 1;
nodes = (
(207,-5,ls,{
"Letterink-NibData" = {
AngleInDegrees = 96.65443;
};
}),
(267,-12,o),
(322,-10,o),
(341,-10,cs,{
"Letterink-NibData" = {
AngleInDegrees = 90;
};
}),
(494,-10,o),
(608,50,o),
(608,188,cs),
(608,282,o),
(560,337,o),
(500,356,cs),
(481,362,o),
(465,364,o),
(452,364,c,{
"Letterink-NibData" = {
AngleInDegrees = 77.90524;
};
}),
(474,367,o),
(487,370,o),
(498,375,cs,{
"Letterink-NibData" = {
AngleInDegrees = 63.90458;
};
}),
(547,399,o),
(578,446,o),
(578,511,cs),
(578,620,o),
(488,697,o),
(371,697,cs,{
"Letterink-NibData" = {
AngleInDegrees = 270;
};
}),
(145,697,l,{
"Letterink-NibData" = {
AngleInDegrees = 180;
};
}),
(145,2,l,{
"Letterink-NibData" = {
AngleInDegrees = 96.4416;
};
})
);
},
{
closed = 1;
nodes = (
(317,66,o),
(283,67,o),
(227,71,c),
(227,621,l,{
"Letterink-NibData" = {
AngleInDegrees = 90;
};
}),
(384,621,ls,{
"Letterink-NibData" = {
AngleInDegrees = 90;
};
}),
(451,621,o),
(497,580,o),
(497,511,cs,{
"Letterink-NibData" = {
AngleInDegrees = 180;
};
}),
(497,475,o),
(486,450,o),
(463,430,cs,{
"Letterink-NibData" = {
AngleInDegrees = 229.18492;
};
}),
(440,410,o),
(409,400,o),
(370,400,cs,{
"Letterink-NibData" = {
AngleInDegrees = 269.3338;
};
}),
(284,399,l,{
"Letterink-NibData" = {
AngleInDegrees = 180.77422;
};
}),
(283,325,l,{
"Letterink-NibData" = {
AngleInDegrees = 90;
};
}),
(377,325,ls,{
"Letterink-NibData" = {
AngleInDegrees = 90;
};
}),
(460,325,o),
(528,276,o),
(528,189,cs,{
"Letterink-NibData" = {
AngleInDegrees = 180;
};
}),
(528,99,o),
(457,66,o),
(345,66,cs,{
"Letterink-NibData" = {
AngleInDegrees = 270;
};
})
);
}
);
width = 640;
},
{
anchors = (
{
name = bottom;
pos = (313,0);
},
{
name = top;
pos = (313,684);
}
);
hints = (
{
name = _corner.caps_left;
origin = (0,22);
type = Corner;
}
);
layerId = "49C16FD3-6177-408B-A733-AEB3898BB77C";
shapes = (
{
closed = 1;
nodes = (
(192,-4,ls,{
"Letterink-NibData" = {
AngleInDegrees = 96.84277;
};
}),
(217,-7,o),
(277,-9,o),
(331,-9,cs,{
"Letterink-NibData" = {
AngleInDegrees = 90;
};
}),
(488,-9,o),
(592,46,o),
(592,180,cs),
(592,261,o),
(554,312,o),
(491,347,cs,{
"Letterink-NibData" = {
AngleInDegrees = 297.89727;
};
}),
(476,355,o),
(456,362,o),
(430,366,c,{
"Letterink-NibData" = {
AngleInDegrees = 83.65981;
};
}),
(460,369,o),
(478,377,o),
(489,385,cs,{
"Letterink-NibData" = {
AngleInDegrees = 55.30485;
};
}),
(528,412,o),
(561,458,o),
(561,520,cs),
(561,626,o),
(477,696,o),
(363,696,cs,{
"Letterink-NibData" = {
AngleInDegrees = 270;
};
}),
(148,696,l,{
"Letterink-NibData" = {
AngleInDegrees = 180;
};
}),
(148,1,l,{
"Letterink-NibData" = {
AngleInDegrees = 96.48307;
};
})
);
},
{
closed = 1;
nodes = (
(312,30,o),
(309,31,o),
(190,35,c),
(190,657,l,{
"Letterink-NibData" = {
AngleInDegrees = 90;
};
}),
(377,657,l,{
"Letterink-NibData" = {
AngleInDegrees = 93.01279;
};
}),
(453,653,o),
(517,609,o),
(517,520,cs,{
"Letterink-NibData" = {
AngleInDegrees = 180;
};
}),
(517,479,o),
(502,444,o),
(473,419,cs,{
"Letterink-NibData" = {
AngleInDegrees = 229.76364;
};
}),
(447,397,o),
(406,384,o),
(362,384,cs,{
"Letterink-NibData" = {
AngleInDegrees = 270;
};
}),
(280,384,l,{
"Letterink-NibData" = {
AngleInDegrees = 180;
};
}),
(280,345,l,{
"Letterink-NibData" = {
AngleInDegrees = 90;
};
}),
(369,345,ls,{
"Letterink-NibData" = {
AngleInDegrees = 90;
};
}),
(466,345,o),
(549,284,o),
(549,181,cs,{
"Letterink-NibData" = {
AngleInDegrees = 180;
};
}),
(549,70,o),
(459,30,o),
(335,30,cs,{
"Letterink-NibData" = {
AngleInDegrees = 270;
};
})
);
}
);
width = 636;
}
);
unicode = 66;
userData = {
position = 514;
width = 59;
};
},
{
glyphname = B.ss01;
kernLeft = L;
kernRight = B;
layers = (
{
anchors = (
{
name = bottom;
pos = (228,0);
},
{
name = top;
pos = (228,684);
}
);
layerId = "873CAA12-270D-4223-A88E-AE8E101FDBE8";
shapes = (
{
closed = 1;
nodes = (
(286,-10,o),
(321,-6,o),
(352,4,cs,{
"Letterink-NibData" = {
AngleInDegrees = 72.13991;
};
}),
(442,33,o),
(486,106,o),
(486,185,cs),
(486,261,o),
(444,320,o),
(381,358,cs,{
"Letterink-NibData" = {
AngleInDegrees = 300.96376;
};
}),
(376,361,o),
(370,363,o),
(349,368,c,{
"Letterink-NibData" = {
AngleInDegrees = 73.07249;
};
}),
(372,375,o),
(377,378,o),
(379,379,cs,{
"Letterink-NibData" = {
AngleInDegrees = 63.43495;
};
}),
(433,406,o),
(455,456,o),
(455,514,cs),
(455,629,o),
(364,695,o),
(253,695,cs,{
"Letterink-NibData" = {
AngleInDegrees = 270;
};
}),
(33,695,l,{
"Letterink-NibData" = {
AngleInDegrees = 180;
};
}),
(33,639,l,{
"Letterink-NibData" = {
AngleInDegrees = 90;
};
}),
(267,639,l,{
"Letterink-NibData" = {
AngleInDegrees = 94.23639;
};
}),
(348,633,o),
(395,592,o),
(395,518,cs,{
"Letterink-NibData" = {
AngleInDegrees = 180;
};
}),
(395,433,o),
(334,390,o),
(252,390,cs,{
"Letterink-NibData" = {
AngleInDegrees = 270;
};
}),
(74,390,l,{
"Letterink-NibData" = {
AngleInDegrees = 180;
};
}),
(74,335,l,{
"Letterink-NibData" = {
AngleInDegrees = 90;
};
}),
(259,335,ls,{
"Letterink-NibData" = {
AngleInDegrees = 90;
};
}),
(368,335,o),
(426,270,o),
(426,185,cs,{
"Letterink-NibData" = {
AngleInDegrees = 180;
};
}),
(426,92,o),
(356,45,o),
(245,45,cs,{
"Letterink-NibData" = {
AngleInDegrees = 270;
};
}),
(232,45,o),
(200,46,o),
(93,50,c),
(93,652,l,{
"Letterink-NibData" = {
AngleInDegrees = 270;
};
}),
(33,652,l,{
"Letterink-NibData" = {
AngleInDegrees = 180;
};
}),
(33,1,l,{
"Letterink-NibData" = {
AngleInDegrees = 96.58194;
};
}),
(85,-5,ls,{
"Letterink-NibData" = {
AngleInDegrees = 96.48307;
};
}),
(129,-10,o),
(208,-10,o),
(235,-10,cs,{
"Letterink-NibData" = {
AngleInDegrees = 90;
};
})
);
}
);
width = 523;
},
{
anchors = (
{
name = bottom;
pos = (276,0);
},
{
name = top;
pos = (276,684);
}
);
layerId = "0CAF3BED-C4AC-4024-B3E1-4C69D1EF7EC0";
shapes = (
{
closed = 1;
nodes = (
(334,-10,o),
(370,-6,o),
(401,4,cs,{
"Letterink-NibData" = {
AngleInDegrees = 72.32389;
};
}),
(492,33,o),
(539,111,o),
(539,191,cs),
(539,268,o),
(504,320,o),
(443,357,cs,{
"Letterink-NibData" = {
AngleInDegrees = 300.96376;
};
}),
(433,363,o),
(415,369,o),
(407,369,c,{
"Letterink-NibData" = {
AngleInDegrees = 71.56505;
};
}),
(419,373,o),
(424,375,o),
(428,377,cs,{
"Letterink-NibData" = {
AngleInDegrees = 63.43495;
};
}),
(484,405,o),
(509,451,o),
(509,510,cs),
(509,623,o),
(422,697,o),
(301,697,cs,{
"Letterink-NibData" = {
AngleInDegrees = 270;
};
}),
(75,697,l,{
"Letterink-NibData" = {
AngleInDegrees = 180;
};
}),
(75,619,l,{
"Letterink-NibData" = {
AngleInDegrees = 90;
};
}),
(314,619,l,{
"Letterink-NibData" = {
AngleInDegrees = 93.91825;
};
}),
(387,614,o),
(427,578,o),
(427,514,cs,{
"Letterink-NibData" = {
AngleInDegrees = 180;
};
}),
(427,439,o),
(374,401,o),
(300,401,cs,{
"Letterink-NibData" = {
AngleInDegrees = 270;
};
}),
(115,401,l,{
"Letterink-NibData" = {
AngleInDegrees = 180;
};
}),
(115,324,l,{
"Letterink-NibData" = {
AngleInDegrees = 90;
};
}),
(307,324,ls,{
"Letterink-NibData" = {
AngleInDegrees = 90;
};
}),
(406,324,o),
(458,267,o),
(458,191,cs,{
"Letterink-NibData" = {
AngleInDegrees = 180;
};
}),
(458,109,o),
(396,66,o),
(294,66,cs,{
"Letterink-NibData" = {
AngleInDegrees = 270;
};
}),
(280,66,o),
(247,67,o),
(157,71,c),
(157,655,l,{
"Letterink-NibData" = {
AngleInDegrees = 270;
};
}),
(75,655,l,{
"Letterink-NibData" = {
AngleInDegrees = 180;
};
}),
(75,2,l,{
"Letterink-NibData" = {
AngleInDegrees = 96.54629;
};
}),
(136,-5,ls,{
"Letterink-NibData" = {
AngleInDegrees = 96.70984;
};
}),
(170,-9,o),
(255,-10,o),
(284,-10,cs,{
"Letterink-NibData" = {
AngleInDegrees = 90;
};
})
);
}
);
width = 571;
},
{
anchors = (
{
name = bottom;
pos = (273,0);
},
{
name = top;
pos = (273,684);
}
);
layerId = "49C16FD3-6177-408B-A733-AEB3898BB77C";
shapes = (
{
closed = 1;
nodes = (
(330,-9,o),
(368,-5,o),
(399,5,cs,{
"Letterink-NibData" = {
AngleInDegrees = 71.95218;
};
}),
(488,34,o),
(531,104,o),
(531,182,cs),
(531,256,o),
(492,319,o),
(426,352,c,{
"Letterink-NibData" = {
AngleInDegrees = 305.53768;
};
}),
(419,357,o),
(408,358,o),
(365,369,c,{
"Letterink-NibData" = {
AngleInDegrees = 75.67728;
};
}),
(412,381,o),
(422,386,o),
(426,389,cs,{
"Letterink-NibData" = {
AngleInDegrees = 53.1301;
};
}),
(470,422,o),
(498,460,o),
(498,519,cs),
(498,635,o),
(408,696,o),
(300,696,cs,{
"Letterink-NibData" = {
AngleInDegrees = 270;
};
}),
(83,696,l,{
"Letterink-NibData" = {
AngleInDegrees = 180;
};
}),
(83,656,l,{
"Letterink-NibData" = {
AngleInDegrees = 90;
};
}),
(315,656,l,{
"Letterink-NibData" = {
AngleInDegrees = 93.81407;
};
}),
(405,650,o),
(455,600,o),
(455,523,cs,{
"Letterink-NibData" = {
AngleInDegrees = 180;
};
}),
(455,432,o),
(386,384,o),
(299,384,cs,{
"Letterink-NibData" = {
AngleInDegrees = 270;
};
}),
(126,384,l,{
"Letterink-NibData" = {
AngleInDegrees = 180;
};
}),
(126,345,l,{
"Letterink-NibData" = {
AngleInDegrees = 90;
};
}),
(306,345,ls,{
"Letterink-NibData" = {
AngleInDegrees = 90;
};
}),
(423,345,o),
(488,272,o),
(488,182,cs,{
"Letterink-NibData" = {
AngleInDegrees = 180;
};
}),
(488,82,o),
(408,30,o),
(292,30,cs,{
"Letterink-NibData" = {
AngleInDegrees = 270;
};
}),
(277,30,o),
(250,31,o),
(128,34,c),
(128,664,l,{
"Letterink-NibData" = {
AngleInDegrees = 270;
};
}),
(83,664,l,{
"Letterink-NibData" = {
AngleInDegrees = 179.91332;
};
}),
(84,3,l,{
"Letterink-NibData" = {
AngleInDegrees = 98.65254;
};
}),
(130,-4,ls,{
"Letterink-NibData" = {
AngleInDegrees = 99.21103;
};
}),
(167,-10,o),
(280,-9,o),
(282,-9,cs,{
"Letterink-NibData" = {
AngleInDegrees = 90;
};
})
);
}
);
width = 574;
}
);
metricLeft = N.ss01;
userData = {
position = 494;
width = 59;
};
},
{
glyphname = B.swsh;
kernLeft = E.swsh;
kernRight = B;
layers = (
{
hints = (
{
name = _corner.caps_swash;
origin = (0,18);
type = Corner;
}
);
layerId = "873CAA12-270D-4223-A88E-AE8E101FDBE8";
shapes = (
{
closed = 1;
nodes = (
(515,-14,o),
(608,48,o),
(608,181,cs),
(608,267,o),
(575,326,o),
(503,358,cs,{
"Letterink-NibData" = {
AngleInDegrees = 288.43495;
};
}),
(500,359,o),
(494,362,o),
(471,368,c,{
"Letterink-NibData" = {
AngleInDegrees = 74.0546;
};
}),
(492,374,o),
(495,376,o),
(501,379,cs,{
"Letterink-NibData" = {
AngleInDegrees = 58.86103;
};
}),
(549,408,o),
(577,450,o),
(577,511,cs),
(577,632,o),
(481,687,o),
(375,687,cs,{
"Letterink-NibData" = {
AngleInDegrees = 270;
};
}),
(143,687,l,{
"Letterink-NibData" = {
AngleInDegrees = 180;
};
}),
(143,631,l,{
"Letterink-NibData" = {
AngleInDegrees = 90;
};
}),
(389,631,l,{
"Letterink-NibData" = {
AngleInDegrees = 93.62148;
};
}),
(468,626,o),
(517,585,o),
(517,514,cs,{
"Letterink-NibData" = {
AngleInDegrees = 180;
};
}),
(517,429,o),
(456,390,o),
(374,390,cs,{
"Letterink-NibData" = {
AngleInDegrees = 270;
};
}),
(286,390,l,{
"Letterink-NibData" = {
AngleInDegrees = 180;
};
}),
(286,335,l,{
"Letterink-NibData" = {
AngleInDegrees = 90;
};
}),
(381,335,ls,{
"Letterink-NibData" = {
AngleInDegrees = 90;
};
}),
(471,335,o),
(549,284,o),
(549,185,cs,{
"Letterink-NibData" = {
AngleInDegrees = 180;
};
}),
(549,89,o),
(477,45,o),
(351,45,cs,{
"Letterink-NibData" = {
AngleInDegrees = 270;
};
}),
(336,45,o),
(283,49,o),
(224,50,c),
(224,582,l,{
"Letterink-NibData" = {
AngleInDegrees = 270;
};
}),
(164,582,l,{
"Letterink-NibData" = {
AngleInDegrees = 180;
};
}),
(164,1,l,{
"Letterink-NibData" = {
AngleInDegrees = 95.38931;
};
}),
(217,-4,ls,{
"Letterink-NibData" = {
AngleInDegrees = 95.90614;
};
}),
(246,-7,o),
(285,-9,o),
(331,-10,cs,{
"Letterink-NibData" = {
AngleInDegrees = 91.24536;
};
})
);
}
);
width = 646;
},
{
hints = (
{
name = _corner.caps_swash;
origin = (0,18);
type = Corner;
}
);
layerId = "0CAF3BED-C4AC-4024-B3E1-4C69D1EF7EC0";
shapes = (
{
closed = 1;
nodes = (
(540,-10,o),
(619,76,o),
(619,187,cs),
(619,254,o),
(591,306,o),
(552,335,cs,{
"Letterink-NibData" = {
AngleInDegrees = 306.46923;
};
}),
(529,352,o),
(490,363,o),
(467,363,c,{
"Letterink-NibData" = {
AngleInDegrees = 78.69007;
};
}),
(487,367,o),
(513,368,o),
(540,393,cs,{
"Letterink-NibData" = {
AngleInDegrees = 47.91084;
};
}),
(571,421,o),
(588,458,o),
(588,506,cs),
(588,621,o),
(499,685,o),
(380,685,cs,{
"Letterink-NibData" = {
AngleInDegrees = 270;
};
}),
(144,685,l,{
"Letterink-NibData" = {
AngleInDegrees = 180;
};
}),
(144,609,l,{
"Letterink-NibData" = {
AngleInDegrees = 90;
};
}),
(393,609,ls,{
"Letterink-NibData" = {
AngleInDegrees = 90;
};
}),
(463,609,o),
(506,571,o),
(506,509,cs,{
"Letterink-NibData" = {
AngleInDegrees = 180;
};
}),
(506,434,o),
(453,401,o),
(379,401,cs,{
"Letterink-NibData" = {
AngleInDegrees = 270;
};
}),
(292,401,l,{
"Letterink-NibData" = {
AngleInDegrees = 180;
};
}),
(292,324,l,{
"Letterink-NibData" = {
AngleInDegrees = 90;
};
}),
(386,324,ls,{
"Letterink-NibData" = {
AngleInDegrees = 90;
};
}),
(467,324,o),
(537,278,o),
(537,191,cs,{
"Letterink-NibData" = {
AngleInDegrees = 180;
};
}),
(537,97,o),
(473,66,o),
(357,66,cs,{
"Letterink-NibData" = {
AngleInDegrees = 270;
};
}),
(338,66,o),
(327,67,o),
(245,71,c),
(245,561,l,{
"Letterink-NibData" = {
AngleInDegrees = 270;
};
}),
(163,561,l,{
"Letterink-NibData" = {
AngleInDegrees = 180;
};
}),
(163,2,l,{
"Letterink-NibData" = {
AngleInDegrees = 96.34019;
};
}),
(226,-5,ls,{
"Letterink-NibData" = {
AngleInDegrees = 97.12502;
};
}),
(250,-8,o),
(304,-10,o),
(351,-10,cs,{
"Letterink-NibData" = {
AngleInDegrees = 90;
};
})
);
}
);
width = 651;
},
{
hints = (
{
name = _corner.caps_swash;
origin = (0,18);
type = Corner;
}
);
layerId = "49C16FD3-6177-408B-A733-AEB3898BB77C";
shapes = (
{
closed = 1;
nodes = (
(514,-9,o),
(608,47,o),
(608,178,cs),
(608,266,o),
(566,319,o),
(502,351,cs,{
"Letterink-NibData" = {
AngleInDegrees = 296.56505;
};
}),
(494,355,o),
(463,362,o),
(448,365,c,{
"Letterink-NibData" = {
AngleInDegrees = 80.83765;
};
}),
(479,370,o),
(497,380,o),
(499,381,cs,{
"Letterink-NibData" = {
AngleInDegrees = 63.43495;
};
}),
(549,406,o),
(577,452,o),
(577,514,cs),
(577,620,o),
(486,685,o),
(379,685,cs,{
"Letterink-NibData" = {
AngleInDegrees = 270;
};
}),
(141,685,l,{
"Letterink-NibData" = {
AngleInDegrees = 180;
};
}),
(141,645,l,{
"Letterink-NibData" = {
AngleInDegrees = 90;
};
}),
(393,645,l,{
"Letterink-NibData" = {
AngleInDegrees = 93.40644;
};
}),
(477,640,o),
(534,593,o),
(534,517,cs,{
"Letterink-NibData" = {
AngleInDegrees = 180;
};
}),
(534,425,o),
(464,383,o),
(378,383,cs,{
"Letterink-NibData" = {
AngleInDegrees = 270;
};
}),
(296,383,l,{
"Letterink-NibData" = {
AngleInDegrees = 180;
};
}),
(296,345,l,{
"Letterink-NibData" = {
AngleInDegrees = 90;
};
}),
(385,345,ls,{
"Letterink-NibData" = {
AngleInDegrees = 90;
};
}),
(480,345,o),
(566,289,o),
(566,182,cs,{
"Letterink-NibData" = {
AngleInDegrees = 180;
};
}),
(566,78,o),
(486,29,o),
(353,29,cs,{
"Letterink-NibData" = {
AngleInDegrees = 270;
};
}),
(335,29,o),
(290,31,o),
(214,34,c),
(214,591,l,{
"Letterink-NibData" = {
AngleInDegrees = 270;
};
}),
(172,591,l,{
"Letterink-NibData" = {
AngleInDegrees = 180;
};
}),
(172,1,l,{
"Letterink-NibData" = {
AngleInDegrees = 94.96974;
};
}),
(218,-3,ls,{
"Letterink-NibData" = {
AngleInDegrees = 94.92711;
};
}),
(276,-8,o),
(303,-9,o),
(333,-9,cs,{
"Letterink-NibData" = {
AngleInDegrees = 90;
};
})
);
}
);
width = 653;
}
);
userData = {
position = 514;
width = 59;
};
},
{
glyphname = C;
kernLeft = O;
kernRight = C;
layers = (
{
anchors = (
{
name = bottom;
pos = (357,-8);
},
{
name = top;
pos = (357,700);
}
);
background = {
shapes = (
{
closed = 1;
nodes = (
(576,-17,o),
(720,130,o),
(720,330,cs),
(720,349,ls),
(720,548,o),
(572,700,o),
(378,700,cs,{
"Letterink-NibData" = {
AngleInDegrees = "270";
};
}),
(185,700,o),
(37,548,o),
(37,349,cs,{
"Letterink-NibData" = {
AngleInDegrees = "180";
};
}),
(37,330,ls,{
"Letterink-NibData" = {
AngleInDegrees = "180";
};
}),
(37,133,o),
(186,-17,o),
(382,-17,cs,{
"Letterink-NibData" = {
AngleInDegrees = "90";
};
})
);
},
{
closed = 1;
nodes = (
(218,39,o),
(97,163,o),
(97,330,cs),
(97,349,ls),
(97,516,o),
(219,644,o),
(377,644,cs,{
"Letterink-NibData" = {
AngleInDegrees = "90";
};
}),
(537,644,o),
(660,517,o),
(660,349,cs,{
"Letterink-NibData" = {
AngleInDegrees = "180";
};
}),
(660,330,ls,{
"Letterink-NibData" = {
AngleInDegrees = "180";
};
}),
(660,163,o),
(539,39,o),
(379,39,cs,{
"Letterink-NibData" = {
AngleInDegrees = "270";
};
})
);
}
);
};
layerId = "873CAA12-270D-4223-A88E-AE8E101FDBE8";
shapes = (
{
closed = 1;
nodes = (
(476.725,452.215,l),
(496.942,437.775,o),
(518.829,434,o),
(536,434,cs),
(578.062,434,o),
(626,473.213,o),
(626,537,cs),
(626,649.507,o),
(510.967,700,o),
(384,700,cs),
(189.547,700,o),
(37,556.565,o),
(37,330,cs),
(37,130.036,o),
(185.953,-14,o),
(392,-14,cs),
(499.858,-14,o),
(602.542,36.669,o),
(654.093,123.734,c),
(605.907,152.266,l),
(567.458,87.331,o),
(482.142,42,o),
(392,42,cs),
(220.047,42,o),
(97,157.964,o),
(97,330,cs),
(97,521.435,o),
(220.453,644,o),
(384,644,cs),
(502.561,644,o),
(566,594.382,o),
(566,537,cs),
(566,522.787,o),
(561.938,490,o),
(536,490,cs),
(527.171,490,o),
(517.058,492.225,o),
(509.275,497.785,c)
);
}
);
width = 687;
},
{
anchors = (
{
name = bottom;
pos = (382,0);
},
{
name = top;
pos = (374,684);
}
);
background = {
shapes = (
{
closed = 1;
nodes = (
(566,-25,o),
(712,126,o),
(712,326,cs),
(712,355,ls),
(712,548,o),
(560,702,o),
(370,702,cs,{
"Letterink-NibData" = {
AngleInDegrees = "270";
};
}),
(180,702,o),
(29,548,o),
(29,355,cs,{
"Letterink-NibData" = {
AngleInDegrees = "180";
};
}),
(29,326,ls,{
"Letterink-NibData" = {
AngleInDegrees = "180";
};
}),
(29,126,o),
(173,-19,o),
(374,-22,cs,{
"Letterink-NibData" = {
AngleInDegrees = "90.89517371732774";
};
})
);
},
{
closed = 1;
nodes = (
(223,54,o),
(111,170,o),
(111,326,cs),
(111,355,ls),
(111,504,o),
(225,626,o),
(369,626,cs,{
"Letterink-NibData" = {
AngleInDegrees = "90";
};
}),
(515,626,o),
(630,504,o),
(630,355,cs,{
"Letterink-NibData" = {
AngleInDegrees = "180";
};
}),
(630,326,ls,{
"Letterink-NibData" = {
AngleInDegrees = "180";
};
}),
(630,170,o),
(518,54,o),
(371,54,cs,{
"Letterink-NibData" = {
AngleInDegrees = "270";
};
})
);
}
);
};
layerId = "0CAF3BED-C4AC-4024-B3E1-4C69D1EF7EC0";
shapes = (
{
closed = 1;
nodes = (
(458.075,442.706,l),
(480.059,427.003,o),
(502.784,422,o),
(521,422,cs),
(564.525,422,o),
(619,461.026,o),
(619,534,cs),
(619,643.611,o),
(507.646,703,o),
(374,703,cs),
(181.802,703,o),
(29,560.193,o),
(29,329,cs),
(29,126.543,o),
(177.411,-19,o),
(382,-19,cs),
(489.314,-19,o),
(591.295,33.097,o),
(644.614,120.776,c),
(581.386,159.224,l),
(544.705,98.903,o),
(464.686,55,o),
(382,55,cs),
(220.589,55,o),
(109,165.457,o),
(109,329,cs),
(109,509.807,o),
(220.198,627,o),
(374,627,cs),
(486.641,627,o),
(539,570.569,o),
(539,534,cs),
(539,528.974,o),
(545.475,496,o),
(521,496,cs),
(515.216,496,o),
(505.941,496.997,o),
(499.925,501.294,c)
);
}
);
width = 671;
},
{
anchors = (
{
name = bottom;
pos = (365,-29);
},
{
name = top;
pos = (365,723);
}
);
background = {
shapes = (
{
closed = 1;
nodes = (
(588,-14,o),
(730,131,o),
(730,331,cs),
(730,350,ls),
(730,550,o),
(582,702,o),
(388,702,cs,{
"Letterink-NibData" = {
AngleInDegrees = "270";
};
}),
(194,702,o),
(48,551,o),
(48,350,cs,{
"Letterink-NibData" = {
AngleInDegrees = "180";
};
}),
(48,331,ls,{
"Letterink-NibData" = {
AngleInDegrees = "180";
};
}),
(48,133,o),
(195,-14,o),
(392,-14,cs,{
"Letterink-NibData" = {
AngleInDegrees = "90";
};
})
);
},
{
closed = 1;
nodes = (
(218,24,o),
(90,156,o),
(90,331,cs),
(90,350,ls),
(90,526,o),
(219,662,o),
(387,662,cs,{
"Letterink-NibData" = {
AngleInDegrees = "90";
};
}),
(556,662,o),
(688,526,o),
(688,350,cs,{
"Letterink-NibData" = {
AngleInDegrees = "180";
};
}),
(688,331,ls,{
"Letterink-NibData" = {
AngleInDegrees = "180";
};
}),
(688,156,o),
(559,24,o),
(389,24,cs,{
"Letterink-NibData" = {
AngleInDegrees = "270";
};
})
);
}
);
};
layerId = "49C16FD3-6177-408B-A733-AEB3898BB77C";
shapes = (
{
closed = 1;
nodes = (
(494.956,461.539,l),
(512.988,448.659,o),
(533.171,444,o),
(550,444,cs),
(588.986,444,o),
(631,482.629,o),
(631,541,cs),
(631,619.257,o),
(546.896,699,o),
(394,699,cs),
(197.718,699,o),
(46,554.675,o),
(46,328,cs),
(46,126.956,o),
(194.975,-17,o),
(402,-17,cs),
(509.93,-17,o),
(612.948,33.761,o),
(663.419,120.439,c),
(630.581,139.561,l),
(589.052,68.239,o),
(498.07,21,o),
(402,21,cs),
(219.025,21,o),
(88,145.044,o),
(88,328,cs),
(88,531.325,o),
(220.282,661,o),
(394,661,cs),
(491.104,661,o),
(593,618.743,o),
(593,541,cs),
(593,517.371,o),
(581.014,482,o),
(550,482,cs),
(540.829,482,o),
(527.012,485.341,o),
(517.044,492.461,c)
);
}
);
width = 704;
},
{
anchors = (
{
name = bottom;
pos = (384,-29);
},
{
name = top;
pos = (384,723);
}
);
associatedMasterId = "49C16FD3-6177-408B-A733-AEB3898BB77C";
layerId = "9A6A7639-79A9-4EC5-AE88-1E69E535A513";
name = "3 Jan 22, 15:02";
shapes = (
{
closed = 1;
nodes = (
(504,-22,o),
(607,20,o),
(676,118,c,{
"Letterink-NibData" = {
AngleInDegrees = 307.18471;
};
}),
(647,140,l,{
"Letterink-NibData" = {
AngleInDegrees = 215.75389;
};
}),
(593,65,o),
(500,18,o),
(401,18,cs,{
"Letterink-NibData" = {
AngleInDegrees = 270;
};
}),
(226,18,o),
(102,167,o),
(102,335,cs),
(102,508,o),
(235,665,o),
(405,665,cs,{
"Letterink-NibData" = {
AngleInDegrees = 90;
};
}),
(488,665,o),
(595,637,o),
(595,558,cs,{
"Letterink-NibData" = {
AngleInDegrees = 180;
};
}),
(595,531,o),
(582,510,o),
(559,510,cs,{
"Letterink-NibData" = {
AngleInDegrees = 270;
};
}),
(551,510,o),
(536,515,o),
(529,522,c,{
"Letterink-NibData" = {
AngleInDegrees = 217.99873;
};
}),
(504,490,l,{
"Letterink-NibData" = {
AngleInDegrees = 132.27369;
};
}),
(515,480,o),
(540,472,o),
(556,472,cs,{
"Letterink-NibData" = {
AngleInDegrees = 90;
};
}),
(603,472,o),
(635,510,o),
(635,562,cs),
(635,661,o),
(517,706,o),
(413,706,cs,{
"Letterink-NibData" = {
AngleInDegrees = 270;
};
}),
(211,706,o),
(60,535,o),
(60,335,cs,{
"Letterink-NibData" = {
AngleInDegrees = 180;
};
}),
(60,140,o),
(204,-22,o),
(402,-22,cs,{
"Letterink-NibData" = {
AngleInDegrees = 90;
};
})
);
}
);
width = 720;
},
{
anchors = (
{
name = bottom;
pos = (378,-21);
},
{
name = top;
pos = (378,713);
}
);
associatedMasterId = "873CAA12-270D-4223-A88E-AE8E101FDBE8";
layerId = "15FC93EE-0B6A-4FF9-9488-60D43486AADB";
name = "3 Jan 22, 15:14";
shapes = (
{
closed = 1;
nodes = (
(503,-23,o),
(608,25,o),
(675,124,c,{
"Letterink-NibData" = {
AngleInDegrees = 306.65611;
};
}),
(632,156,l,{
"Letterink-NibData" = {
AngleInDegrees = 214.2157;
};
}),
(581,81,o),
(493,34,o),
(396,34,cs,{
"Letterink-NibData" = {
AngleInDegrees = 270;
};
}),
(228,34,o),
(116,169,o),
(116,332,cs),
(116,502,o),
(236,650,o),
(402,650,cs,{
"Letterink-NibData" = {
AngleInDegrees = 90;
};
}),
(473,650,o),
(577,618,o),
(577,557,cs,{
"Letterink-NibData" = {
AngleInDegrees = 180;
};
}),
(577,534,o),
(563,518,o),
(546,518,cs,{
"Letterink-NibData" = {
AngleInDegrees = 270;
};
}),
(538,518,o),
(531,521,o),
(523,526,c,{
"Letterink-NibData" = {
AngleInDegrees = 218.50065;
};
}),
(488,482,l,{
"Letterink-NibData" = {
AngleInDegrees = 126.8699;
};
}),
(504,470,o),
(524,462,o),
(545,462,cs,{
"Letterink-NibData" = {
AngleInDegrees = 90;
};
}),
(595,462,o),
(638,504,o),
(638,556,cs),
(638,657,o),
(514,707,o),
(401,707,cs,{
"Letterink-NibData" = {
AngleInDegrees = 270;
};
}),
(208,707,o),
(56,535,o),
(56,332,cs,{
"Letterink-NibData" = {
AngleInDegrees = 180;
};
}),
(56,138,o),
(198,-23,o),
(395,-23,cs,{
"Letterink-NibData" = {
AngleInDegrees = 90;
};
})
);
}
);
width = 715;
},
{
anchors = (
{
name = bottom;
pos = (387,-9);
},
{
name = top;
pos = (387,703);
}
);
associatedMasterId = "0CAF3BED-C4AC-4024-B3E1-4C69D1EF7EC0";
layerId = "354B442F-650F-4F84-82F8-D7A6B1A052DE";
name = "3 Jan 22, 15:22";
shapes = (
{
closed = 1;
nodes = (
(533,-19,o),
(637,45,o),
(684,146,c,{
"Letterink-NibData" = {
AngleInDegrees = 296.92768;
};
}),
(621,178,l,{
"Letterink-NibData" = {
AngleInDegrees = 204.38637;
};
}),
(587,103,o),
(498,52,o),
(401,52,cs,{
"Letterink-NibData" = {
AngleInDegrees = 270;
};
}),
(250,52,o),
(135,178,o),
(135,340,cs),
(135,509,o),
(259,632,o),
(399,632,cs,{
"Letterink-NibData" = {
AngleInDegrees = 90;
};
}),
(458,632,o),
(562,610,o),
(562,547,cs,{
"Letterink-NibData" = {
AngleInDegrees = 180;
};
}),
(562,530,o),
(554,517,o),
(538,517,cs,{
"Letterink-NibData" = {
AngleInDegrees = 270;
};
}),
(526,517,o),
(513,525,o),
(506,534,c,{
"Letterink-NibData" = {
AngleInDegrees = 218.25442;
};
}),
(465,482,l,{
"Letterink-NibData" = {
AngleInDegrees = 143.53076;
};
}),
(482,459,o),
(508,445,o),
(538,445,cs,{
"Letterink-NibData" = {
AngleInDegrees = 90;
};
}),
(591,445,o),
(637,490,o),
(637,551,cs),
(637,642,o),
(532,706,o),
(404,706,cs,{
"Letterink-NibData" = {
AngleInDegrees = 270;
};
}),
(197,706,o),
(53,539,o),
(53,341,cs,{
"Letterink-NibData" = {
AngleInDegrees = 180;
};
}),
(53,147,o),
(190,-26,o),
(404,-22,cs,{
"Letterink-NibData" = {
AngleInDegrees = 88.66778;
};
})
);
}
);
width = 720;
},
{
anchors = (
{
name = bottom;
pos = (377,-8);
},
{
name = top;
pos = (377,700);
}
);
associatedMasterId = "873CAA12-270D-4223-A88E-AE8E101FDBE8";
layerId = "7131FED1-46C7-49E8-A5F4-1F9E36BAA80C";
name = "5 Jan 22, 07:42";
shapes = (
{
attr = {
strokeHeight = 54;
strokeWidth = 60;
};
closed = 0;
nodes = (
(515,482,l,{
"Letterink-NibData" = {
AngleInDegrees = 116.56505;
};
}),
(525,477,o),
(534,475,o),
(545,475,cs,{
"Letterink-NibData" = {
AngleInDegrees = 91.50744;
};
}),
(583,474,o),
(608,513,o),
(608,553,cs),
(608,626,o),
(519,685,o),
(399,679,cs,{
"Letterink-NibData" = {
AngleInDegrees = 267.08916;
};
}),
(222,670,o),
(87,529,o),
(87,330,cs,{
"Letterink-NibData" = {
AngleInDegrees = 180;
};
}),
(87,139,o),
(220,5,o),
(407,5,cs,{
"Letterink-NibData" = {
AngleInDegrees = 90;
};
}),
(504,5,o),
(597,56,o),
(643,133,c,{
"Letterink-NibData" = {
AngleInDegrees = 30.8542;
};
})
);
}
);
width = 714;
},
{
anchors = (
{
name = bottom;
pos = (390,-29);
},
{
name = top;
pos = (390,723);
}
);
associatedMasterId = "49C16FD3-6177-408B-A733-AEB3898BB77C";
background = {
shapes = (
{
closed = 1;
nodes = (
(510,-22,o),
(613,20,o),
(682,118,c),
(653,140,l),
(599,65,o),
(506,18,o),
(407,18,cs),
(232,18,o),
(108,167,o),
(108,335,cs),
(108,508,o),
(241,665,o),
(411,665,cs),
(494,665,o),
(601,637,o),
(601,558,cs),
(601,531,o),
(588,510,o),
(565,510,cs),
(557,510,o),
(542,515,o),
(535,522,c),
(510,490,l),
(521,480,o),
(546,472,o),
(562,472,cs),
(609,472,o),
(641,510,o),
(641,562,cs),
(641,661,o),
(523,706,o),
(419,706,cs),
(217,706,o),
(66,535,o),
(66,335,cs),
(66,140,o),
(210,-22,o),
(408,-22,cs)
);
}
);
};
layerId = "4473E775-5B50-49F8-862E-9DFFC95B4874";
name = "5 Jan 22, 07:44";
shapes = (
{
attr = {
strokeHeight = 38;
strokeWidth = 42;
};
closed = 0;
nodes = (
(518,484,l,{
"Letterink-NibData" = {
AngleInDegrees = 116.56505;
};
}),
(528,479,o),
(538,477,o),
(549,477,cs,{
"Letterink-NibData" = {
AngleInDegrees = 91.50744;
};
}),
(587,476,o),
(613,516,o),
(613,556,cs),
(613,630,o),
(519,690,o),
(395,684,cs,{
"Letterink-NibData" = {
AngleInDegrees = 267.08916;
};
}),
(218,675,o),
(84,532,o),
(84,330,cs,{
"Letterink-NibData" = {
AngleInDegrees = 180;
};
}),
(84,136,o),
(219,0,o),
(409,0,cs,{
"Letterink-NibData" = {
AngleInDegrees = 90;
};
}),
(507,0,o),
(602,52,o),
(648,130,c,{
"Letterink-NibData" = {
AngleInDegrees = 30.52971;
};
})
);
}
);
width = 726;
}
);
metricLeft = O;
metricRight = "=O*.9";
unicode = 67;
userData = {
position = 570;
width = 54;
};
},
{
glyphname = C.ss01;
kernLeft = O;
kernRight = C;
layers = (
{
anchors = (
{
name = bottom;
pos = (335,0);
},
{
name = top;
pos = (335,684);
}
);
background = {
shapes = (
{
closed = 1;
nodes = (
(573,-17,o),
(717,130,o),
(717,330,cs),
(717,349,ls),
(717,548,o),
(569,700,o),
(375,700,cs,{
"Letterink-NibData" = {
AngleInDegrees = "270";
};
}),
(182,700,o),
(34,548,o),
(34,349,cs,{
"Letterink-NibData" = {
AngleInDegrees = "180";
};
}),
(34,330,ls,{
"Letterink-NibData" = {
AngleInDegrees = "180";
};
}),
(34,133,o),
(183,-17,o),
(379,-17,cs,{
"Letterink-NibData" = {
AngleInDegrees = "90";
};
})
);
},
{
closed = 1;
nodes = (
(215,39,o),
(94,163,o),
(94,330,cs),
(94,349,ls),
(94,516,o),
(216,644,o),
(374,644,cs,{
"Letterink-NibData" = {
AngleInDegrees = "90";
};
}),
(534,644,o),
(657,517,o),
(657,349,cs,{
"Letterink-NibData" = {
AngleInDegrees = "180";
};
}),
(657,330,ls,{
"Letterink-NibData" = {
AngleInDegrees = "180";
};
}),
(657,163,o),
(536,39,o),
(376,39,cs,{
"Letterink-NibData" = {
AngleInDegrees = "270";
};
})
);
}
);
};
layerId = "873CAA12-270D-4223-A88E-AE8E101FDBE8";
shapes = (
{
closed = 1;
nodes = (
(642.826,529.874,l),
(612,632,o),
(505,700,o),
(374,700,cs),
(186.907,700,o),
(37,551.802,o),
(37,336,cs),
(37,119.621,o),
(190.269,-18,o),
(378,-18,cs),
(496,-18,o),
(596,33,o),
(648.152,120.109,c),
(601.848,147.891,l),
(559,77,o),
(477,36,o),
(378,36,cs),
(217.731,36,o),
(97,152.379,o),
(97,336,cs),
(97,516.198,o),
(217.093,646,o),
(374,646,cs),
(483,646,o),
(566,596,o),
(591.174,514.126,c)
);
}
);
width = 670;
},
{
anchors = (
{
name = bottom;
pos = (375,0);
},
{
name = top;
pos = (371,702);
}
);
background = {
shapes = (
{
closed = 1;
nodes = (
(567,-25,o),
(713,126,o),
(713,326,cs),
(713,355,ls),
(713,548,o),
(561,702,o),
(371,702,cs,{
"Letterink-NibData" = {
AngleInDegrees = "270";
};
}),
(181,702,o),
(30,548,o),
(30,355,cs,{
"Letterink-NibData" = {
AngleInDegrees = "180";
};
}),
(30,326,ls,{
"Letterink-NibData" = {
AngleInDegrees = "180";
};
}),
(30,126,o),
(174,-19,o),
(375,-22,cs,{
"Letterink-NibData" = {
AngleInDegrees = "90.89517371732774";
};
})
);
},
{
closed = 1;
nodes = (
(224,54,o),
(112,170,o),
(112,326,cs),
(112,355,ls),
(112,504,o),
(226,626,o),
(370,626,cs,{
"Letterink-NibData" = {
AngleInDegrees = "90";
};
}),
(516,626,o),
(631,504,o),
(631,355,cs,{
"Letterink-NibData" = {
AngleInDegrees = "180";
};
}),
(631,326,ls,{
"Letterink-NibData" = {
AngleInDegrees = "180";
};
}),
(631,170,o),
(519,54,o),
(372,54,cs,{
"Letterink-NibData" = {
AngleInDegrees = "270";
};
})
);
}
);
};
layerId = "0CAF3BED-C4AC-4024-B3E1-4C69D1EF7EC0";
shapes = (
{
closed = 1;
nodes = (
(644.958,531.289,l),
(612.613,625.929,o),
(512.468,705,o),
(371,705,cs),
(183.186,705,o),
(29,555.486,o),
(29,336,cs),
(29,115.343,o),
(185.936,-23,o),
(375,-23,cs),
(490.5,-23,o),
(594.502,27.035,o),
(649.548,118.388,c),
(584.452,157.612,l),
(545.498,92.965,o),
(469.5,53,o),
(375,53,cs),
(222.064,53,o),
(109,164.657,o),
(109,336,cs),
(109,504.514,o),
(220.814,629,o),
(371,629,cs),
(489.532,629,o),
(551.387,570.071,o),
(573.042,506.711,c)
);
}
);
width = 664;
},
{
anchors = (
{
name = bottom;
pos = (339,0);
},
{
name = top;
pos = (339,684);
}
);
background = {
anchors = (
{
name = bottom;
pos = (370,-27);
},
{
name = top;
pos = (370,721);
}
);
shapes = (
{
attr = {
strokeHeight = 38;
strokeWidth = 42;
};
closed = 0;
nodes = (
(606,537,l,{
"Letterink-NibData" = {
AngleInDegrees = 356.78451;
};
}),
(601,626,o),
(503,691,o),
(379,685,cs,{
"Letterink-NibData" = {
AngleInDegrees = 267.08916;
};
}),
(202,676,o),
(67,532,o),
(67,330,cs,{
"Letterink-NibData" = {
AngleInDegrees = 180;
};
}),
(67,136,o),
(202,0,o),
(392,0,cs,{
"Letterink-NibData" = {
AngleInDegrees = 90;
};
}),
(490,0,o),
(585,52,o),
(631,130,c,{
"Letterink-NibData" = {
AngleInDegrees = 30.52971;
};
})
);
}
);
};
layerId = "49C16FD3-6177-408B-A733-AEB3898BB77C";
shapes = (
{
closed = 1;
nodes = (
(647.252,531.278,l),
(620.502,623.788,o),
(521.852,699,o),
(381,699,cs),
(194.443,699,o),
(46,550.485,o),
(46,336,cs),
(46,120.433,o),
(197.369,-17,o),
(385,-17,cs),
(500.087,-17,o),
(600.346,31.62,o),
(653.31,120.254,c),
(620.69,139.746,l),
(575.654,64.38,o),
(489.913,21,o),
(385,21,cs),
(216.631,21,o),
(88,143.567,o),
(88,336,cs),
(88,525.515,o),
(215.557,661,o),
(381,661,cs),
(510.148,661,o),
(589.498,594.212,o),
(610.748,520.722,c)
);
}
);
width = 685;
},
{
anchors = (
{
name = bottom;
pos = (381,-27);
},
{
name = top;
pos = (381,721);
}
);
associatedMasterId = "49C16FD3-6177-408B-A733-AEB3898BB77C";
layerId = "5C147D22-45CB-49AC-8F59-80A6CB628E42";
name = "3 Jan 22, 15:09";
shapes = (
{
closed = 1;
nodes = (
(508,-20,o),
(606,31,o),
(666,119,c,{
"Letterink-NibData" = {
AngleInDegrees = 304.07719;
};
}),
(632,142,l,{
"Letterink-NibData" = {
AngleInDegrees = 214.03213;
};
}),
(580,65,o),
(492,20,o),
(396,20,cs,{
"Letterink-NibData" = {
AngleInDegrees = 270;
};
}),
(225,20,o),
(103,159,o),
(103,331,cs),
(103,497,o),
(224,669,o),
(406,669,cs,{
"Letterink-NibData" = {
AngleInDegrees = 90;
};
}),
(505,669,o),
(586,618,o),
(592,552,c,{
"Letterink-NibData" = {
AngleInDegrees = 90;
};
}),
(633,552,l,{
"Letterink-NibData" = {
AngleInDegrees = 355.69553;
};
}),
(626,645,o),
(535,709,o),
(411,709,cs,{
"Letterink-NibData" = {
AngleInDegrees = 270;
};
}),
(207,709,o),
(61,535,o),
(61,334,cs,{
"Letterink-NibData" = {
AngleInDegrees = 180;
};
}),
(61,132,o),
(201,-20,o),
(397,-20,cs,{
"Letterink-NibData" = {
AngleInDegrees = 90;
};
})
);
}
);
width = 706;
},
{
anchors = (
{
name = bottom;
pos = (377,-18);
},
{
name = top;
pos = (377,711);
}
);
associatedMasterId = "873CAA12-270D-4223-A88E-AE8E101FDBE8";
layerId = "9213DAB1-C864-45AE-B348-221432866101";
name = "3 Jan 22, 15:15";
shapes = (
{
closed = 1;
nodes = (
(505,-17,o),
(607,39,o),
(667,132,c,{
"Letterink-NibData" = {
AngleInDegrees = 304.75591;
};
}),
(618,166,l,{
"Letterink-NibData" = {
AngleInDegrees = 211.73352;
};
}),
(571,90,o),
(486,44,o),
(394,44,cs,{
"Letterink-NibData" = {
AngleInDegrees = 270;
};
}),
(230,44,o),
(115,168,o),
(115,323,cs),
(115,492,o),
(237,645,o),
(392,645,cs,{
"Letterink-NibData" = {
AngleInDegrees = 90;
};
}),
(496,645,o),
(569,599,o),
(572,531,c,{
"Letterink-NibData" = {
AngleInDegrees = 90;
};
}),
(632,531,l,{
"Letterink-NibData" = {
AngleInDegrees = 357.7974;
};
}),
(628,635,o),
(534,705,o),
(397,705,cs,{
"Letterink-NibData" = {
AngleInDegrees = 270;
};
}),
(208,705,o),
(55,533,o),
(55,326,cs,{
"Letterink-NibData" = {
AngleInDegrees = 180;
};
}),
(55,133,o),
(197,-17,o),
(393,-17,cs,{
"Letterink-NibData" = {
AngleInDegrees = 90;
};
})
);
}
);
width = 712;
},
{
anchors = (
{
name = bottom;
pos = (376,-7);
},
{
name = top;
pos = (376,701);
}
);
associatedMasterId = "0CAF3BED-C4AC-4024-B3E1-4C69D1EF7EC0";
layerId = "F3AD09C8-78E5-4679-83B5-5B942013D0D4";
name = "3 Jan 22, 15:21";
shapes = (
{
closed = 1;
nodes = (
(512,-17,o),
(616,40,o),
(678,139,c,{
"Letterink-NibData" = {
AngleInDegrees = 304.31509;
};
}),
(615,182,l,{
"Letterink-NibData" = {
AngleInDegrees = 211.07166;
};
}),
(568,104,o),
(488,59,o),
(393,59,cs,{
"Letterink-NibData" = {
AngleInDegrees = 270;
};
}),
(240,59,o),
(133,176,o),
(133,324,cs),
(133,494,o),
(248,631,o),
(391,631,cs,{
"Letterink-NibData" = {
AngleInDegrees = 90;
};
}),
(491,631,o),
(569,582,o),
(566,520,c,{
"Letterink-NibData" = {
AngleInDegrees = 90;
};
}),
(645,520,l,{
"Letterink-NibData" = {
AngleInDegrees = 1.06091;
};
}),
(647,628,o),
(542,707,o),
(396,707,cs,{
"Letterink-NibData" = {
AngleInDegrees = 270;
};
}),
(207,707,o),
(53,538,o),
(53,327,cs,{
"Letterink-NibData" = {
AngleInDegrees = 180;
};
}),
(53,132,o),
(197,-17,o),
(392,-17,cs,{
"Letterink-NibData" = {
AngleInDegrees = 90;
};
})
);
}
);
width = 716;
},
{
anchors = (
{
name = bottom;
pos = (387,-27);
},
{
name = top;
pos = (387,721);
}
);
associatedMasterId = "49C16FD3-6177-408B-A733-AEB3898BB77C";
layerId = "60C93F8E-5478-4CF7-8F44-AF3ED9540F66";
name = "5 Jan 22, 07:47";
shapes = (
{
attr = {
strokeHeight = 38;
strokeWidth = 42;
};
closed = 0;
nodes = (
(623,537,l,{
"Letterink-NibData" = {
AngleInDegrees = 356.78451;
};
}),
(618,626,o),
(520,691,o),
(396,685,cs,{
"Letterink-NibData" = {
AngleInDegrees = 267.08916;
};
}),
(219,676,o),
(84,532,o),
(84,330,cs,{
"Letterink-NibData" = {
AngleInDegrees = 180;
};
}),
(84,136,o),
(219,0,o),
(409,0,cs,{
"Letterink-NibData" = {
AngleInDegrees = 90;
};
}),
(507,0,o),
(602,52,o),
(648,130,c,{
"Letterink-NibData" = {
AngleInDegrees = 30.52971;
};
})
);
}
);
width = 712;
},
{
anchors = (
{
name = bottom;
pos = (377,-18);
},
{
name = top;
pos = (377,711);
}
);
associatedMasterId = "873CAA12-270D-4223-A88E-AE8E101FDBE8";
layerId = "EAB2A0FC-E10F-4042-B846-88A89CA1E4BF";
name = "5 Jan 22, 07:49";
shapes = (
{
attr = {
strokeHeight = 54;
strokeWidth = 60;
};
closed = 0;
nodes = (
(619,534,ls,{
"Letterink-NibData" = {
AngleInDegrees = 356.74805;
};
}),
(614,622,o),
(520,686,o),
(400,680,cs,{
"Letterink-NibData" = {
AngleInDegrees = 267.08916;
};
}),
(223,671,o),
(88,529,o),
(88,330,cs,{
"Letterink-NibData" = {
AngleInDegrees = 180;
};
}),
(88,139,o),
(221,5,o),
(408,5,cs,{
"Letterink-NibData" = {
AngleInDegrees = 90;
};
}),
(505,5,o),
(598,56,o),
(644,133,c,{
"Letterink-NibData" = {
AngleInDegrees = 30.8542;
};
})
);
}
);
width = 712;
},
{
anchors = (
{
name = bottom;
pos = (376,-7);
},
{
name = top;
pos = (376,701);
}
);
associatedMasterId = "0CAF3BED-C4AC-4024-B3E1-4C69D1EF7EC0";
layerId = "E3615987-2AFD-4696-A41C-F6163A2589A7";
name = "5 Jan 22, 07:50";
shapes = (
{
attr = {
strokeHeight = 74;
strokeWidth = 80;
};
closed = 0;
nodes = (
(614,525,ls,{
"Letterink-NibData" = {
AngleInDegrees = 356.63354;
};
}),
(609,610,o),
(516,671,o),
(399,665,cs,{
"Letterink-NibData" = {
AngleInDegrees = 267.02198;
};
}),
(226,656,o),
(94,521,o),
(94,331,cs,{
"Letterink-NibData" = {
AngleInDegrees = 180;
};
}),
(94,148,o),
(224,20,o),
(407,20,cs,{
"Letterink-NibData" = {
AngleInDegrees = 90;
};
}),
(502,20,o),
(593,68,o),
(638,142,c,{
"Letterink-NibData" = {
AngleInDegrees = 31.30412;
};
})
);
}
);
width = 716;
}
);
userData = {
position = 570;
width = 54;
};
},
{
glyphname = C.swsh;
kernLeft = O;
kernRight = C;
layers = (
{
anchors = (
{
name = bottom;
pos = (340,0);
},
{
name = top;
pos = (340,684);
}
);
background = {
anchors = (
{
name = bottom;
pos = (381,0);
},
{
name = top;
pos = (372,684);
}
);
shapes = (
{
attr = {
strokeHeight = 54;
strokeWidth = 60;
};
closed = 0;
nodes = (
(461,524,l,{
"Letterink-NibData" = {
AngleInDegrees = 167.90524;
};
}),
(467,496,o),
(492,476,o),
(525,475,cs,{
"Letterink-NibData" = {
AngleInDegrees = 91.50744;
};
}),
(563,474,o),
(588,513,o),
(588,553,cs),
(588,626,o),
(499,685,o),
(379,679,cs,{
"Letterink-NibData" = {
AngleInDegrees = 267.08916;
};
}),
(202,670,o),
(67,529,o),
(67,330,cs,{
"Letterink-NibData" = {
AngleInDegrees = 180;
};
}),
(67,139,o),
(200,5,o),
(387,5,cs,{
"Letterink-NibData" = {
AngleInDegrees = 90;
};
}),
(484,5,o),
(577,56,o),
(623,133,c,{
"Letterink-NibData" = {
AngleInDegrees = 30.8542;
};
})
);
}
);
};
layerId = "873CAA12-270D-4223-A88E-AE8E101FDBE8";
shapes = (
{
closed = 1;
nodes = (
(413.97,506.695,l),
(427.596,456.279,o),
(472.263,423,o),
(524,423,cs),
(580.051,423,o),
(626,464.932,o),
(626,532,cs),
(626,640.006,o),
(527.839,700,o),
(384,700,cs),
(188.745,700,o),
(37,551.7,o),
(37,338,cs),
(37,121.684,o),
(194.345,-14,o),
(386,-14,cs),
(499.662,-14,o),
(600.138,34.93,o),
(653.929,123.461,c),
(606.071,152.539,l),
(563.862,83.07,o),
(484.338,42,o),
(386,42,cs),
(223.655,42,o),
(97,154.316,o),
(97,338,cs),
(97,518.3,o),
(221.255,644,o),
(384,644,cs),
(505.323,644,o),
(566,587.086,o),
(566,532,cs),
(566,503.068,o),
(551.949,479,o),
(524,479,cs),
(501.737,479,o),
(474.404,497.721,o),
(468.03,521.305,c)
);
}
);
width = 664;
},
{
anchors = (
{
name = bottom;
pos = (356,31);
},
{
name = top;
pos = (356,662);
}
);
background = {
shapes = (
{
closed = 1;
nodes = (
(566,-25,o),
(712,126,o),
(712,326,cs),
(712,355,ls),
(712,548,o),
(560,702,o),
(370,702,cs,{
"Letterink-NibData" = {
AngleInDegrees = "270";
};
}),
(180,702,o),
(29,548,o),
(29,355,cs,{
"Letterink-NibData" = {
AngleInDegrees = "180";
};
}),
(29,326,ls,{
"Letterink-NibData" = {
AngleInDegrees = "180";
};
}),
(29,126,o),
(173,-19,o),
(374,-22,cs,{
"Letterink-NibData" = {
AngleInDegrees = "90.89517371732774";
};
})
);
},
{
closed = 1;
nodes = (
(223,54,o),
(111,170,o),
(111,326,cs),
(111,355,ls),
(111,504,o),
(225,626,o),
(369,626,cs,{
"Letterink-NibData" = {
AngleInDegrees = "90";
};
}),
(515,626,o),
(630,504,o),
(630,355,cs,{
"Letterink-NibData" = {
AngleInDegrees = "180";
};
}),
(630,326,ls,{
"Letterink-NibData" = {
AngleInDegrees = "180";
};
}),
(630,170,o),
(518,54,o),
(371,54,cs,{
"Letterink-NibData" = {
AngleInDegrees = "270";
};
})
);
}
);
};
layerId = "0CAF3BED-C4AC-4024-B3E1-4C69D1EF7EC0";
shapes = (
{
closed = 1;
nodes = (
(398.576,496.171,l),
(414.402,442.936,o),
(462.074,407,o),
(517,407,cs),
(575.637,407,o),
(627,450.113,o),
(627,525,cs),
(627,630.006,o),
(520.441,700,o),
(380,700,cs),
(182.769,700,o),
(29,550.815,o),
(29,334,cs),
(29,116.382,o),
(188.472,-22,o),
(382,-22,cs),
(495.442,-22,o),
(597.964,27.639,o),
(652.657,119.571,c),
(587.343,158.429,l),
(548.036,92.361,o),
(474.558,54,o),
(382,54,cs),
(227.528,54,o),
(109,161.618,o),
(109,334,cs),
(109,505.185,o),
(225.231,624,o),
(380,624,cs),
(497.656,624,o),
(547,560.87,o),
(547,525,cs),
(547,503.887,o),
(540.363,483,o),
(517,483,cs),
(497.926,483,o),
(477.598,497.064,o),
(471.424,517.829,c)
);
}
);
width = 651;
},
{
anchors = (
{
name = bottom;
pos = (361,0);
},
{
name = top;
pos = (373,684);
}
);
background = {
shapes = (
{
closed = 1;
nodes = (
(590,-14,o),
(732,131,o),
(732,331,cs),
(732,350,ls),
(732,550,o),
(584,702,o),
(390,702,cs,{
"Letterink-NibData" = {
AngleInDegrees = "270";
};
}),
(196,702,o),
(50,551,o),
(50,350,cs,{
"Letterink-NibData" = {
AngleInDegrees = "180";
};
}),
(50,331,ls,{
"Letterink-NibData" = {
AngleInDegrees = "180";
};
}),
(50,133,o),
(197,-14,o),
(394,-14,cs,{
"Letterink-NibData" = {
AngleInDegrees = "90";
};
})
);
},
{
closed = 1;
nodes = (
(220,24,o),
(92,156,o),
(92,331,cs),
(92,350,ls),
(92,526,o),
(221,662,o),
(389,662,cs,{
"Letterink-NibData" = {
AngleInDegrees = "90";
};
}),
(558,662,o),
(690,526,o),
(690,350,cs,{
"Letterink-NibData" = {
AngleInDegrees = "180";
};
}),
(690,331,ls,{
"Letterink-NibData" = {
AngleInDegrees = "180";
};
}),
(690,156,o),
(561,24,o),
(391,24,cs,{
"Letterink-NibData" = {
AngleInDegrees = "270";
};
})
);
}
);
};
layerId = "49C16FD3-6177-408B-A733-AEB3898BB77C";
shapes = (
{
closed = 1;
nodes = (
(433.731,516.78,l),
(447.962,466.973,o),
(491.963,437,o),
(537,437,cs),
(589.244,437,o),
(630,479.445,o),
(630,538,cs),
(630,616.458,o),
(549.189,703,o),
(393,703,cs),
(197.263,703,o),
(46,554.236,o),
(46,340,cs),
(46,124.503,o),
(202.591,-12,o),
(395,-12,cs),
(509.142,-12,o),
(609.342,36.614,o),
(662.31,125.254,c),
(629.69,144.746,l),
(584.658,69.386,o),
(498.858,26,o),
(395,26,cs),
(223.409,26,o),
(88,145.497,o),
(88,340,cs),
(88,531.764,o),
(220.737,665,o),
(393,665,cs),
(494.811,665,o),
(592,613.542,o),
(592,538,cs),
(592,504.555,o),
(572.756,475,o),
(537,475,cs),
(506.037,475,o),
(480.038,493.027,o),
(470.269,527.22,c)
);
}
);
width = 685;
},
{
anchors = (
{
name = bottom;
pos = (371,0);
},
{
name = top;
pos = (383,684);
}
);
associatedMasterId = "49C16FD3-6177-408B-A733-AEB3898BB77C";
layerId = "3D02E95B-60B1-4244-8F26-D84725EF13C9";
name = "3 Jan 22, 15:07";
shapes = (
{
closed = 1;
nodes = (
(507,-21,o),
(630,33,o),
(680,140,c,{
"Letterink-NibData" = {
AngleInDegrees = 293.55226;
};
}),
(641,157,l,{
"Letterink-NibData" = {
AngleInDegrees = 204.62357;
};
}),
(608,85,o),
(527,18,o),
(390,19,cs,{
"Letterink-NibData" = {
AngleInDegrees = 270.40348;
};
}),
(248,20,o),
(102,149,o),
(102,343,cs),
(102,508,o),
(234,657,o),
(394,657,cs,{
"Letterink-NibData" = {
AngleInDegrees = 90;
};
}),
(475,657,o),
(572,621,o),
(572,548,cs,{
"Letterink-NibData" = {
AngleInDegrees = 180;
};
}),
(572,521,o),
(556,500,o),
(532,500,cs,{
"Letterink-NibData" = {
AngleInDegrees = 270;
};
}),
(519,500,o),
(502,510,o),
(495,523,c,{
"Letterink-NibData" = {
AngleInDegrees = 238.57043;
};
}),
(459,501,l,{
"Letterink-NibData" = {
AngleInDegrees = 149.03624;
};
}),
(477,471,o),
(504,458,o),
(531,458,cs,{
"Letterink-NibData" = {
AngleInDegrees = 90;
};
}),
(573,458,o),
(614,492,o),
(614,546,cs),
(614,639,o),
(506,697,o),
(395,697,cs,{
"Letterink-NibData" = {
AngleInDegrees = 270;
};
}),
(211,697,o),
(60,536,o),
(60,344,cs,{
"Letterink-NibData" = {
AngleInDegrees = 180;
};
}),
(60,159,o),
(191,-21,o),
(391,-21,cs,{
"Letterink-NibData" = {
AngleInDegrees = 90;
};
})
);
}
);
width = 718;
},
{
anchors = (
{
name = bottom;
pos = (402,0);
},
{
name = top;
pos = (393,684);
}
);
associatedMasterId = "873CAA12-270D-4223-A88E-AE8E101FDBE8";
layerId = "4600BD47-3F69-4DB6-A8A0-B943C0F8AB97";
name = "3 Jan 22, 15:16";
shapes = (
{
closed = 1;
nodes = (
(514,-22,o),
(637,36,o),
(688,145,c,{
"Letterink-NibData" = {
AngleInDegrees = 294.27444;
};
}),
(637,168,l,{
"Letterink-NibData" = {
AngleInDegrees = 204.02651;
};
}),
(600,85,o),
(503,32,o),
(401,32,cs,{
"Letterink-NibData" = {
AngleInDegrees = 270;
};
}),
(234,32,o),
(116,172,o),
(116,347,cs),
(116,504,o),
(238,652,o),
(392,652,cs,{
"Letterink-NibData" = {
AngleInDegrees = 90;
};
}),
(467,652,o),
(568,619,o),
(568,551,cs,{
"Letterink-NibData" = {
AngleInDegrees = 180;
};
}),
(568,527,o),
(553,508,o),
(534,508,cs,{
"Letterink-NibData" = {
AngleInDegrees = 270;
};
}),
(521,508,o),
(514,514,o),
(502,527,c,{
"Letterink-NibData" = {
AngleInDegrees = 239.21586;
};
}),
(455,499,l,{
"Letterink-NibData" = {
AngleInDegrees = 149.03624;
};
}),
(470,474,o),
(500,453,o),
(535,453,cs,{
"Letterink-NibData" = {
AngleInDegrees = 90;
};
}),
(584,453,o),
(622,496,o),
(622,550,cs),
(622,648,o),
(511,705,o),
(400,707,cs,{
"Letterink-NibData" = {
AngleInDegrees = 270.88595;
};
}),
(206,710,o),
(56,534,o),
(56,348,cs,{
"Letterink-NibData" = {
AngleInDegrees = 180;
};
}),
(56,144,o),
(195,-22,o),
(402,-22,cs,{
"Letterink-NibData" = {
AngleInDegrees = 90;
};
})
);
},
{
attr = {
strokeHeight = 38;
strokeWidth = 42;
};
closed = 0;
nodes = (
(484,527,l,{
"Letterink-NibData" = {
AngleInDegrees = 168.31063;
};
}),
(490,498,o),
(515,478,o),
(549,477,cs,{
"Letterink-NibData" = {
AngleInDegrees = 91.50744;
};
}),
(587,476,o),
(613,516,o),
(613,556,cs),
(613,630,o),
(522,690,o),
(401,684,cs,{
"Letterink-NibData" = {
AngleInDegrees = 267.13759;
};
}),
(221,675,o),
(84,532,o),
(84,330,cs,{
"Letterink-NibData" = {
AngleInDegrees = 180;
};
}),
(84,136,o),
(219,0,o),
(409,0,cs,{
"Letterink-NibData" = {
AngleInDegrees = 90;
};
}),
(507,0,o),
(602,52,o),
(648,130,c,{
"Letterink-NibData" = {
AngleInDegrees = 30.52971;
};
})
);
}
);
width = 721;
},
{
anchors = (
{
name = bottom;
pos = (378,-9);
},
{
name = top;
pos = (378,703);
}
);
associatedMasterId = "0CAF3BED-C4AC-4024-B3E1-4C69D1EF7EC0";
layerId = "430F94E4-6E0B-477D-BEA9-4D1159DC2E2A";
name = "3 Jan 22, 15:17";
shapes = (
{
closed = 1;
nodes = (
(505,-16,o),
(621,32,o),
(687,139,c,{
"Letterink-NibData" = {
AngleInDegrees = 303.88696;
};
}),
(620,184,l,{
"Letterink-NibData" = {
AngleInDegrees = 210.52971;
};
}),
(574,106,o),
(489,60,o),
(395,60,cs,{
"Letterink-NibData" = {
AngleInDegrees = 270;
};
}),
(243,60,o),
(133,184,o),
(133,337,cs),
(133,493,o),
(251,630,o),
(401,630,cs,{
"Letterink-NibData" = {
AngleInDegrees = 90;
};
}),
(464,630,o),
(558,604,o),
(558,552,cs,{
"Letterink-NibData" = {
AngleInDegrees = 180;
};
}),
(558,539,o),
(548,528,o),
(537,528,cs,{
"Letterink-NibData" = {
AngleInDegrees = 270;
};
}),
(530,528,o),
(520,532,o),
(515,539,c,{
"Letterink-NibData" = {
AngleInDegrees = 218.19868;
};
}),
(467,478,l,{
"Letterink-NibData" = {
AngleInDegrees = 135;
};
}),
(485,460,o),
(513,447,o),
(543,447,cs,{
"Letterink-NibData" = {
AngleInDegrees = 90;
};
}),
(594,447,o),
(638,494,o),
(638,551,cs),
(638,661,o),
(511,706,o),
(400,706,cs,{
"Letterink-NibData" = {
AngleInDegrees = 270;
};
}),
(207,706,o),
(53,536,o),
(53,337,cs,{
"Letterink-NibData" = {
AngleInDegrees = 180;
};
}),
(53,141,o),
(200,-16,o),
(394,-16,cs,{
"Letterink-NibData" = {
AngleInDegrees = 90;
};
})
);
}
);
width = 720;
},
{
anchors = (
{
name = bottom;
pos = (401,0);
},
{
name = top;
pos = (392,684);
}
);
associatedMasterId = "873CAA12-270D-4223-A88E-AE8E101FDBE8";
layerId = "4A3EEC79-1C4F-4806-8C6A-B2B50589AD5A";
name = "5 Jan 22, 07:54";
shapes = (
{
attr = {
strokeHeight = 54;
strokeWidth = 60;
};
closed = 0;
nodes = (
(481,524,l,{
"Letterink-NibData" = {
AngleInDegrees = 167.90524;
};
}),
(487,496,o),
(512,476,o),
(545,475,cs,{
"Letterink-NibData" = {
AngleInDegrees = 91.50744;
};
}),
(583,474,o),
(608,513,o),
(608,553,cs),
(608,626,o),
(519,685,o),
(399,679,cs,{
"Letterink-NibData" = {
AngleInDegrees = 267.08916;
};
}),
(222,670,o),
(87,529,o),
(87,330,cs,{
"Letterink-NibData" = {
AngleInDegrees = 180;
};
}),
(87,139,o),
(220,5,o),
(407,5,cs,{
"Letterink-NibData" = {
AngleInDegrees = 90;
};
}),
(504,5,o),
(597,56,o),
(643,133,c,{
"Letterink-NibData" = {
AngleInDegrees = 30.8542;
};
})
);
}
);
width = 720;
},
{
anchors = (
{
name = bottom;
pos = (377,0);
},
{
name = top;
pos = (389,684);
}
);
associatedMasterId = "49C16FD3-6177-408B-A733-AEB3898BB77C";
layerId = "BE458C1D-0A4B-40C4-BCF4-9649CDEB98A4";
name = "5 Jan 22, 08:01";
shapes = (
{
attr = {
strokeHeight = 38;
strokeWidth = 42;
};
closed = 0;
nodes = (
(484,527,l,{
"Letterink-NibData" = {
AngleInDegrees = 168.31063;
};
}),
(490,498,o),
(515,478,o),
(549,477,cs,{
"Letterink-NibData" = {
AngleInDegrees = 91.50744;
};
}),
(587,476,o),
(613,516,o),
(613,556,cs),
(613,630,o),
(520,690,o),
(396,684,cs,{
"Letterink-NibData" = {
AngleInDegrees = 267.08916;
};
}),
(219,675,o),
(84,532,o),
(84,330,cs,{
"Letterink-NibData" = {
AngleInDegrees = 180;
};
}),
(84,136,o),
(219,0,o),
(409,0,cs,{
"Letterink-NibData" = {
AngleInDegrees = 90;
};
}),
(507,0,o),
(602,52,o),
(648,130,c,{
"Letterink-NibData" = {
AngleInDegrees = 30.52971;
};
})
);
}
);
width = 724;
},
{
anchors = (
{
name = bottom;
pos = (377,31);
},
{
name = top;
pos = (377,662);
}
);
associatedMasterId = "0CAF3BED-C4AC-4024-B3E1-4C69D1EF7EC0";
layerId = "26DD77D8-93B1-4CFB-A5C5-84AD5242F402";
name = "5 Jan 22, 08:04";
shapes = (
{
attr = {
strokeHeight = 74;
strokeWidth = 80;
};
closed = 0;
nodes = (
(482,519,l,{
"Letterink-NibData" = {
AngleInDegrees = 169.50852;
};
}),
(487,492,o),
(511,472,o),
(540,471,cs,{
"Letterink-NibData" = {
AngleInDegrees = 91.33222;
};
}),
(583,470,o),
(608,508,o),
(608,546,cs),
(608,617,o),
(519,674,o),
(398,669,cs,{
"Letterink-NibData" = {
AngleInDegrees = 267.03906;
};
}),
(224,660,o),
(90,523,o),
(90,334,cs,{
"Letterink-NibData" = {
AngleInDegrees = 180;
};
}),
(90,145,o),
(222,15,o),
(396,15,cs,{
"Letterink-NibData" = {
AngleInDegrees = 90;
};
}),
(501,15,o),
(596,63,o),
(642,140,c,{
"Letterink-NibData" = {
AngleInDegrees = 30.8542;
};
})
);
}
);
width = 720;
}
);
metricLeft = O;
userData = {
position = 570;
width = 54;
};
},
{
glyphname = D;
kernLeft = E;
kernRight = O;
layers = (
{
anchors = (
{
name = bottom;
pos = (388,0);
},
{
name = center;
pos = (205,367);
},
{
name = top;
pos = (406,684);
}
);
hints = (
{
name = _corner.caps_left;
origin = (0,6);
type = Corner;
}
);
layerId = "873CAA12-270D-4223-A88E-AE8E101FDBE8";
shapes = (
{
closed = 1;
nodes = (
(567,-8,o),
(702,109,o),
(702,339,cs),
(702,540,o),
(571,685,o),
(385,689,c,{
"Letterink-NibData" = {
AngleInDegrees = 270.21785;
};
}),
(142,690,l,{
"Letterink-NibData" = {
AngleInDegrees = 180;
};
}),
(142,0,l,{
"Letterink-NibData" = {
AngleInDegrees = 96.07246;
};
}),
(189,-5,ls,{
"Letterink-NibData" = {
AngleInDegrees = 93.01279;
};
}),
(205,-6,o),
(273,-8,o),
(302,-8,cs,{
"Letterink-NibData" = {
AngleInDegrees = 90;
};
})
);
},
{
closed = 1;
nodes = (
(275,48,o),
(223,52,o),
(202,53,c),
(202,633,l,{
"Letterink-NibData" = {
AngleInDegrees = 90;
};
}),
(375,633,l,{
"Letterink-NibData" = {
AngleInDegrees = 90;
};
}),
(535,633,o),
(642,515,o),
(642,338,cs,{
"Letterink-NibData" = {
AngleInDegrees = 180;
};
}),
(642,149,o),
(524,48,o),
(304,48,cs,{
"Letterink-NibData" = {
AngleInDegrees = 270;
};
})
);
}
);
width = 739;
},
{
anchors = (
{
name = bottom;
pos = (397,0);
},
{
name = center;
pos = (230,367);
},
{
name = top;
pos = (415,675);
}
);
hints = (
{
name = _corner.caps_left;
origin = (0,6);
type = Corner;
}
);
layerId = "0CAF3BED-C4AC-4024-B3E1-4C69D1EF7EC0";
shapes = (
{
closed = 1;
nodes = (
(585,-9,o),
(713,106,o),
(713,342,cs),
(713,544,o),
(585,684,o),
(394,691,c,{
"Letterink-NibData" = {
AngleInDegrees = 270.21459;
};
}),
(147,692,l,{
"Letterink-NibData" = {
AngleInDegrees = 180;
};
}),
(147,1,l,{
"Letterink-NibData" = {
AngleInDegrees = 96.00901;
};
}),
(204,-5,ls,{
"Letterink-NibData" = {
AngleInDegrees = 93.01279;
};
}),
(220,-6,o),
(299,-9,o),
(323,-9,cs,{
"Letterink-NibData" = {
AngleInDegrees = 90;
};
})
);
},
{
closed = 1;
nodes = (
(302,66,o),
(253,69,o),
(229,71,c),
(229,615,l,{
"Letterink-NibData" = {
AngleInDegrees = 90;
};
}),
(383,615,l,{
"Letterink-NibData" = {
AngleInDegrees = 90;
};
}),
(535,615,o),
(631,509,o),
(631,342,cs,{
"Letterink-NibData" = {
AngleInDegrees = 180;
};
}),
(631,159,o),
(531,66,o),
(336,66,cs,{
"Letterink-NibData" = {
AngleInDegrees = 270;
};
})
);
}
);
width = 742;
},
{
anchors = (
{
name = bottom;
pos = (391,0);
},
{
name = center;
pos = (187,367);
},
{
name = top;
pos = (404,694);
}
);
hints = (
{
name = _corner.caps_left;
origin = (0,6);
type = Corner;
}
);
layerId = "49C16FD3-6177-408B-A733-AEB3898BB77C";
shapes = (
{
closed = 1;
nodes = (
(558,-8,o),
(698,100,o),
(698,331,cs),
(698,535,o),
(567,684,o),
(383,690,c,{
"Letterink-NibData" = {
AngleInDegrees = 270.22037;
};
}),
(143,691,l,{
"Letterink-NibData" = {
AngleInDegrees = 180;
};
}),
(143,0,l,{
"Letterink-NibData" = {
AngleInDegrees = 95.85601;
};
}),
(182,-4,ls,{
"Letterink-NibData" = {
AngleInDegrees = 93.81407;
};
}),
(209,-6,o),
(241,-8,o),
(278,-8,cs,{
"Letterink-NibData" = {
AngleInDegrees = 90;
};
})
);
},
{
closed = 1;
nodes = (
(240,32,o),
(220,33,o),
(185,36,c),
(185,650,l,{
"Letterink-NibData" = {
AngleInDegrees = 90;
};
}),
(373,650,l,{
"Letterink-NibData" = {
AngleInDegrees = 93.87852;
};
}),
(550,638,o),
(656,520,o),
(656,333,cs,{
"Letterink-NibData" = {
AngleInDegrees = 180;
};
}),
(656,132,o),
(530,32,o),
(276,32,cs,{
"Letterink-NibData" = {
AngleInDegrees = 270;
};
})
);
}
);
width = 744;
}
);
metricLeft = H;
metricRight = O;
unicode = 68;
userData = {
position = 674;
width = 60;
};
},
{
glyphname = D.ss01;
kernLeft = L;
kernRight = O;
layers = (
{
anchors = (
{
name = bottom;
pos = (356,0);
},
{
name = center;
pos = (135,341);
},
{
name = top;
pos = (358,689);
}
);
layerId = "873CAA12-270D-4223-A88E-AE8E101FDBE8";
shapes = (
{
closed = 1;
nodes = (
(308,-10,ls,{
"Letterink-NibData" = {
AngleInDegrees = 90;
};
}),
(511,-10,o),
(650,132,o),
(650,341,cs),
(650,538,o),
(523,677,o),
(333,689,c,{
"Letterink-NibData" = {
AngleInDegrees = 270.21785;
};
}),
(80,690,l,{
"Letterink-NibData" = {
AngleInDegrees = 180;
};
}),
(80,633,l,{
"Letterink-NibData" = {
AngleInDegrees = 90;
};
}),
(323,633,l,{
"Letterink-NibData" = {
AngleInDegrees = 93.08481;
};
}),
(490,624,o),
(590,514,o),
(590,338,cs,{
"Letterink-NibData" = {
AngleInDegrees = 180;
};
}),
(590,150,o),
(476,45,o),
(270,45,cs,{
"Letterink-NibData" = {
AngleInDegrees = 270;
};
}),
(230,45,o),
(170,49,o),
(140,50,c),
(140,655,l,{
"Letterink-NibData" = {
AngleInDegrees = 270;
};
}),
(80,655,l,{
"Letterink-NibData" = {
AngleInDegrees = 180;
};
}),
(80,0,l,{
"Letterink-NibData" = {
AngleInDegrees = 94.86451;
};
}),
(127,-4,ls,{
"Letterink-NibData" = {
AngleInDegrees = 94.82077;
};
}),
(210,-11,o),
(213,-10,o),
(261,-10,cs,{
"Letterink-NibData" = {
AngleInDegrees = 90;
};
})
);
}
);
width = 687;
},
{
anchors = (
{
name = bottom;
pos = (327,-10);
},
{
name = center;
pos = (157,367);
},
{
name = top;
pos = (357,691);
}
);
layerId = "0CAF3BED-C4AC-4024-B3E1-4C69D1EF7EC0";
shapes = (
{
closed = 1;
nodes = (
(302,-10,ls,{
"Letterink-NibData" = {
AngleInDegrees = 90;
};
}),
(506,-10,o),
(650,136,o),
(650,342,cs),
(650,537,o),
(521,679,o),
(332,691,c,{
"Letterink-NibData" = {
AngleInDegrees = 270.21459;
};
}),
(75,692,l,{
"Letterink-NibData" = {
AngleInDegrees = 180;
};
}),
(75,615,l,{
"Letterink-NibData" = {
AngleInDegrees = 90;
};
}),
(321,615,l,{
"Letterink-NibData" = {
AngleInDegrees = 92.97373;
};
}),
(475,607,o),
(568,504,o),
(568,339,cs,{
"Letterink-NibData" = {
AngleInDegrees = 180;
};
}),
(568,163,o),
(462,65,o),
(270,65,cs,{
"Letterink-NibData" = {
AngleInDegrees = 270;
};
}),
(237,65,o),
(196,67,o),
(157,70,c),
(157,658,l,{
"Letterink-NibData" = {
AngleInDegrees = 270;
};
}),
(75,658,l,{
"Letterink-NibData" = {
AngleInDegrees = 180;
};
}),
(75,1,l,{
"Letterink-NibData" = {
AngleInDegrees = 95.10217;
};
}),
(131,-4,ls,{
"Letterink-NibData" = {
AngleInDegrees = 95.12819;
};
}),
(209,-11,o),
(209,-10,o),
(252,-10,cs,{
"Letterink-NibData" = {
AngleInDegrees = 90;
};
})
);
}
);
width = 679;
},
{
anchors = (
{
name = bottom;
pos = (260,-10);
},
{
name = center;
pos = (100,357);
},
{
name = top;
pos = (355,690);
}
);
layerId = "49C16FD3-6177-408B-A733-AEB3898BB77C";
shapes = (
{
closed = 1;
nodes = (
(309,-9,ls,{
"Letterink-NibData" = {
AngleInDegrees = 90;
};
}),
(512,-9,o),
(647,131,o),
(647,342,cs),
(647,541,o),
(522,678,o),
(330,690,c,{
"Letterink-NibData" = {
AngleInDegrees = 270.22037;
};
}),
(80,691,l,{
"Letterink-NibData" = {
AngleInDegrees = 180;
};
}),
(80,651,l,{
"Letterink-NibData" = {
AngleInDegrees = 90;
};
}),
(321,651,l,{
"Letterink-NibData" = {
AngleInDegrees = 93.25195;
};
}),
(497,641,o),
(604,523,o),
(604,339,cs,{
"Letterink-NibData" = {
AngleInDegrees = 180;
};
}),
(604,143,o),
(481,30,o),
(266,30,cs,{
"Letterink-NibData" = {
AngleInDegrees = 270;
};
}),
(221,30,o),
(142,35,o),
(122,35,c),
(122,655,l,{
"Letterink-NibData" = {
AngleInDegrees = 270;
};
}),
(80,655,l,{
"Letterink-NibData" = {
AngleInDegrees = 180;
};
}),
(80,0,l,{
"Letterink-NibData" = {
AngleInDegrees = 94.18492;
};
}),
(121,-3,ls,{
"Letterink-NibData" = {
AngleInDegrees = 94.20536;
};
}),
(189,-8,o),
(193,-9,o),
(247,-9,cs,{
"Letterink-NibData" = {
AngleInDegrees = 90;
};
})
);
}
);
width = 693;
}
);
metricLeft = "=|H";
metricRight = O;
userData = {
position = 674;
width = 60;
};
},
{
glyphname = D.swsh;
kernLeft = Swash;
kernRight = O;
layers = (
{
anchors = (
{
name = bottom;
pos = (400,0);
},
{
name = center;
pos = (421,0);
},
{
name = top;
pos = (421,0);
}
);
hints = (
{
name = _corner.caps_swash;
origin = (0,7);
type = Corner;
}
);
layerId = "873CAA12-270D-4223-A88E-AE8E101FDBE8";
shapes = (
{
closed = 1;
nodes = (
(380,-10,ls,{
"Letterink-NibData" = {
AngleInDegrees = 90;
};
}),
(585,-10,o),
(727,136,o),
(727,341,cs),
(727,533,o),
(603,689,o),
(410,689,c,{
"Letterink-NibData" = {
AngleInDegrees = 270.20174;
};
}),
(136,690,l,{
"Letterink-NibData" = {
AngleInDegrees = 180;
};
}),
(136,634,l,{
"Letterink-NibData" = {
AngleInDegrees = 90;
};
}),
(400,634,l,{
"Letterink-NibData" = {
AngleInDegrees = 90;
};
}),
(556,634,o),
(667,524,o),
(667,336,cs,{
"Letterink-NibData" = {
AngleInDegrees = 180;
};
}),
(667,157,o),
(566,45,o),
(340,45,cs,{
"Letterink-NibData" = {
AngleInDegrees = 270;
};
}),
(303,45,o),
(261,48,o),
(217,50,c),
(217,565,l,{
"Letterink-NibData" = {
AngleInDegrees = 270;
};
}),
(157,565,l,{
"Letterink-NibData" = {
AngleInDegrees = 180;
};
}),
(157,0,l,{
"Letterink-NibData" = {
AngleInDegrees = 94.86451;
};
}),
(204,-4,ls,{
"Letterink-NibData" = {
AngleInDegrees = 94.82077;
};
}),
(287,-11,o),
(280,-10,o),
(328,-10,cs,{
"Letterink-NibData" = {
AngleInDegrees = 90;
};
})
);
}
);
width = 764;
},
{
anchors = (
{
name = bottom;
pos = (399,0);
},
{
name = center;
pos = (424,11);
},
{
name = top;
pos = (424,11);
}
);
hints = (
{
name = _corner.caps_swash;
origin = (0,7);
type = Corner;
}
);
layerId = "0CAF3BED-C4AC-4024-B3E1-4C69D1EF7EC0";
shapes = (
{
closed = 1;
nodes = (
(363,-10,ls,{
"Letterink-NibData" = {
AngleInDegrees = 90;
};
}),
(567,-10,o),
(712,138,o),
(712,342,cs),
(712,532,o),
(585,678,o),
(393,690,c,{
"Letterink-NibData" = {
AngleInDegrees = 270.20033;
};
}),
(137,691,l,{
"Letterink-NibData" = {
AngleInDegrees = 180;
};
}),
(137,615,l,{
"Letterink-NibData" = {
AngleInDegrees = 90;
};
}),
(382,615,l,{
"Letterink-NibData" = {
AngleInDegrees = 93.55173;
};
}),
(527,606,o),
(630,517,o),
(630,342,cs,{
"Letterink-NibData" = {
AngleInDegrees = 180;
};
}),
(630,175,o),
(537,66,o),
(325,66,cs,{
"Letterink-NibData" = {
AngleInDegrees = 270;
};
}),
(298,66,o),
(272,69,o),
(238,71,c),
(238,559,l,{
"Letterink-NibData" = {
AngleInDegrees = 270;
};
}),
(156,559,l,{
"Letterink-NibData" = {
AngleInDegrees = 180;
};
}),
(156,1,l,{
"Letterink-NibData" = {
AngleInDegrees = 95.01311;
};
}),
(213,-4,ls,{
"Letterink-NibData" = {
AngleInDegrees = 94.93922;
};
}),
(282,-10,o),
(281,-10,o),
(323,-10,cs,{
"Letterink-NibData" = {
AngleInDegrees = 90;
};
})
);
}
);
width = 741;
},
{
anchors = (
{
name = bottom;
pos = (414,0);
},
{
name = center;
pos = (432,-8);
},
{
name = top;
pos = (432,-8);
}
);
hints = (
{
name = _corner.caps_swash;
origin = (0,7);
type = Corner;
}
);
layerId = "49C16FD3-6177-408B-A733-AEB3898BB77C";
shapes = (
{
closed = 1;
nodes = (
(381,-9,ls,{
"Letterink-NibData" = {
AngleInDegrees = 90;
};
}),
(569,-9,o),
(718,122,o),
(718,342,cs),
(718,535,o),
(603,690,o),
(401,690,c,{
"Letterink-NibData" = {
AngleInDegrees = 270.19689;
};
}),
(140,691,l,{
"Letterink-NibData" = {
AngleInDegrees = 180;
};
}),
(140,651,l,{
"Letterink-NibData" = {
AngleInDegrees = 90;
};
}),
(391,651,l,{
"Letterink-NibData" = {
AngleInDegrees = 90;
};
}),
(554,651,o),
(676,535,o),
(676,349,cs,{
"Letterink-NibData" = {
AngleInDegrees = 180;
};
}),
(676,161,o),
(567,30,o),
(353,30,cs,{
"Letterink-NibData" = {
AngleInDegrees = 270;
};
}),
(330,30,o),
(274,32,o),
(212,35,c),
(212,573,l,{
"Letterink-NibData" = {
AngleInDegrees = 270;
};
}),
(170,573,l,{
"Letterink-NibData" = {
AngleInDegrees = 180;
};
}),
(170,0,l,{
"Letterink-NibData" = {
AngleInDegrees = 94.28915;
};
}),
(210,-3,ls,{
"Letterink-NibData" = {
AngleInDegrees = 93.66779;
};
}),
(289,-9,o),
(298,-9,o),
(337,-9,cs,{
"Letterink-NibData" = {
AngleInDegrees = 90;
};
})
);
}
);
width = 764;
}
);
metricLeft = H.swsh;
metricRight = O;
userData = {
position = 674;
width = 60;
};
},
{
glyphname = E;
kernLeft = E;
kernRight = E;
layers = (
{
anchors = (
{
name = bottom;
pos = (372,0);
},
{
name = ogonek;
pos = (580,0);
},
{
name = top;
pos = (361,684);
},
{
name = topleft;
pos = (24,684);
}
);
background = {
shapes = (
{
closed = 1;
nodes = (
(590,0,l),
(590,56,l),
(202,56,l),
(202,334,l),
(470,334,l),
(470,390,l),
(202,390,l),
(202,628,l),
(590,628,l),
(590,684,l),
(129,684,ls),
(99,684,o),
(75,671,o),
(56,652,cs),
(37,633,o),
(26,608,o),
(26,579,c),
(82,579,l),
(82,592,o),
(88,606,o),
(96,614,cs),
(106,624,o),
(116,628,o),
(142,628,c),
(142,0,l)
);
}
);
};
hints = (
{
name = _corner.caps_left;
origin = (0,10);
type = Corner;
}
);
layerId = "873CAA12-270D-4223-A88E-AE8E101FDBE8";
shapes = (
{
closed = 1;
nodes = (
(580,0,l),
(580,56,l,{
"Letterink-NibData" = {
AngleInDegrees = 270;
};
}),
(202,56,l),
(202,334,l,{
"Letterink-NibData" = {
AngleInDegrees = 90;
};
}),
(460,334,l),
(460,390,l,{
"Letterink-NibData" = {
AngleInDegrees = 270;
};
}),
(202,390,l),
(202,628,l,{
"Letterink-NibData" = {
AngleInDegrees = 90;
};
}),
(580,628,l),
(580,684,l,{
"Letterink-NibData" = {
AngleInDegrees = 270;
};
}),
(142,684,l,{
"Letterink-NibData" = {
AngleInDegrees = 180;
};
}),
(142,0,l,{
"Letterink-NibData" = {
AngleInDegrees = 90;
};
})
);
}
);
width = 597;
},
{
anchors = (
{
name = bottom;
pos = (382,11);
},
{
name = ogonek;
pos = (595,-1);
},
{
name = top;
pos = (372,684);
},
{
name = topleft;
pos = (31,684);
}
);
hints = (
{
name = _corner.caps_left;
origin = (0,10);
type = Corner;
}
);
layerId = "0CAF3BED-C4AC-4024-B3E1-4C69D1EF7EC0";
shapes = (
{
closed = 1;
nodes = (
(595,-1,l),
(595,75,l,{
"Letterink-NibData" = {
AngleInDegrees = 270;
};
}),
(229,75,l),
(229,325,l,{
"Letterink-NibData" = {
AngleInDegrees = 90;
};
}),
(479,325,l),
(479,401,l,{
"Letterink-NibData" = {
AngleInDegrees = 270;
};
}),
(229,401,l),
(229,610,l,{
"Letterink-NibData" = {
AngleInDegrees = 90;
};
}),
(595,610,l),
(595,686,l,{
"Letterink-NibData" = {
AngleInDegrees = 270;
};
}),
(147,686,l,{
"Letterink-NibData" = {
AngleInDegrees = 180;
};
}),
(147,-1,l,{
"Letterink-NibData" = {
AngleInDegrees = 90;
};
})
);
}
);
width = 605;
},
{
anchors = (
{
name = bottom;
pos = (369,-8);
},
{
name = ogonek;
pos = (571,1);
},
{
name = top;
pos = (358,693);
},
{
name = topleft;
pos = (40,684);
}
);
hints = (
{
name = _corner.caps_left;
origin = (0,10);
type = Corner;
}
);
layerId = "49C16FD3-6177-408B-A733-AEB3898BB77C";
shapes = (
{
closed = 1;
nodes = (
(571,1,l),
(571,41,l,{
"Letterink-NibData" = {
AngleInDegrees = 270;
};
}),
(185,41,l),
(185,344,l,{
"Letterink-NibData" = {
AngleInDegrees = 90;
};
}),
(448,344,l),
(448,384,l,{
"Letterink-NibData" = {
AngleInDegrees = 270;
};
}),
(185,384,l),
(185,645,l,{
"Letterink-NibData" = {
AngleInDegrees = 90;
};
}),
(571,645,l),
(571,685,l,{
"Letterink-NibData" = {
AngleInDegrees = 269.86613;
};
}),
(143,684,l,{
"Letterink-NibData" = {
AngleInDegrees = 180;
};
}),
(143,1,l,{
"Letterink-NibData" = {
AngleInDegrees = 90;
};
})
);
}
);
width = 606;
}
);
metricLeft = H;
unicode = 69;
userData = {
position = 130;
width = 61;
};
},
{
glyphname = E.ss01;
kernLeft = L;
kernRight = E;
layers = (
{
anchors = (
{
name = bottom;
pos = (266,0);
},
{
name = ogonek;
pos = (476,0);
},
{
name = top;
pos = (261,684);
},
{
name = topleft;
pos = (-48,684);
}
);
layerId = "873CAA12-270D-4223-A88E-AE8E101FDBE8";
shapes = (
{
closed = 1;
nodes = (
(476,0,l),
(476,56,l,{
"Letterink-NibData" = {
AngleInDegrees = 270;
};
}),
(77,56,l),
(77,334,l,{
"Letterink-NibData" = {
AngleInDegrees = 90;
};
}),
(356,334,l),
(356,390,l,{
"Letterink-NibData" = {
AngleInDegrees = 270;
};
}),
(77,390,l),
(77,628,l,{
"Letterink-NibData" = {
AngleInDegrees = 90;
};
}),
(456,628,l),
(456,684,l,{
"Letterink-NibData" = {
AngleInDegrees = 270;
};
}),
(17,684,l,{
"Letterink-NibData" = {
AngleInDegrees = 180;
};
}),
(17,0,l,{
"Letterink-NibData" = {
AngleInDegrees = 90;
};
})
);
}
);
width = 487;
},
{
anchors = (
{
name = bottom;
pos = (311,0);
},
{
name = ogonek;
pos = (542,-1);
},
{
name = top;
pos = (313,685);
},
{
name = topleft;
pos = (9,684);
}
);
layerId = "0CAF3BED-C4AC-4024-B3E1-4C69D1EF7EC0";
shapes = (
{
closed = 1;
nodes = (
(542,-1,l),
(542,75,l,{
"Letterink-NibData" = {
AngleInDegrees = 270;
};
}),
(155,75,l),
(155,325,l,{
"Letterink-NibData" = {
AngleInDegrees = 90;
};
}),
(426,325,l),
(426,401,l,{
"Letterink-NibData" = {
AngleInDegrees = 270;
};
}),
(155,401,l),
(155,610,l,{
"Letterink-NibData" = {
AngleInDegrees = 90;
};
}),
(523,610,l),
(523,686,l,{
"Letterink-NibData" = {
AngleInDegrees = 270;
};
}),
(75,686,l,{
"Letterink-NibData" = {
AngleInDegrees = 180;
};
}),
(75,-1,l,{
"Letterink-NibData" = {
AngleInDegrees = 90;
};
})
);
}
);
width = 545;
},
{
anchors = (
{
name = bottom;
pos = (237,-7);
},
{
name = ogonek;
pos = (492,1);
},
{
name = top;
pos = (284,687);
},
{
name = topleft;
pos = (-26,684);
}
);
layerId = "49C16FD3-6177-408B-A733-AEB3898BB77C";
shapes = (
{
closed = 1;
nodes = (
(492,1,l),
(492,41,l,{
"Letterink-NibData" = {
AngleInDegrees = 270;
};
}),
(82,41,l),
(82,344,l,{
"Letterink-NibData" = {
AngleInDegrees = 90;
};
}),
(369,344,l),
(369,384,l,{
"Letterink-NibData" = {
AngleInDegrees = 270;
};
}),
(82,384,l),
(82,645,l,{
"Letterink-NibData" = {
AngleInDegrees = 90;
};
}),
(472,645,l),
(472,685,l,{
"Letterink-NibData" = {
AngleInDegrees = 270;
};
}),
(40,685,l,{
"Letterink-NibData" = {
AngleInDegrees = 180;
};
}),
(40,1,l,{
"Letterink-NibData" = {
AngleInDegrees = 90;
};
})
);
}
);
width = 514;
}
);
metricLeft = N.ss01;
userData = {
position = 95;
width = 61;
};
},
{
glyphname = E.swsh;
kernLeft = Swash;
kernRight = E;
layers = (
{
anchors = (
{
name = bottom;
pos = (360,0);
},
{
name = ogonek;
pos = (614,0);
},
{
name = top;
pos = (360,0);
},
{
name = topleft;
pos = (43,684);
}
);
hints = (
{
name = _corner.caps_swash;
origin = (1,3);
type = Corner;
}
);
layerId = "873CAA12-270D-4223-A88E-AE8E101FDBE8";
shapes = (
{
closed = 1;
nodes = (
(604,0,l),
(604,56,l,{
"Letterink-NibData" = {
AngleInDegrees = 270;
};
}),
(226,56,l),
(226,334,l,{
"Letterink-NibData" = {
AngleInDegrees = 90;
};
}),
(484,334,l),
(484,390,l,{
"Letterink-NibData" = {
AngleInDegrees = 270;
};
}),
(226,390,l),
(226,572,l,{
"Letterink-NibData" = {
AngleInDegrees = 270;
};
}),
(166,572,l,{
"Letterink-NibData" = {
AngleInDegrees = 180;
};
}),
(166,0,l,{
"Letterink-NibData" = {
AngleInDegrees = 90;
};
})
);
},
{
closed = 1;
nodes = (
(143,628,l,{
"Letterink-NibData" = {
AngleInDegrees = 90;
};
}),
(604,628,l),
(604,684,l,{
"Letterink-NibData" = {
AngleInDegrees = 270;
};
}),
(143,684,l,{
"Letterink-NibData" = {
AngleInDegrees = 180;
};
})
);
}
);
width = 622;
},
{
anchors = (
{
name = bottom;
pos = (370,11);
},
{
name = ogonek;
pos = (628,-1);
},
{
name = top;
pos = (370,11);
},
{
name = topleft;
pos = (41,684);
}
);
hints = (
{
name = _corner.caps_swash;
origin = (1,3);
type = Corner;
}
);
layerId = "0CAF3BED-C4AC-4024-B3E1-4C69D1EF7EC0";
shapes = (
{
closed = 1;
nodes = (
(618,0,l),
(618,76,l,{
"Letterink-NibData" = {
AngleInDegrees = 270;
};
}),
(252,76,l),
(252,325,l,{
"Letterink-NibData" = {
AngleInDegrees = 90;
};
}),
(502,325,l),
(502,401,l,{
"Letterink-NibData" = {
AngleInDegrees = 270;
};
}),
(252,401,l),
(252,559,l,{
"Letterink-NibData" = {
AngleInDegrees = 270;
};
}),
(170,559,l,{
"Letterink-NibData" = {
AngleInDegrees = 180;
};
}),
(170,0,l,{
"Letterink-NibData" = {
AngleInDegrees = 90;
};
})
);
},
{
closed = 1;
nodes = (
(145,609,l,{
"Letterink-NibData" = {
AngleInDegrees = 90;
};
}),
(618,609,l),
(618,685,l,{
"Letterink-NibData" = {
AngleInDegrees = 270;
};
}),
(145,685,l,{
"Letterink-NibData" = {
AngleInDegrees = 180;
};
})
);
}
);
width = 628;
},
{
anchors = (
{
name = bottom;
pos = (371,-15);
},
{
name = ogonek;
pos = (615,1);
},
{
name = top;
pos = (371,-15);
},
{
name = topleft;
pos = (64,684);
}
);
hints = (
{
name = _corner.caps_swash;
origin = (1,3);
type = Corner;
}
);
layerId = "49C16FD3-6177-408B-A733-AEB3898BB77C";
shapes = (
{
closed = 1;
nodes = (
(605,0,l),
(605,40,l,{
"Letterink-NibData" = {
AngleInDegrees = 270;
};
}),
(216,40,l),
(216,344,l,{
"Letterink-NibData" = {
AngleInDegrees = 90;
};
}),
(482,344,l),
(482,384,l,{
"Letterink-NibData" = {
AngleInDegrees = 270;
};
}),
(216,384,l),
(216,570,l,{
"Letterink-NibData" = {
AngleInDegrees = 270;
};
}),
(174,570,l,{
"Letterink-NibData" = {
AngleInDegrees = 180;
};
}),
(174,0,l,{
"Letterink-NibData" = {
AngleInDegrees = 90;
};
})
);
},
{
closed = 1;
nodes = (
(142,644,l,{
"Letterink-NibData" = {
AngleInDegrees = 90;
};
}),
(605,644,l),
(605,684,l,{
"Letterink-NibData" = {
AngleInDegrees = 270;
};
}),
(142,684,l,{
"Letterink-NibData" = {
AngleInDegrees = 180;
};
})
);
}
);
width = 632;
}
);
userData = {
position = 130;
width = 61;
};
},
{
glyphname = Schwa;
kernLeft = O;
kernRight = O;
layers = (
{
anchors = (
{
name = bottom;
pos = (309,712);
},
{
name = ogonek;
pos = (70,630);
},
{
name = top;
pos = (306,-19);
}
);
layerId = "49C16FD3-6177-408B-A733-AEB3898BB77C";
shapes = (
{
closed = 1;
nodes = (
(221,702,o),
(138,678,o),
(70,630,c,{
"Letterink-NibData" = {
AngleInDegrees = 328.49573;
};
}),
(87,601,l,{
"Letterink-NibData" = {
AngleInDegrees = 241.38954;
};
}),
(163,644,o),
(223,665,o),
(300,665,cs,{
"Letterink-NibData" = {
AngleInDegrees = 270;
};
}),
(541,665,o),
(563,444,o),
(563,360,cs),
(563,168,o),
(460,20,o),
(308,20,cs,{
"Letterink-NibData" = {
AngleInDegrees = 90;
};
}),
(186,20,o),
(82,123,o),
(82,268,cs,{
"Letterink-NibData" = {
AngleInDegrees = 180;
};
}),
(82,289,o),
(85,319,o),
(91,353,c,{
"Letterink-NibData" = {
AngleInDegrees = 90;
};
}),
(48,353,l,{
"Letterink-NibData" = {
AngleInDegrees = 4.96974;
};
}),
(45,323,o),
(42,294,o),
(42,271,cs),
(42,102,o),
(150,-12,o),
(308,-14,cs,{
"Letterink-NibData" = {
AngleInDegrees = 270.42128;
};
}),
(485,-16,o),
(602,133,o),
(602,365,cs,{
"Letterink-NibData" = {
AngleInDegrees = 180;
};
}),
(602,566,o),
(500,702,o),
(309,702,cs,{
"Letterink-NibData" = {
AngleInDegrees = 90;
};
})
);
},
{
closed = 1;
nodes = (
(73,353,l),
(73,316,l,{
"Letterink-NibData" = {
AngleInDegrees = 270;
};
}),
(574,316,l,{
"Letterink-NibData" = {
AngleInDegrees = 180;
};
}),
(574,353,l,{
"Letterink-NibData" = {
AngleInDegrees = 90;
};
})
);
}
);
userData = {
RMXScaler = {
height = 140;
weight = -145;
width = 135;
};
};
width = 651;
},
{
anchors = (
{
name = bottom;
pos = (306,707);
},
{
name = ogonek;
pos = (59,629);
},
{
name = top;
pos = (304,-15);
}
);
layerId = "873CAA12-270D-4223-A88E-AE8E101FDBE8";
shapes = (
{
closed = 1;
nodes = (
(218,706,o),
(130,682,o),
(59,629,c,{
"Letterink-NibData" = {
AngleInDegrees = 328.24052;
};
}),
(84,588,l,{
"Letterink-NibData" = {
AngleInDegrees = 240.25512;
};
}),
(156,632,o),
(217,655,o),
(297,655,cs,{
"Letterink-NibData" = {
AngleInDegrees = 270;
};
}),
(526,655,o),
(546,444,o),
(546,363,cs),
(546,170,o),
(445,34,o),
(304,34,cs,{
"Letterink-NibData" = {
AngleInDegrees = 90;
};
}),
(188,34,o),
(90,133,o),
(90,271,cs,{
"Letterink-NibData" = {
AngleInDegrees = 180;
};
}),
(90,295,o),
(93,325,o),
(100,362,c,{
"Letterink-NibData" = {
AngleInDegrees = 90;
};
}),
(40,362,l,{
"Letterink-NibData" = {
AngleInDegrees = 4.57392;
};
}),
(37,327,o),
(35,297,o),
(35,274,cs),
(35,102,o),
(146,-13,o),
(304,-14,cs,{
"Letterink-NibData" = {
AngleInDegrees = 270;
};
}),
(487,-16,o),
(601,140,o),
(601,366,cs,{
"Letterink-NibData" = {
AngleInDegrees = 180;
};
}),
(601,568,o),
(497,706,o),
(306,706,cs,{
"Letterink-NibData" = {
AngleInDegrees = 90;
};
})
);
},
{
closed = 1;
nodes = (
(66,362,l),
(66,311,l,{
"Letterink-NibData" = {
AngleInDegrees = 270;
};
}),
(574,311,l,{
"Letterink-NibData" = {
AngleInDegrees = 180;
};
}),
(574,362,l,{
"Letterink-NibData" = {
AngleInDegrees = 90;
};
})
);
}
);
userData = {
RMXScaler = {
height = 140;
weight = -145;
width = 135;
};
};
width = 642;
},
{
anchors = (
{
name = bottom;
pos = (313,696);
},
{
name = ogonek;
pos = (55,629);
},
{
name = top;
pos = (317,-14);
}
);
layerId = "0CAF3BED-C4AC-4024-B3E1-4C69D1EF7EC0";
shapes = (
{
closed = 1;
nodes = (
(212,712,o),
(120,680,o),
(55,629,c,{
"Letterink-NibData" = {
AngleInDegrees = 328.49573;
};
}),
(92,569,l,{
"Letterink-NibData" = {
AngleInDegrees = 235.0806;
};
}),
(165,617,o),
(224,635,o),
(306,635,cs,{
"Letterink-NibData" = {
AngleInDegrees = 270;
};
}),
(516,635,o),
(528,443,o),
(528,370,cs),
(528,169,o),
(430,62,o),
(312,62,cs,{
"Letterink-NibData" = {
AngleInDegrees = 90;
};
}),
(201,62,o),
(113,153,o),
(113,273,cs,{
"Letterink-NibData" = {
AngleInDegrees = 180;
};
}),
(113,300,o),
(117,334,o),
(124,377,c,{
"Letterink-NibData" = {
AngleInDegrees = 90;
};
}),
(36,377,l,{
"Letterink-NibData" = {
AngleInDegrees = 4.08562;
};
}),
(33,342,o),
(29,305,o),
(29,277,cs),
(29,113,o),
(152,-15,o),
(310,-15,cs,{
"Letterink-NibData" = {
AngleInDegrees = 270;
};
}),
(506,-15,o),
(612,177,o),
(612,369,cs,{
"Letterink-NibData" = {
AngleInDegrees = 180;
};
}),
(612,569,o),
(505,712,o),
(312,712,cs,{
"Letterink-NibData" = {
AngleInDegrees = 90;
};
})
);
},
{
closed = 1;
nodes = (
(66,377,l),
(66,300,l,{
"Letterink-NibData" = {
AngleInDegrees = 270;
};
}),
(585,300,l,{
"Letterink-NibData" = {
AngleInDegrees = 180;
};
}),
(585,377,l,{
"Letterink-NibData" = {
AngleInDegrees = 90;
};
})
);
}
);
userData = {
RMXScaler = {
height = 140;
weight = -120;
width = 135;
};
};
width = 645;
}
);
unicode = 399;
userData = {
RMXScaler = {
source = e.ss01;
};
};
},
{
glyphname = F;
kernLeft = E;
kernRight = F;
layers = (
{
anchors = (
{
name = bottom;
pos = (313,0);
},
{
name = top;
pos = (313,684);
}
);
hints = (
{
name = _corner.caps_left;
origin = (0,8);
type = Corner;
}
);
layerId = "873CAA12-270D-4223-A88E-AE8E101FDBE8";
shapes = (
{
closed = 1;
nodes = (
(206,-1,l),
(206,333,l,{
"Letterink-NibData" = {
AngleInDegrees = 90;
};
}),
(464,333,l),
(464,389,l,{
"Letterink-NibData" = {
AngleInDegrees = 270;
};
}),
(206,389,l),
(206,627,l,{
"Letterink-NibData" = {
AngleInDegrees = 90;
};
}),
(564,627,l),
(564,683,l,{
"Letterink-NibData" = {
AngleInDegrees = 270;
};
}),
(146,683,l,{
"Letterink-NibData" = {
AngleInDegrees = 180;
};
}),
(146,-1,l,{
"Letterink-NibData" = {
AngleInDegrees = 90;
};
})
);
}
);
width = 581;
},
{
anchors = (
{
name = bottom;
pos = (321,0);
},
{
name = top;
pos = (321,684);
}
);
hints = (
{
name = _corner.caps_left;
origin = (0,8);
type = Corner;
}
);
layerId = "0CAF3BED-C4AC-4024-B3E1-4C69D1EF7EC0";
shapes = (
{
closed = 1;
nodes = (
(229,-1,l),
(229,323,l,{
"Letterink-NibData" = {
AngleInDegrees = 90;
};
}),
(479,323,l),
(479,400,l,{
"Letterink-NibData" = {
AngleInDegrees = 270;
};
}),
(229,400,l),
(229,609,l,{
"Letterink-NibData" = {
AngleInDegrees = 90;
};
}),
(575,609,l),
(575,685,l,{
"Letterink-NibData" = {
AngleInDegrees = 270;
};
}),
(146,685,l,{
"Letterink-NibData" = {
AngleInDegrees = 179.91648;
};
}),
(147,-1,l,{
"Letterink-NibData" = {
AngleInDegrees = 90;
};
})
);
}
);
width = 585;
},
{
anchors = (
{
name = bottom;
pos = (308,0);
},
{
name = top;
pos = (308,684);
}
);
hints = (
{
name = _corner.caps_left;
origin = (0,8);
type = Corner;
}
);
layerId = "49C16FD3-6177-408B-A733-AEB3898BB77C";
shapes = (
{
closed = 1;
nodes = (
(190,0,l),
(190,343,l,{
"Letterink-NibData" = {
AngleInDegrees = 90;
};
}),
(456,343,l),
(456,383,l,{
"Letterink-NibData" = {
AngleInDegrees = 270;
};
}),
(190,383,l),
(190,644,l,{
"Letterink-NibData" = {
AngleInDegrees = 90;
};
}),
(558,644,l),
(558,684,l,{
"Letterink-NibData" = {
AngleInDegrees = 270;
};
}),
(148,684,l,{
"Letterink-NibData" = {
AngleInDegrees = 180;
};
}),
(148,0,l,{
"Letterink-NibData" = {
AngleInDegrees = 90;
};
})
);
}
);
width = 585;
}
);
unicode = 70;
userData = {
position = 129;
width = 61;
};
},
{
glyphname = F.ss01;
kernLeft = L;
kernRight = F;
layers = (
{
anchors = (
{
name = bottom;
pos = (211,0);
},
{
name = top;
pos = (211,684);
}
);
layerId = "873CAA12-270D-4223-A88E-AE8E101FDBE8";
shapes = (
{
closed = 1;
nodes = (
(79,0,l),
(79,325,l,{
"Letterink-NibData" = {
AngleInDegrees = 90;
};
}),
(366,325,l),
(366,382,l,{
"Letterink-NibData" = {
AngleInDegrees = 270;
};
}),
(79,382,l),
(79,627,l,{
"Letterink-NibData" = {
AngleInDegrees = 90;
};
}),
(436,627,l),
(436,684,l,{
"Letterink-NibData" = {
AngleInDegrees = 270;
};
}),
(18,684,l,{
"Letterink-NibData" = {
AngleInDegrees = 180;
};
}),
(18,0,l,{
"Letterink-NibData" = {
AngleInDegrees = 90;
};
})
);
}
);
width = 440;
},
{
anchors = (
{
name = bottom;
pos = (274,0);
},
{
name = top;
pos = (274,684);
}
);
layerId = "0CAF3BED-C4AC-4024-B3E1-4C69D1EF7EC0";
shapes = (
{
closed = 1;
nodes = (
(157,-1,l),
(157,315,l,{
"Letterink-NibData" = {
AngleInDegrees = 90;
};
}),
(435,315,l),
(435,393,l,{
"Letterink-NibData" = {
AngleInDegrees = 270;
};
}),
(157,393,l),
(157,608,l,{
"Letterink-NibData" = {
AngleInDegrees = 90;
};
}),
(503,608,l),
(503,686,l,{
"Letterink-NibData" = {
AngleInDegrees = 270;
};
}),
(75,686,l,{
"Letterink-NibData" = {
AngleInDegrees = 180;
};
}),
(75,-1,l,{
"Letterink-NibData" = {
AngleInDegrees = 90;
};
})
);
}
);
width = 497;
},
{
anchors = (
{
name = bottom;
pos = (219,0);
},
{
name = top;
pos = (219,684);
}
);
layerId = "49C16FD3-6177-408B-A733-AEB3898BB77C";
shapes = (
{
closed = 1;
nodes = (
(84,1,l),
(84,335,l,{
"Letterink-NibData" = {
AngleInDegrees = 90;
};
}),
(379,335,l),
(379,374,l,{
"Letterink-NibData" = {
AngleInDegrees = 270;
};
}),
(84,374,l),
(84,644,l,{
"Letterink-NibData" = {
AngleInDegrees = 90;
};
}),
(451,644,l),
(451,685,l,{
"Letterink-NibData" = {
AngleInDegrees = 270;
};
}),
(39,685,l,{
"Letterink-NibData" = {
AngleInDegrees = 180;
};
}),
(39,1,l,{
"Letterink-NibData" = {
AngleInDegrees = 90;
};
})
);
}
);
width = 468;
}
);
metricLeft = N.ss01;
userData = {
position = 95;
width = 61;
};
},
{
glyphname = F.swsh;
kernLeft = E.swsh;
kernRight = F;
layers = (
{
hints = (
{
name = _corner.caps_swash;
origin = (1,3);
type = Corner;
}
);
layerId = "873CAA12-270D-4223-A88E-AE8E101FDBE8";
shapes = (
{
closed = 1;
nodes = (
(227,-1,l),
(227,333,l,{
"Letterink-NibData" = {
AngleInDegrees = 90;
};
}),
(484,333,l),
(484,389,l,{
"Letterink-NibData" = {
AngleInDegrees = 270;
};
}),
(227,389,l),
(227,569,l,{
"Letterink-NibData" = {
AngleInDegrees = 270;
};
}),
(166,569,l,{
"Letterink-NibData" = {
AngleInDegrees = 180;
};
}),
(166,-1,l,{
"Letterink-NibData" = {
AngleInDegrees = 90;
};
})
);
},
{
closed = 1;
nodes = (
(143,627,l,{
"Letterink-NibData" = {
AngleInDegrees = 90;
};
}),
(584,627,l),
(584,683,l,{
"Letterink-NibData" = {
AngleInDegrees = 270;
};
}),
(143,683,l,{
"Letterink-NibData" = {
AngleInDegrees = 180;
};
})
);
}
);
width = 602;
},
{
hints = (
{
name = _corner.caps_swash;
origin = (1,3);
type = Corner;
}
);
layerId = "0CAF3BED-C4AC-4024-B3E1-4C69D1EF7EC0";
shapes = (
{
closed = 1;
nodes = (
(254,-1,l),
(254,324,l,{
"Letterink-NibData" = {
AngleInDegrees = 90;
};
}),
(503,324,l),
(503,400,l,{
"Letterink-NibData" = {
AngleInDegrees = 270;
};
}),
(254,400,l),
(254,559,l,{
"Letterink-NibData" = {
AngleInDegrees = 270;
};
}),
(171,559,l,{
"Letterink-NibData" = {
AngleInDegrees = 180;
};
}),
(171,-1,l,{
"Letterink-NibData" = {
AngleInDegrees = 90;
};
})
);
},
{
closed = 1;
nodes = (
(145,608,l,{
"Letterink-NibData" = {
AngleInDegrees = 90;
};
}),
(599,608,l),
(599,684,l,{
"Letterink-NibData" = {
AngleInDegrees = 270;
};
}),
(145,684,l,{
"Letterink-NibData" = {
AngleInDegrees = 180;
};
})
);
}
);
width = 609;
},
{
hints = (
{
name = _corner.caps_swash;
origin = (1,3);
type = Corner;
}
);
layerId = "49C16FD3-6177-408B-A733-AEB3898BB77C";
shapes = (
{
closed = 1;
nodes = (
(216,0,l),
(216,343,l,{
"Letterink-NibData" = {
AngleInDegrees = 90;
};
}),
(482,343,l),
(482,383,l,{
"Letterink-NibData" = {
AngleInDegrees = 270;
};
}),
(216,383,l),
(216,569,l,{
"Letterink-NibData" = {
AngleInDegrees = 270;
};
}),
(174,569,l,{
"Letterink-NibData" = {
AngleInDegrees = 180;
};
}),
(174,0,l,{
"Letterink-NibData" = {
AngleInDegrees = 90;
};
})
);
},
{
closed = 1;
nodes = (
(142,644,l,{
"Letterink-NibData" = {
AngleInDegrees = 90;
};
}),
(585,644,l),
(585,684,l,{
"Letterink-NibData" = {
AngleInDegrees = 270;
};
}),
(142,684,l,{
"Letterink-NibData" = {
AngleInDegrees = 180;
};
})
);
}
);
width = 612;
}
);
userData = {
position = 129;
width = 61;
};
},
{
glyphname = G;
kernLeft = O;
kernRight = O;
layers = (
{
anchors = (
{
name = bottom;
pos = (368,-22);
},
{
name = top;
pos = (372,694);
}
);
background = {
shapes = (
{
closed = 1;
nodes = (
(577,-17,o),
(721,130,o),
(721,330,cs),
(721,349,ls),
(721,548,o),
(573,700,o),
(379,700,cs,{
"Letterink-NibData" = {
AngleInDegrees = "270";
};
}),
(186,700,o),
(38,548,o),
(38,349,cs,{
"Letterink-NibData" = {
AngleInDegrees = "180";
};
}),
(38,330,ls,{
"Letterink-NibData" = {
AngleInDegrees = "180";
};
}),
(38,133,o),
(187,-17,o),
(383,-17,cs,{
"Letterink-NibData" = {
AngleInDegrees = "90";
};
})
);
},
{
closed = 1;
nodes = (
(219,39,o),
(98,163,o),
(98,330,cs),
(98,349,ls),
(98,516,o),
(220,644,o),
(378,644,cs,{
"Letterink-NibData" = {
AngleInDegrees = "90";
};
}),
(538,644,o),
(661,517,o),
(661,349,cs,{
"Letterink-NibData" = {
AngleInDegrees = "180";
};
}),
(661,330,ls,{
"Letterink-NibData" = {
AngleInDegrees = "180";
};
}),
(661,163,o),
(540,39,o),
(380,39,cs,{
"Letterink-NibData" = {
AngleInDegrees = "270";
};
})
);
}
);
};
layerId = "873CAA12-270D-4223-A88E-AE8E101FDBE8";
shapes = (
{
closed = 1;
nodes = (
(470,463,l),
(486,451,o),
(507,445,o),
(529,445,cs),
(574,445,o),
(620,484,o),
(620,544,cs),
(620,657,o),
(508,699,o),
(368,699,cs),
(187,699,o),
(37,557,o),
(37,338,cs),
(37,127,o),
(174,-17,o),
(376,-17,cs),
(579,-17,o),
(681,116,o),
(681,303,cs),
(681,331,l),
(381,331,l),
(381,275,l),
(653,275,l),
(625,303,l),
(625,148,o),
(549,39,o),
(376,39,cs),
(206,39,o),
(97,157,o),
(97,338,cs),
(97,519,o),
(217,643,o),
(368,643,cs),
(501,643,o),
(564,601,o),
(564,544,cs),
(564,526,o),
(554,501,o),
(529,501,cs),
(519,501,o),
(508,505,o),
(502,509,c)
);
}
);
width = 717;
},
{
anchors = (
{
name = bottom;
pos = (363,-9);
},
{
name = top;
pos = (363,703);
}
);
background = {
shapes = (
{
closed = 1;
nodes = (
(566,-25,o),
(712,126,o),
(712,326,cs),
(712,355,ls),
(712,548,o),
(560,702,o),
(370,702,cs,{
"Letterink-NibData" = {
AngleInDegrees = "270";
};
}),
(180,702,o),
(29,548,o),
(29,355,cs,{
"Letterink-NibData" = {
AngleInDegrees = "180";
};
}),
(29,326,ls,{
"Letterink-NibData" = {
AngleInDegrees = "180";
};
}),
(29,126,o),
(173,-19,o),
(374,-22,cs,{
"Letterink-NibData" = {
AngleInDegrees = "90.89517371732774";
};
})
);
},
{
closed = 1;
nodes = (
(223,54,o),
(111,170,o),
(111,326,cs),
(111,355,ls),
(111,504,o),
(225,626,o),
(369,626,cs,{
"Letterink-NibData" = {
AngleInDegrees = "90";
};
}),
(515,626,o),
(630,504,o),
(630,355,cs,{
"Letterink-NibData" = {
AngleInDegrees = "180";
};
}),
(630,326,ls,{
"Letterink-NibData" = {
AngleInDegrees = "180";
};
}),
(630,170,o),
(518,54,o),
(371,54,cs,{
"Letterink-NibData" = {
AngleInDegrees = "270";
};
})
);
}
);
};
layerId = "0CAF3BED-C4AC-4024-B3E1-4C69D1EF7EC0";
shapes = (
{
closed = 1;
nodes = (
(466,454,l),
(488,439,o),
(511,434,o),
(529,434,cs),
(583,434,o),
(633,477,o),
(633,541,cs),
(633,654,o),
(506,703,o),
(372,703,cs),
(185,703,o),
(29,559,o),
(29,339,cs),
(29,128,o),
(180,-19,o),
(381,-19,cs),
(579,-19,o),
(681,137,o),
(677.993,304.745,c),
(677,342,l),
(365,342,l),
(365,266,l),
(640,266,l),
(602,303,l),
(605,158,o),
(532,55,o),
(381,55,cs),
(226,55,o),
(109,164,o),
(109,339,cs),
(109,511,o),
(225,627,o),
(372,627,cs),
(503,627,o),
(553,575,o),
(553,541,cs),
(553,527,o),
(545,508,o),
(529,508,cs),
(523,508,o),
(514,509,o),
(506,514,c)
);
}
);
width = 706;
},
{
anchors = (
{
name = bottom;
pos = (373,-35);
},
{
name = top;
pos = (383,683);
}
);
background = {
shapes = (
{
closed = 1;
nodes = (
(584,-14,o),
(726,131,o),
(726,331,cs),
(726,350,ls),
(726,550,o),
(578,702,o),
(384,702,cs,{
"Letterink-NibData" = {
AngleInDegrees = "270";
};
}),
(190,702,o),
(44,551,o),
(44,350,cs,{
"Letterink-NibData" = {
AngleInDegrees = "180";
};
}),
(44,331,ls,{
"Letterink-NibData" = {
AngleInDegrees = "180";
};
}),
(44,133,o),
(191,-14,o),
(388,-14,cs,{
"Letterink-NibData" = {
AngleInDegrees = "90";
};
})
);
},
{
closed = 1;
nodes = (
(214,24,o),
(86,156,o),
(86,331,cs),
(86,350,ls),
(86,526,o),
(215,662,o),
(383,662,cs,{
"Letterink-NibData" = {
AngleInDegrees = "90";
};
}),
(552,662,o),
(684,526,o),
(684,350,cs,{
"Letterink-NibData" = {
AngleInDegrees = "180";
};
}),
(684,331,ls,{
"Letterink-NibData" = {
AngleInDegrees = "180";
};
}),
(684,156,o),
(555,24,o),
(385,24,cs,{
"Letterink-NibData" = {
AngleInDegrees = "270";
};
})
);
}
);
};
layerId = "49C16FD3-6177-408B-A733-AEB3898BB77C";
shapes = (
{
closed = 1;
nodes = (
(479,476,l),
(498,462,o),
(519,459,o),
(534,459,cs),
(576,459,o),
(618,497,o),
(618,552,cs),
(618,639,o),
(518,705,o),
(368,705,cs),
(193,705,o),
(46,563,o),
(46,344,cs),
(46,132,o),
(180,-10,o),
(376,-10,cs),
(561,-10,o),
(674,120,o),
(674,309,cs),
(673,330,l),
(381,330,l),
(381,288,l),
(653,288,l),
(632,309,l),
(632,148,o),
(541,32,o),
(376,32,cs),
(200,32,o),
(88,158,o),
(88,344,cs),
(88,533,o),
(211,663,o),
(368,663,cs),
(509,663,o),
(576,596,o),
(576,552,cs),
(576,529,o),
(562,501,o),
(534,501,cs),
(525,501,o),
(512,504,o),
(503,510,c)
);
}
);
width = 719;
},
{
anchors = (
{
name = bottom;
pos = (392,-35);
},
{
name = top;
pos = (402,683);
}
);
associatedMasterId = "49C16FD3-6177-408B-A733-AEB3898BB77C";
layerId = "D0E3D1AC-81E4-4FC2-A1B9-BDF5A86A417E";
name = "3 Jan 22, 15:37";
shapes = (
{
closed = 1;
nodes = (
(537,-20,o),
(678,85,o),
(678,253,c),
(678,296,l,{
"Letterink-NibData" = {
AngleInDegrees = 270;
};
}),
(636,296,l,{
"Letterink-NibData" = {
AngleInDegrees = 180;
};
}),
(636,251,l,{
"Letterink-NibData" = {
AngleInDegrees = 180;
};
}),
(636,124,o),
(523,20,o),
(392,20,cs,{
"Letterink-NibData" = {
AngleInDegrees = 270;
};
}),
(227,20,o),
(103,157,o),
(103,329,cs),
(103,504,o),
(232,658,o),
(402,658,cs,{
"Letterink-NibData" = {
AngleInDegrees = 90;
};
}),
(466,658,o),
(587,637,o),
(587,563,cs,{
"Letterink-NibData" = {
AngleInDegrees = 180;
};
}),
(587,537,o),
(570,514,o),
(547,514,cs,{
"Letterink-NibData" = {
AngleInDegrees = 270;
};
}),
(537,514,o),
(529,518,o),
(524,524,c,{
"Letterink-NibData" = {
AngleInDegrees = 218.23383;
};
}),
(498,491,l,{
"Letterink-NibData" = {
AngleInDegrees = 138.36646;
};
}),
(506,482,o),
(524,473,o),
(546,473,cs,{
"Letterink-NibData" = {
AngleInDegrees = 90;
};
}),
(594,473,o),
(628,509,o),
(628,563,cs),
(628,669,o),
(486,698,o),
(401,698,cs,{
"Letterink-NibData" = {
AngleInDegrees = 270;
};
}),
(203,698,o),
(61,531,o),
(61,330,cs,{
"Letterink-NibData" = {
AngleInDegrees = 180;
};
}),
(61,138,o),
(198,-20,o),
(392,-20,cs,{
"Letterink-NibData" = {
AngleInDegrees = 90;
};
})
);
},
{
closed = 1;
nodes = (
(678,293,l),
(678,335,l,{
"Letterink-NibData" = {
AngleInDegrees = 270;
};
}),
(387,335,l,{
"Letterink-NibData" = {
AngleInDegrees = 180;
};
}),
(387,293,l,{
"Letterink-NibData" = {
AngleInDegrees = 90;
};
})
);
}
);
width = 735;
},
{
anchors = (
{
name = bottom;
pos = (387,-28);
},
{
name = top;
pos = (391,699);
}
);
associatedMasterId = "873CAA12-270D-4223-A88E-AE8E101FDBE8";
layerId = "A8D2BE40-FE6F-4311-8DB9-F135910EEEAF";
name = "3 Jan 22, 15:45";
shapes = (
{
closed = 1;
nodes = (
(534,-21,o),
(675,91,o),
(675,261,c),
(675,303,l,{
"Letterink-NibData" = {
AngleInDegrees = 270;
};
}),
(618,303,l,{
"Letterink-NibData" = {
AngleInDegrees = 180;
};
}),
(618,254,l,{
"Letterink-NibData" = {
AngleInDegrees = 180;
};
}),
(618,131,o),
(513,38,o),
(387,35,cs,{
"Letterink-NibData" = {
AngleInDegrees = 268.86182;
};
}),
(236,32,o),
(116,172,o),
(116,328,cs),
(116,497,o),
(236,641,o),
(396,643,cs,{
"Letterink-NibData" = {
AngleInDegrees = 89.07595;
};
}),
(458,644,o),
(572,622,o),
(572,555,cs,{
"Letterink-NibData" = {
AngleInDegrees = 180;
};
}),
(572,532,o),
(558,513,o),
(539,513,cs,{
"Letterink-NibData" = {
AngleInDegrees = 270;
};
}),
(533,513,o),
(521,516,o),
(516,521,c,{
"Letterink-NibData" = {
AngleInDegrees = 214.33022;
};
}),
(488,480,l,{
"Letterink-NibData" = {
AngleInDegrees = 135;
};
}),
(500,468,o),
(519,460,o),
(538,460,cs,{
"Letterink-NibData" = {
AngleInDegrees = 90;
};
}),
(588,460,o),
(626,499,o),
(626,555,cs),
(626,664,o),
(480,699,o),
(396,699,cs,{
"Letterink-NibData" = {
AngleInDegrees = 270;
};
}),
(199,699,o),
(56,529,o),
(56,329,cs,{
"Letterink-NibData" = {
AngleInDegrees = 180;
};
}),
(56,139,o),
(194,-21,o),
(387,-21,cs,{
"Letterink-NibData" = {
AngleInDegrees = 90;
};
})
);
},
{
closed = 1;
nodes = (
(675,286,l),
(675,342,l,{
"Letterink-NibData" = {
AngleInDegrees = 270;
};
}),
(375,342,l,{
"Letterink-NibData" = {
AngleInDegrees = 180;
};
}),
(375,286,l,{
"Letterink-NibData" = {
AngleInDegrees = 90;
};
})
);
}
);
width = 728;
},
{
anchors = (
{
name = bottom;
pos = (390,-16);
},
{
name = top;
pos = (393,684);
}
);
associatedMasterId = "0CAF3BED-C4AC-4024-B3E1-4C69D1EF7EC0";
layerId = "801CC91F-0C96-44A6-9720-FE52325A0B43";
name = "3 Jan 22, 15:45";
shapes = (
{
closed = 1;
nodes = (
(541,-13,o),
(683,104,o),
(683,271,cs),
(683,319,l,{
"Letterink-NibData" = {
AngleInDegrees = 270;
};
}),
(600,319,l,{
"Letterink-NibData" = {
AngleInDegrees = 178.85424;
};
}),
(601,269,l,{
"Letterink-NibData" = {
AngleInDegrees = 180.96286;
};
}),
(599,150,o),
(504,63,o),
(390,63,cs,{
"Letterink-NibData" = {
AngleInDegrees = 270;
};
}),
(245,63,o),
(135,176,o),
(135,342,cs),
(135,497,o),
(245,620,o),
(399,620,cs,{
"Letterink-NibData" = {
AngleInDegrees = 90;
};
}),
(456,620,o),
(558,599,o),
(558,544,cs,{
"Letterink-NibData" = {
AngleInDegrees = 180;
};
}),
(558,530,o),
(551,518,o),
(537,517,cs,{
"Letterink-NibData" = {
AngleInDegrees = 264.28941;
};
}),
(527,516,o),
(517,523,o),
(511,528,c,{
"Letterink-NibData" = {
AngleInDegrees = 218.90414;
};
}),
(465,471,l,{
"Letterink-NibData" = {
AngleInDegrees = 136.54816;
};
}),
(483,452,o),
(511,442,o),
(536,442,cs,{
"Letterink-NibData" = {
AngleInDegrees = 90;
};
}),
(591,442,o),
(635,488,o),
(635,547,cs),
(635,656,o),
(481,696,o),
(398,696,cs,{
"Letterink-NibData" = {
AngleInDegrees = 270;
};
}),
(205,696,o),
(53,539,o),
(53,343,cs,{
"Letterink-NibData" = {
AngleInDegrees = 180;
};
}),
(53,141,o),
(196,-13,o),
(390,-13,cs,{
"Letterink-NibData" = {
AngleInDegrees = 90;
};
})
);
},
{
closed = 1;
nodes = (
(683,280,l),
(683,356,l,{
"Letterink-NibData" = {
AngleInDegrees = 270;
};
}),
(364,356,l,{
"Letterink-NibData" = {
AngleInDegrees = 180;
};
}),
(364,280,l,{
"Letterink-NibData" = {
AngleInDegrees = 90;
};
})
);
}
);
width = 734;
},
{
anchors = (
{
name = bottom;
pos = (390,-16);
},
{
name = top;
pos = (393,684);
}
);
associatedMasterId = "0CAF3BED-C4AC-4024-B3E1-4C69D1EF7EC0";
layerId = "F3CD14B1-1EDD-434D-B368-A4692BE06C00";
name = "5 Jan 22, 08:08";
shapes = (
{
attr = {
strokeHeight = 74;
strokeWidth = 80;
};
closed = 0;
nodes = (
(515,478,l,{
"Letterink-NibData" = {
AngleInDegrees = 116.56505;
};
}),
(525,473,o),
(534,471,o),
(543,471,cs,{
"Letterink-NibData" = {
AngleInDegrees = 90;
};
}),
(587,471,o),
(608,511,o),
(608,546,cs),
(608,617,o),
(519,674,o),
(391,668,cs,{
"Letterink-NibData" = {
AngleInDegrees = 267.25739;
};
}),
(224,660,o),
(90,522,o),
(90,334,cs,{
"Letterink-NibData" = {
AngleInDegrees = 180;
};
}),
(90,144,o),
(227,4,o),
(408,15,cs,{
"Letterink-NibData" = {
AngleInDegrees = 86.30861;
};
}),
(563,25,o),
(648,137,o),
(648,281,c,{
"Letterink-NibData" = {
AngleInDegrees = 358.26429;
};
}),
(647,314,l,{
"Letterink-NibData" = {
AngleInDegrees = 270.21221;
};
}),
(377,315,l,{
"Letterink-NibData" = {
AngleInDegrees = 270.21221;
};
})
);
}
);
width = 734;
},
{
anchors = (
{
name = bottom;
pos = (387,-22);
},
{
name = top;
pos = (391,694);
}
);
associatedMasterId = "873CAA12-270D-4223-A88E-AE8E101FDBE8";
layerId = "47FC1324-84EB-4E8F-B0F2-D2229600AA22";
name = "5 Jan 22, 08:15";
shapes = (
{
attr = {
strokeHeight = 54;
strokeWidth = 60;
};
closed = 0;
nodes = (
(516,482,l,{
"Letterink-NibData" = {
AngleInDegrees = 116.56505;
};
}),
(526,477,o),
(534,475,o),
(544,475,cs,{
"Letterink-NibData" = {
AngleInDegrees = 90;
};
}),
(588,475,o),
(609,516,o),
(609,553,cs),
(609,626,o),
(520,685,o),
(391,678,cs,{
"Letterink-NibData" = {
AngleInDegrees = 267.27369;
};
}),
(223,670,o),
(88,527,o),
(88,334,cs,{
"Letterink-NibData" = {
AngleInDegrees = 180;
};
}),
(88,138,o),
(226,-7,o),
(408,5,cs,{
"Letterink-NibData" = {
AngleInDegrees = 86.33221;
};
}),
(564,15,o),
(650,130,o),
(650,279,c,{
"Letterink-NibData" = {
AngleInDegrees = 358.31532;
};
}),
(649,313,l,{
"Letterink-NibData" = {
AngleInDegrees = 270.21065;
};
}),
(377,314,l,{
"Letterink-NibData" = {
AngleInDegrees = 270.21065;
};
})
);
}
);
width = 728;
},
{
anchors = (
{
name = bottom;
pos = (392,-35);
},
{
name = top;
pos = (402,683);
}
);
associatedMasterId = "49C16FD3-6177-408B-A733-AEB3898BB77C";
background = {
shapes = (
{
closed = 1;
nodes = (
(540,-19,o),
(678,85,o),
(678,253,c),
(678,296,l),
(636,296,l),
(636,251,l),
(636,124,o),
(523,20,o),
(392,20,cs),
(227,20,o),
(103,157,o),
(103,329,cs),
(103,504,o),
(232,658,o),
(402,658,cs),
(466,658,o),
(587,637,o),
(587,563,cs),
(587,537,o),
(570,514,o),
(547,514,cs),
(537,514,o),
(529,518,o),
(524,524,c),
(498,491,l),
(506,482,o),
(524,473,o),
(546,473,cs),
(594,473,o),
(628,509,o),
(628,563,cs),
(628,669,o),
(486,698,o),
(401,698,cs),
(203,698,o),
(61,531,o),
(61,330,cs),
(61,138,o),
(198,-21,o),
(392,-20,cs)
);
}
);
};
layerId = "F0F46AC2-3B0D-4489-B32E-B81CEA10F2A9";
name = "5 Jan 22, 08:18";
shapes = (
{
attr = {
strokeHeight = 38;
strokeWidth = 42;
};
closed = 0;
nodes = (
(518,484,l,{
"Letterink-NibData" = {
AngleInDegrees = 116.56505;
};
}),
(528,479,o),
(537,477,o),
(547,477,cs,{
"Letterink-NibData" = {
AngleInDegrees = 90;
};
}),
(591,477,o),
(613,519,o),
(613,556,cs),
(613,630,o),
(522,690,o),
(391,683,cs,{
"Letterink-NibData" = {
AngleInDegrees = 267.30572;
};
}),
(221,675,o),
(84,530,o),
(84,334,cs,{
"Letterink-NibData" = {
AngleInDegrees = 180;
};
}),
(84,135,o),
(224,-12,o),
(404,0,cs,{
"Letterink-NibData" = {
AngleInDegrees = 86.48932;
};
}),
(567,10,o),
(654,127,o),
(654,278,c,{
"Letterink-NibData" = {
AngleInDegrees = 358.36342;
};
}),
(653,313,l,{
"Letterink-NibData" = {
AngleInDegrees = 270.20759;
};
}),
(377,314,l,{
"Letterink-NibData" = {
AngleInDegrees = 270.20759;
};
})
);
}
);
width = 735;
}
);
metricLeft = O;
metricRight = "=O*.975";
note = "Bold: 98/95.5%";
unicode = 71;
userData = {
position = 593;
width = 57;
};
},
{
glyphname = G.ss01;
kernLeft = O;
kernRight = O;
layers = (
{
anchors = (
{
name = bottom;
pos = (369,-22);
},
{
name = top;
pos = (383,679);
}
);
background = {
shapes = (
{
closed = 0;
nodes = (
(618,522,l,{
"Letterink-NibData" = {
AngleInDegrees = "-45";
MainAxisWidth = "24";
MinorAxisWidth = "-15";
ValidForParentMainAxisWidth = "30";
ValidForParentMinorAxisWidth = "15";
};
"Letterink-NibStyleId" = "8";
}),
(595,604,o),
(508,673,o),
(375,673,cs,{
"Letterink-NibData" = {
AngleInDegrees = "-45";
MainAxisWidth = "24";
MinorAxisWidth = "-15";
ValidForParentMainAxisWidth = "30";
ValidForParentMinorAxisWidth = "15";
};
"Letterink-NibStyleId" = "8";
}),
(203,673,o),
(68,534,o),
(68,336,cs,{
"Letterink-NibData" = {
AngleInDegrees = "-45";
MainAxisWidth = "30";
MinorAxisWidth = "-15";
ValidForParentMainAxisWidth = "30";
ValidForParentMinorAxisWidth = "15";
};
"Letterink-NibStyleId" = "8";
}),
(68,136,o),
(205,9,o),
(379,9,cs,{
"Letterink-NibData" = {
AngleInDegrees = "-45";
MainAxisWidth = "24";
MinorAxisWidth = "-15";
ValidForParentMainAxisWidth = "30";
ValidForParentMinorAxisWidth = "15";
};
"Letterink-NibStyleId" = "8";
}),
(487,9,o),
(578,54,o),
(626,134,c,{
"Letterink-NibData" = {
AngleInDegrees = "-45";
MainAxisWidth = "24";
MinorAxisWidth = "-15";
ValidForParentMainAxisWidth = "30";
ValidForParentMinorAxisWidth = "15";
};
"Letterink-NibStyleId" = "8";
})
);
},
{
closed = 1;
nodes = (
(577,-17,o),
(721,130,o),
(721,330,cs),
(721,349,ls),
(721,548,o),
(573,700,o),
(379,700,cs,{
"Letterink-NibData" = {
AngleInDegrees = "270";
};
}),
(186,700,o),
(38,548,o),
(38,349,cs,{
"Letterink-NibData" = {
AngleInDegrees = "180";
};
}),
(38,330,ls,{
"Letterink-NibData" = {
AngleInDegrees = "180";
};
}),
(38,133,o),
(187,-17,o),
(383,-17,cs,{
"Letterink-NibData" = {
AngleInDegrees = "90";
};
})
);
},
{
closed = 1;
nodes = (
(219,39,o),
(98,163,o),
(98,330,cs),
(98,349,ls),
(98,516,o),
(220,644,o),
(378,644,cs,{
"Letterink-NibData" = {
AngleInDegrees = "90";
};
}),
(538,644,o),
(661,517,o),
(661,349,cs,{
"Letterink-NibData" = {
AngleInDegrees = "180";
};
}),
(661,330,ls,{
"Letterink-NibData" = {
AngleInDegrees = "180";
};
}),
(661,163,o),
(540,39,o),
(380,39,cs,{
"Letterink-NibData" = {
AngleInDegrees = "270";
};
})
);
}
);
};
layerId = "873CAA12-270D-4223-A88E-AE8E101FDBE8";
shapes = (
{
closed = 1;
nodes = (
(648,529,l),
(623,622,o),
(519,699,o),
(378,699,cs),
(187,699,o),
(37,557,o),
(37,338,cs),
(37,124,o),
(174,-17,o),
(376,-17,cs),
(576,-17,o),
(684,139,o),
(684,313,c),
(682,341,l),
(384,341,l),
(384,285,l),
(656,285,l),
(628,313,l),
(628,173,o),
(552,39,o),
(376,39,cs),
(206,39,o),
(97,154,o),
(97,338,cs),
(97,519,o),
(217,643,o),
(378,643,cs),
(497,643,o),
(577,576,o),
(594,515,c)
);
}
);
width = 721;
},
{
anchors = (
{
name = bottom;
pos = (357,0);
},
{
name = top;
pos = (371,684);
}
);
background = {
shapes = (
{
closed = 1;
nodes = (
(563,-25,o),
(709,126,o),
(709,326,cs),
(709,355,ls),
(709,548,o),
(557,702,o),
(367,702,cs,{
"Letterink-NibData" = {
AngleInDegrees = "270";
};
}),
(177,702,o),
(26,548,o),
(26,355,cs,{
"Letterink-NibData" = {
AngleInDegrees = "180";
};
}),
(26,326,ls,{
"Letterink-NibData" = {
AngleInDegrees = "180";
};
}),
(26,126,o),
(170,-19,o),
(371,-22,cs,{
"Letterink-NibData" = {
AngleInDegrees = "90.89517371732774";
};
})
);
},
{
closed = 1;
nodes = (
(220,54,o),
(108,170,o),
(108,326,cs),
(108,355,ls),
(108,504,o),
(222,626,o),
(366,626,cs,{
"Letterink-NibData" = {
AngleInDegrees = "90";
};
}),
(512,626,o),
(627,504,o),
(627,355,cs,{
"Letterink-NibData" = {
AngleInDegrees = "180";
};
}),
(627,326,ls,{
"Letterink-NibData" = {
AngleInDegrees = "180";
};
}),
(627,170,o),
(515,54,o),
(368,54,cs,{
"Letterink-NibData" = {
AngleInDegrees = "270";
};
})
);
}
);
};
layerId = "0CAF3BED-C4AC-4024-B3E1-4C69D1EF7EC0";
shapes = (
{
closed = 1;
nodes = (
(653,535,l),
(623,638,o),
(512,709,o),
(379,709,cs),
(184,709,o),
(29,565,o),
(29,343,cs),
(29,130,o),
(175,-17,o),
(377,-17,cs),
(567,-17,o),
(690,120,o),
(690,320,cs),
(690,358,l),
(382,358,l),
(382,282,l),
(652,282,l),
(614,320,l),
(614,165,o),
(522,59,o),
(377,59,cs),
(223,59,o),
(109,175,o),
(109,343,cs),
(109,515,o),
(224,633,o),
(379,633,cs),
(477,633,o),
(559,584,o),
(581,513,c)
);
}
);
width = 719;
},
{
anchors = (
{
name = bottom;
pos = (368,-27);
},
{
name = top;
pos = (368,721);
}
);
background = {
shapes = (
{
closed = 1;
nodes = (
(584,-14,o),
(726,131,o),
(726,331,cs),
(726,350,ls),
(726,550,o),
(578,702,o),
(384,702,cs,{
"Letterink-NibData" = {
AngleInDegrees = "270";
};
}),
(190,702,o),
(44,551,o),
(44,350,cs,{
"Letterink-NibData" = {
AngleInDegrees = "180";
};
}),
(44,331,ls,{
"Letterink-NibData" = {
AngleInDegrees = "180";
};
}),
(44,133,o),
(191,-14,o),
(388,-14,cs,{
"Letterink-NibData" = {
AngleInDegrees = "90";
};
})
);
},
{
closed = 1;
nodes = (
(214,24,o),
(86,156,o),
(86,331,cs),
(86,350,ls),
(86,526,o),
(215,662,o),
(383,662,cs,{
"Letterink-NibData" = {
AngleInDegrees = "90";
};
}),
(552,662,o),
(684,526,o),
(684,350,cs,{
"Letterink-NibData" = {
AngleInDegrees = "180";
};
}),
(684,331,ls,{
"Letterink-NibData" = {
AngleInDegrees = "180";
};
}),
(684,156,o),
(555,24,o),
(385,24,cs,{
"Letterink-NibData" = {
AngleInDegrees = "270";
};
})
);
}
);
};
layerId = "49C16FD3-6177-408B-A733-AEB3898BB77C";
shapes = (
{
closed = 1;
nodes = (
(664,532,l),
(637,620,o),
(537,697,o),
(394,697,cs),
(198,697,o),
(46,554,o),
(46,337,cs),
(46,128,o),
(191,-15,o),
(392,-15,cs),
(580,-15,o),
(702,118,o),
(702,312,c),
(701,331,l),
(397,331,l),
(397,293,l),
(683,293,l),
(664,312,l),
(664,141,o),
(557,23,o),
(392,23,cs),
(216,23,o),
(88,151,o),
(88,337,cs),
(88,530,o),
(220,659,o),
(394,659,cs),
(523,659,o),
(607,590,o),
(628,520,c)
);
}
);
width = 748;
},
{
anchors = (
{
name = bottom;
pos = (386,0);
},
{
name = top;
pos = (401,684);
}
);
associatedMasterId = "49C16FD3-6177-408B-A733-AEB3898BB77C";
layerId = "96951EB1-18FB-4FDF-9014-B6300BAB0AB6";
name = "3 Jan 22, 15:40";
shapes = (
{
closed = 1;
nodes = (
(542,-15,o),
(675,97,o),
(675,285,cs),
(675,343,l,{
"Letterink-NibData" = {
AngleInDegrees = 270;
};
}),
(633,343,l,{
"Letterink-NibData" = {
AngleInDegrees = 180;
};
}),
(633,273,ls,{
"Letterink-NibData" = {
AngleInDegrees = 180;
};
}),
(633,127,o),
(512,25,o),
(391,25,cs,{
"Letterink-NibData" = {
AngleInDegrees = 270;
};
}),
(209,25,o),
(104,154,o),
(104,331,cs),
(104,508,o),
(231,656,o),
(401,656,cs,{
"Letterink-NibData" = {
AngleInDegrees = 90;
};
}),
(470,656,o),
(577,625,o),
(584,557,c,{
"Letterink-NibData" = {
AngleInDegrees = 88.60282;
};
}),
(625,558,l,{
"Letterink-NibData" = {
AngleInDegrees = 356.1432;
};
}),
(619,647,o),
(507,696,o),
(403,696,cs,{
"Letterink-NibData" = {
AngleInDegrees = 270;
};
}),
(207,696,o),
(62,537,o),
(62,332,cs,{
"Letterink-NibData" = {
AngleInDegrees = 180;
};
}),
(62,131,o),
(179,-15,o),
(387,-15,cs,{
"Letterink-NibData" = {
AngleInDegrees = 90;
};
})
);
},
{
closed = 1;
nodes = (
(675,303,l),
(675,343,l,{
"Letterink-NibData" = {
AngleInDegrees = 270;
};
}),
(384,343,l,{
"Letterink-NibData" = {
AngleInDegrees = 180;
};
}),
(384,303,l,{
"Letterink-NibData" = {
AngleInDegrees = 90;
};
})
);
}
);
width = 730;
},
{
anchors = (
{
name = bottom;
pos = (388,-28);
},
{
name = top;
pos = (403,684);
}
);
associatedMasterId = "873CAA12-270D-4223-A88E-AE8E101FDBE8";
layerId = "CCC80A6F-3C96-44BD-ACCE-4C0B144EABD0";
name = "3 Jan 22, 15:47";
shapes = (
{
closed = 1;
nodes = (
(542,-11,o),
(677,103,o),
(677,276,cs),
(677,352,l,{
"Letterink-NibData" = {
AngleInDegrees = 270;
};
}),
(620,352,l,{
"Letterink-NibData" = {
AngleInDegrees = 180;
};
}),
(620,264,ls,{
"Letterink-NibData" = {
AngleInDegrees = 180;
};
}),
(620,139,o),
(507,45,o),
(391,45,cs,{
"Letterink-NibData" = {
AngleInDegrees = 270;
};
}),
(215,45,o),
(117,160,o),
(117,330,cs),
(117,501,o),
(238,641,o),
(401,641,cs,{
"Letterink-NibData" = {
AngleInDegrees = 90;
};
}),
(470,641,o),
(574,611,o),
(574,545,c,{
"Letterink-NibData" = {
AngleInDegrees = 88.93909;
};
}),
(628,546,l),
(628,642,o),
(509,697,o),
(403,697,cs,{
"Letterink-NibData" = {
AngleInDegrees = 270;
};
}),
(208,697,o),
(57,538,o),
(57,330,cs,{
"Letterink-NibData" = {
AngleInDegrees = 180;
};
}),
(57,127,o),
(180,-11,o),
(387,-11,cs,{
"Letterink-NibData" = {
AngleInDegrees = 90;
};
})
);
},
{
closed = 1;
nodes = (
(677,296,l),
(677,352,l,{
"Letterink-NibData" = {
AngleInDegrees = 270;
};
}),
(377,352,l,{
"Letterink-NibData" = {
AngleInDegrees = 180;
};
}),
(377,296,l,{
"Letterink-NibData" = {
AngleInDegrees = 90;
};
})
);
},
{
attr = {
strokeHeight = 38;
strokeWidth = 42;
};
closed = 0;
nodes = (
(623,537,ls,{
"Letterink-NibData" = {
AngleInDegrees = 356.78451;
};
}),
(618,626,o),
(522,691,o),
(391,684,cs,{
"Letterink-NibData" = {
AngleInDegrees = 267.30572;
};
}),
(221,676,o),
(84,532,o),
(84,330,cs,{
"Letterink-NibData" = {
AngleInDegrees = 180;
};
}),
(84,136,o),
(219,0,o),
(409,0,c,{
"Letterink-NibData" = {
AngleInDegrees = 86.37852;
};
}),
(567,10,o),
(654,127,o),
(654,278,c,{
"Letterink-NibData" = {
AngleInDegrees = 358.36342;
};
}),
(653,313,l,{
"Letterink-NibData" = {
AngleInDegrees = 270.20759;
};
}),
(377,314,l,{
"Letterink-NibData" = {
AngleInDegrees = 270.20759;
};
})
);
}
);
width = 728;
},
{
anchors = (
{
name = bottom;
pos = (388,-22);
},
{
name = top;
pos = (402,679);
}
);
associatedMasterId = "873CAA12-270D-4223-A88E-AE8E101FDBE8";
background = {
shapes = (
{
closed = 0;
nodes = (
(637,522,l,{
"Letterink-NibData" = {
AngleInDegrees = "-45";
MainAxisWidth = "24";
MinorAxisWidth = "-15";
ValidForParentMainAxisWidth = "30";
ValidForParentMinorAxisWidth = "15";
};
"Letterink-NibStyleId" = "8";
}),
(614,604,o),
(527,673,o),
(394,673,cs,{
"Letterink-NibData" = {
AngleInDegrees = "-45";
MainAxisWidth = "24";
MinorAxisWidth = "-15";
ValidForParentMainAxisWidth = "30";
ValidForParentMinorAxisWidth = "15";
};
"Letterink-NibStyleId" = "8";
}),
(222,673,o),
(87,534,o),
(87,336,cs,{
"Letterink-NibData" = {
AngleInDegrees = "-45";
MainAxisWidth = "30";
MinorAxisWidth = "-15";
ValidForParentMainAxisWidth = "30";
ValidForParentMinorAxisWidth = "15";
};
"Letterink-NibStyleId" = "8";
}),
(87,136,o),
(224,9,o),
(398,9,cs,{
"Letterink-NibData" = {
AngleInDegrees = "-45";
MainAxisWidth = "24";
MinorAxisWidth = "-15";
ValidForParentMainAxisWidth = "30";
ValidForParentMinorAxisWidth = "15";
};
"Letterink-NibStyleId" = "8";
}),
(506,9,o),
(597,54,o),
(645,134,c,{
"Letterink-NibData" = {
AngleInDegrees = "-45";
MainAxisWidth = "24";
MinorAxisWidth = "-15";
ValidForParentMainAxisWidth = "30";
ValidForParentMinorAxisWidth = "15";
};
"Letterink-NibStyleId" = "8";
})
);
}
);
};
layerId = "24A7CAA8-9519-4BC9-B6EF-3A301BEBEDC9";
name = "5 Jan 22, 08:22";
shapes = (
{
attr = {
strokeHeight = 54;
strokeWidth = 60;
};
closed = 0;
nodes = (
(619,534,l,{
"Letterink-NibData" = {
AngleInDegrees = 356.74805;
};
}),
(614,622,o),
(520,686,o),
(391,679,cs,{
"Letterink-NibData" = {
AngleInDegrees = 267.27369;
};
}),
(223,671,o),
(88,529,o),
(88,330,cs,{
"Letterink-NibData" = {
AngleInDegrees = 180;
};
}),
(88,139,o),
(221,5,o),
(403,5,c,{
"Letterink-NibData" = {
AngleInDegrees = 86.44582;
};
}),
(564,15,o),
(650,130,o),
(650,279,c,{
"Letterink-NibData" = {
AngleInDegrees = 358.31532;
};
}),
(649,313,l,{
"Letterink-NibData" = {
AngleInDegrees = 270.21065;
};
}),
(377,314,l,{
"Letterink-NibData" = {
AngleInDegrees = 270.21065;
};
})
);
}
);
width = 728;
},
{
anchors = (
{
name = bottom;
pos = (387,0);
},
{
name = top;
pos = (401,684);
}
);
associatedMasterId = "0CAF3BED-C4AC-4024-B3E1-4C69D1EF7EC0";
layerId = "B969E5E4-86DE-47F2-A424-5DC87FFFE71B";
name = "5 Jan 22, 08:26";
shapes = (
{
attr = {
strokeHeight = 74;
strokeWidth = 80;
};
closed = 0;
nodes = (
(618,528,ls,{
"Letterink-NibData" = {
AngleInDegrees = 356.63354;
};
}),
(613,613,o),
(519,675,o),
(391,669,cs,{
"Letterink-NibData" = {
AngleInDegrees = 267.25739;
};
}),
(224,661,o),
(90,523,o),
(90,331,cs,{
"Letterink-NibData" = {
AngleInDegrees = 180;
};
}),
(90,145,o),
(222,15,o),
(403,15,c,{
"Letterink-NibData" = {
AngleInDegrees = 86.42367;
};
}),
(563,25,o),
(648,137,o),
(648,281,c,{
"Letterink-NibData" = {
AngleInDegrees = 358.26429;
};
}),
(647,314,l,{
"Letterink-NibData" = {
AngleInDegrees = 270.21221;
};
}),
(377,315,l,{
"Letterink-NibData" = {
AngleInDegrees = 270.21221;
};
})
);
}
);
width = 730;
},
{
anchors = (
{
name = bottom;
pos = (387,-27);
},
{
name = top;
pos = (387,721);
}
);
associatedMasterId = "49C16FD3-6177-408B-A733-AEB3898BB77C";
background = {
shapes = (
{
closed = 1;
nodes = (
(542,-15,o),
(675,97,o),
(675,285,cs),
(675,343,l),
(633,343,l),
(633,273,ls),
(633,127,o),
(512,25,o),
(391,25,cs),
(209,25,o),
(104,154,o),
(104,331,cs),
(104,508,o),
(231,656,o),
(401,656,cs),
(470,656,o),
(577,625,o),
(584,557,c),
(625,558,l),
(619,647,o),
(507,696,o),
(403,696,cs),
(207,696,o),
(62,537,o),
(62,332,cs),
(62,131,o),
(179,-15,o),
(387,-15,cs)
);
},
{
closed = 1;
nodes = (
(675,303,l),
(675,343,l),
(384,343,l),
(384,303,l)
);
}
);
};
layerId = "AFEECE5E-BFEE-4508-863A-E5AFB845FDE7";
name = "5 Jan 22, 08:33";
shapes = (
{
attr = {
strokeHeight = 38;
strokeWidth = 42;
};
closed = 0;
nodes = (
(623,537,ls,{
"Letterink-NibData" = {
AngleInDegrees = 356.78451;
};
}),
(618,626,o),
(522,691,o),
(391,684,cs,{
"Letterink-NibData" = {
AngleInDegrees = 267.30572;
};
}),
(221,676,o),
(84,532,o),
(84,330,cs,{
"Letterink-NibData" = {
AngleInDegrees = 180;
};
}),
(84,136,o),
(219,0,o),
(409,0,c,{
"Letterink-NibData" = {
AngleInDegrees = 86.37852;
};
}),
(567,10,o),
(654,127,o),
(654,278,c,{
"Letterink-NibData" = {
AngleInDegrees = 358.36342;
};
}),
(653,313,l,{
"Letterink-NibData" = {
AngleInDegrees = 270.20759;
};
}),
(377,314,l,{
"Letterink-NibData" = {
AngleInDegrees = 270.20759;
};
})
);
}
);
width = 730;
}
);
metricLeft = O;
metricRight = O;
userData = {
position = 593;
width = 57;
};
},
{
glyphname = G.swsh;
kernLeft = O;
kernRight = j;
layers = (
{
anchors = (
{
name = bottom;
pos = (391,0);
},
{
name = top;
pos = (400,696);
}
);
layerId = "873CAA12-270D-4223-A88E-AE8E101FDBE8";
shapes = (
{
ref = G;
},
{
closed = 1;
nodes = (
(436,-200,l),
(459,-245,o),
(503,-274,o),
(551,-274,cs),
(620,-274,o),
(682,-226,o),
(682,-128,cs),
(682,331,l),
(622,331,l),
(622,-128,ls),
(622,-184,o),
(594,-220,o),
(551,-220,cs),
(525,-220,o),
(499,-205,o),
(484,-176,c)
);
}
);
width = 718;
},
{
anchors = (
{
name = bottom;
pos = (391,0);
},
{
name = top;
pos = (400,696);
}
);
layerId = "0CAF3BED-C4AC-4024-B3E1-4C69D1EF7EC0";
shapes = (
{
ref = G;
},
{
closed = 1;
nodes = (
(415,-187,l),
(439,-235,o),
(486,-266,o),
(538,-266,cs),
(610,-266,o),
(678,-216,o),
(678,-110,cs),
(678,342,l),
(599,342,l),
(599,-110,ls),
(599,-156,o),
(578,-190,o),
(538,-190,cs),
(518,-190,o),
(495,-177,o),
(483,-153,c)
);
}
);
width = 706;
},
{
anchors = (
{
name = bottom;
pos = (392,-35);
},
{
name = top;
pos = (402,683);
}
);
layerId = "49C16FD3-6177-408B-A733-AEB3898BB77C";
shapes = (
{
ref = G;
},
{
closed = 1;
nodes = (
(440,-208,l),
(463,-251,o),
(505,-278,o),
(551,-278,cs),
(615,-278,o),
(674,-232,o),
(674,-137,cs),
(674,328,l),
(632,328,l),
(632,-137,ls),
(632,-198,o),
(599,-236,o),
(551,-236,cs),
(521,-236,o),
(493,-219,o),
(478,-188,c)
);
}
);
width = 719;
},
{
anchors = (
{
name = bottom;
pos = (393,0);
},
{
name = top;
pos = (402,684);
}
);
associatedMasterId = "49C16FD3-6177-408B-A733-AEB3898BB77C";
layerId = "99324C05-2E3B-491C-BB33-A281431388C0";
name = "3 Jan 22, 15:43";
shapes = (
{
closed = 1;
nodes = (
(632,-275,o),
(677,-247,o),
(677,-188,cs),
(677,296,l,{
"Letterink-NibData" = {
AngleInDegrees = 270;
};
}),
(635,296,l,{
"Letterink-NibData" = {
AngleInDegrees = 180;
};
}),
(635,231,l,{
"Letterink-NibData" = {
AngleInDegrees = 189.05072;
};
}),
(617,118,o),
(524,19,o),
(389,19,cs,{
"Letterink-NibData" = {
AngleInDegrees = 270;
};
}),
(229,19,o),
(103,157,o),
(103,331,cs),
(103,504,o),
(226,661,o),
(399,661,cs,{
"Letterink-NibData" = {
AngleInDegrees = 90;
};
}),
(467,661,o),
(588,637,o),
(588,563,cs,{
"Letterink-NibData" = {
AngleInDegrees = 180;
};
}),
(588,537,o),
(571,514,o),
(548,514,cs,{
"Letterink-NibData" = {
AngleInDegrees = 270;
};
}),
(542,514,o),
(535,516,o),
(528,519,c,{
"Letterink-NibData" = {
AngleInDegrees = 218.23383;
};
}),
(502,486,l,{
"Letterink-NibData" = {
AngleInDegrees = 122.73523;
};
}),
(516,477,o),
(531,473,o),
(547,473,cs,{
"Letterink-NibData" = {
AngleInDegrees = 90;
};
}),
(595,473,o),
(629,509,o),
(629,562,cs),
(629,670,o),
(485,701,o),
(402,701,cs,{
"Letterink-NibData" = {
AngleInDegrees = 270;
};
}),
(204,701,o),
(61,530,o),
(61,333,cs,{
"Letterink-NibData" = {
AngleInDegrees = 180;
};
}),
(61,137,o),
(202,-21,o),
(385,-21,cs,{
"Letterink-NibData" = {
AngleInDegrees = 90;
};
}),
(490,-21,o),
(597,31,o),
(635,124,c,{
"Letterink-NibData" = {
AngleInDegrees = 180;
};
}),
(635,-188,l,{
"Letterink-NibData" = {
AngleInDegrees = 186.00901;
};
}),
(633,-207,o),
(619,-229,o),
(592,-229,cs,{
"Letterink-NibData" = {
AngleInDegrees = 270;
};
}),
(579,-229,o),
(569,-224,o),
(562,-217,c,{
"Letterink-NibData" = {
AngleInDegrees = 236.65929;
};
}),
(524,-242,l,{
"Letterink-NibData" = {
AngleInDegrees = 142.69605;
};
}),
(540,-263,o),
(563,-275,o),
(591,-275,cs,{
"Letterink-NibData" = {
AngleInDegrees = 90;
};
})
);
}
);
width = 745;
},
{
anchors = (
{
name = bottom;
pos = (391,0);
},
{
name = top;
pos = (400,696);
}
);
associatedMasterId = "873CAA12-270D-4223-A88E-AE8E101FDBE8";
layerId = "431AC455-96C8-400E-BD31-9019305891A8";
name = "3 Jan 22, 15:47";
shapes = (
{
closed = 1;
nodes = (
(629,-263,o),
(680,-231,o),
(680,-168,cs),
(680,315,l,{
"Letterink-NibData" = {
AngleInDegrees = 270;
};
}),
(620,315,l,{
"Letterink-NibData" = {
AngleInDegrees = 180;
};
}),
(620,234,l,{
"Letterink-NibData" = {
AngleInDegrees = 188.50458;
};
}),
(604,127,o),
(516,40,o),
(391,40,cs,{
"Letterink-NibData" = {
AngleInDegrees = 270;
};
}),
(235,40,o),
(116,173,o),
(116,341,cs),
(116,506,o),
(231,645,o),
(398,645,cs,{
"Letterink-NibData" = {
AngleInDegrees = 90;
};
}),
(464,645,o),
(574,623,o),
(574,558,cs,{
"Letterink-NibData" = {
AngleInDegrees = 180;
};
}),
(574,536,o),
(561,519,o),
(543,519,cs,{
"Letterink-NibData" = {
AngleInDegrees = 270;
};
}),
(537,519,o),
(530,521,o),
(522,527,c,{
"Letterink-NibData" = {
AngleInDegrees = 218.81139;
};
}),
(485,481,l,{
"Letterink-NibData" = {
AngleInDegrees = 127.40536;
};
}),
(502,468,o),
(522,461,o),
(542,461,cs,{
"Letterink-NibData" = {
AngleInDegrees = 90;
};
}),
(594,461,o),
(632,502,o),
(632,558,cs),
(632,669,o),
(484,701,o),
(397,701,cs,{
"Letterink-NibData" = {
AngleInDegrees = 270;
};
}),
(203,701,o),
(56,543,o),
(56,341,cs,{
"Letterink-NibData" = {
AngleInDegrees = 180;
};
}),
(56,143,o),
(198,-16,o),
(387,-16,cs,{
"Letterink-NibData" = {
AngleInDegrees = 90;
};
}),
(488,-16,o),
(574,29,o),
(620,106,c,{
"Letterink-NibData" = {
AngleInDegrees = 180;
};
}),
(620,-168,l,{
"Letterink-NibData" = {
AngleInDegrees = 180;
};
}),
(620,-185,o),
(608,-201,o),
(586,-201,cs,{
"Letterink-NibData" = {
AngleInDegrees = 270;
};
}),
(573,-201,o),
(564,-195,o),
(559,-185,c,{
"Letterink-NibData" = {
AngleInDegrees = 236.82149;
};
}),
(507,-219,l,{
"Letterink-NibData" = {
AngleInDegrees = 147.80427;
};
}),
(524,-246,o),
(553,-263,o),
(585,-263,cs,{
"Letterink-NibData" = {
AngleInDegrees = 90;
};
})
);
}
);
width = 746;
},
{
anchors = (
{
name = bottom;
pos = (392,-35);
},
{
name = top;
pos = (402,683);
}
);
associatedMasterId = "49C16FD3-6177-408B-A733-AEB3898BB77C";
layerId = "993784D9-67C7-4A50-9317-88BF6374F3F5";
name = "5 Jan 22, 08:42";
shapes = (
{
closed = 1;
nodes = (
(632,-188,l,{
"Letterink-NibData" = {
AngleInDegrees = 186.00901;
};
}),
(630,-207,o),
(616,-229,o),
(589,-229,cs,{
"Letterink-NibData" = {
AngleInDegrees = 270;
};
}),
(576,-229,o),
(566,-224,o),
(559,-217,c,{
"Letterink-NibData" = {
AngleInDegrees = 236.65929;
};
}),
(521,-242,l,{
"Letterink-NibData" = {
AngleInDegrees = 142.69605;
};
}),
(537,-263,o),
(560,-275,o),
(588,-275,cs,{
"Letterink-NibData" = {
AngleInDegrees = 90;
};
}),
(629,-275,o),
(674,-247,o),
(674,-188,cs),
(674,296,l,{
"Letterink-NibData" = {
AngleInDegrees = 270;
};
}),
(632,296,l,{
"Letterink-NibData" = {
AngleInDegrees = 180;
};
})
);
},
{
ref = G;
}
);
width = 745;
},
{
anchors = (
{
name = bottom;
pos = (392,-35);
},
{
name = top;
pos = (402,683);
}
);
associatedMasterId = "49C16FD3-6177-408B-A733-AEB3898BB77C";
hints = (
{
name = _corner.caps_swash;
options = 1;
origin = (0,2);
scale = (-1,1);
type = Corner;
}
);
layerId = "A1B0A753-5F1E-49B0-BC7C-F65043380999";
name = "5 Jan 22, 08:46";
shapes = (
{
closed = 1;
nodes = (
(651,330,l,{
"Letterink-NibData" = {
AngleInDegrees = 270;
};
}),
(651,-154,l),
(693,-154,l,{
"Letterink-NibData" = {
AngleInDegrees = 186.00901;
};
}),
(693,330,l,{
"Letterink-NibData" = {
AngleInDegrees = 180;
};
})
);
},
{
ref = G;
},
{
closed = 0;
nodes = (
(344,-192,l),
(363,-228,o),
(402,-253,o),
(446,-253,cs),
(509,-253,o),
(561,-202,o),
(561,-139,cs),
(561,-139,o),
(561,-139,o),
(561,-138,cs),
(561,308,l)
);
}
);
width = 745;
},
{
anchors = (
{
name = bottom;
pos = (391,0);
},
{
name = top;
pos = (400,696);
}
);
associatedMasterId = "873CAA12-270D-4223-A88E-AE8E101FDBE8";
layerId = "E73BAE60-7EDE-44ED-9E8E-025C0EC812FB";
name = "5 Jan 22, 08:49";
shapes = (
{
closed = 1;
nodes = (
(620,-168,l,{
"Letterink-NibData" = {
AngleInDegrees = 180;
};
}),
(620,-185,o),
(608,-201,o),
(586,-201,cs,{
"Letterink-NibData" = {
AngleInDegrees = 270;
};
}),
(573,-201,o),
(564,-195,o),
(559,-185,c,{
"Letterink-NibData" = {
AngleInDegrees = 236.82149;
};
}),
(507,-219,l,{
"Letterink-NibData" = {
AngleInDegrees = 147.80427;
};
}),
(524,-246,o),
(553,-263,o),
(585,-263,cs,{
"Letterink-NibData" = {
AngleInDegrees = 90;
};
}),
(629,-263,o),
(680,-231,o),
(680,-168,cs),
(680,315,l,{
"Letterink-NibData" = {
AngleInDegrees = 270;
};
}),
(620,315,l,{
"Letterink-NibData" = {
AngleInDegrees = 180;
};
})
);
},
{
attr = {
strokeHeight = 54;
strokeWidth = 60;
};
closed = 0;
nodes = (
(516,482,l,{
"Letterink-NibData" = {
AngleInDegrees = 116.56505;
};
}),
(526,477,o),
(534,475,o),
(544,475,cs,{
"Letterink-NibData" = {
AngleInDegrees = 90;
};
}),
(588,475,o),
(609,516,o),
(609,553,cs),
(609,626,o),
(520,685,o),
(391,678,cs,{
"Letterink-NibData" = {
AngleInDegrees = 267.27369;
};
}),
(223,670,o),
(88,527,o),
(88,334,cs,{
"Letterink-NibData" = {
AngleInDegrees = 180;
};
}),
(88,138,o),
(226,-7,o),
(408,5,cs,{
"Letterink-NibData" = {
AngleInDegrees = 86.33221;
};
}),
(564,15,o),
(650,130,o),
(650,279,c,{
"Letterink-NibData" = {
AngleInDegrees = 358.31532;
};
}),
(649,313,l,{
"Letterink-NibData" = {
AngleInDegrees = 270.21065;
};
}),
(377,314,l,{
"Letterink-NibData" = {
AngleInDegrees = 270.21065;
};
})
);
}
);
width = 746;
},
{
anchors = (
{
name = bottom;
pos = (393,-16);
},
{
name = top;
pos = (396,689);
}
);
associatedMasterId = "0CAF3BED-C4AC-4024-B3E1-4C69D1EF7EC0";
layerId = "14C1AB9A-2353-4380-971D-F4E2C0A0EA14";
name = "5 Jan 22, 08:50";
shapes = (
{
closed = 1;
nodes = (
(605,-161,l,{
"Letterink-NibData" = {
AngleInDegrees = 180;
};
}),
(605,-174,o),
(595,-183,o),
(582,-183,cs,{
"Letterink-NibData" = {
AngleInDegrees = 270;
};
}),
(569,-183,o),
(563,-178,o),
(556,-165,c,{
"Letterink-NibData" = {
AngleInDegrees = 235.68491;
};
}),
(493,-208,l,{
"Letterink-NibData" = {
AngleInDegrees = 154.88516;
};
}),
(508,-240,o),
(544,-263,o),
(581,-263,cs,{
"Letterink-NibData" = {
AngleInDegrees = 90;
};
}),
(626,-263,o),
(685,-228,o),
(685,-162,cs),
(685,317,l,{
"Letterink-NibData" = {
AngleInDegrees = 270;
};
}),
(605,317,l,{
"Letterink-NibData" = {
AngleInDegrees = 180;
};
})
);
},
{
attr = {
strokeHeight = 74;
strokeWidth = 80;
};
closed = 0;
nodes = (
(515,478,l,{
"Letterink-NibData" = {
AngleInDegrees = 116.56505;
};
}),
(525,473,o),
(534,471,o),
(543,471,cs,{
"Letterink-NibData" = {
AngleInDegrees = 90;
};
}),
(587,471,o),
(608,511,o),
(608,546,cs),
(608,617,o),
(519,674,o),
(391,668,cs,{
"Letterink-NibData" = {
AngleInDegrees = 267.25739;
};
}),
(224,660,o),
(90,522,o),
(90,334,cs,{
"Letterink-NibData" = {
AngleInDegrees = 180;
};
}),
(90,144,o),
(227,4,o),
(408,15,cs,{
"Letterink-NibData" = {
AngleInDegrees = 86.30861;
};
}),
(563,25,o),
(648,137,o),
(648,281,c,{
"Letterink-NibData" = {
AngleInDegrees = 358.26429;
};
}),
(647,314,l,{
"Letterink-NibData" = {
AngleInDegrees = 270.21221;
};
}),
(377,315,l,{
"Letterink-NibData" = {
AngleInDegrees = 270.21221;
};
})
);
}
);
width = 749;
}
);
metricLeft = O;
metricRight = G;
userData = {
position = 593;
width = 57;
};
},
{
glyphname = H;
kernLeft = E;
layers = (
{
anchors = (
{
name = bottom;
pos = (389,0);
},
{
name = center;
pos = (428,500);
},
{
name = top;
pos = (418,684);
},
{
name = topleft;
pos = (56,684);
}
);
hints = (
{
name = _corner.caps_vert;
origin = (0,9);
type = Corner;
}
);
layerId = "873CAA12-270D-4223-A88E-AE8E101FDBE8";
shapes = (
{
closed = 1;
nodes = (
(215,0,l),
(215,328,l,{
"Letterink-NibData" = {
AngleInDegrees = 90;
};
}),
(605,328,l,{
"Letterink-NibData" = {
AngleInDegrees = 180;
};
}),
(605,0,l,{
"Letterink-NibData" = {
AngleInDegrees = 90;
};
}),
(665,0,l),
(665,684,l,{
"Letterink-NibData" = {
AngleInDegrees = 270;
};
}),
(605,684,l,{
"Letterink-NibData" = {
AngleInDegrees = 180;
};
}),
(605,384,l,{
"Letterink-NibData" = {
AngleInDegrees = 270;
};
}),
(215,384,l),
(215,569,l,{
"Letterink-NibData" = {
AngleInDegrees = 270;
};
}),
(155,569,l,{
"Letterink-NibData" = {
AngleInDegrees = 180;
};
}),
(155,0,l,{
"Letterink-NibData" = {
AngleInDegrees = 90;
};
})
);
}
);
width = 745;
},
{
anchors = (
{
name = bottom;
pos = (395,0);
},
{
name = center;
pos = (418,500);
},
{
name = top;
pos = (425,675);
},
{
name = topleft;
pos = (58,684);
}
);
hints = (
{
name = _corner.caps_vert;
origin = (0,9);
type = Corner;
}
);
layerId = "0CAF3BED-C4AC-4024-B3E1-4C69D1EF7EC0";
shapes = (
{
closed = 1;
nodes = (
(234,-1,l),
(234,319,l,{
"Letterink-NibData" = {
AngleInDegrees = 90;
};
}),
(599,319,l,{
"Letterink-NibData" = {
AngleInDegrees = 180;
};
}),
(599,-1,l,{
"Letterink-NibData" = {
AngleInDegrees = 90;
};
}),
(681,-1,l),
(681,686,l,{
"Letterink-NibData" = {
AngleInDegrees = 270;
};
}),
(599,686,l,{
"Letterink-NibData" = {
AngleInDegrees = 180;
};
}),
(599,395,l,{
"Letterink-NibData" = {
AngleInDegrees = 270;
};
}),
(234,395,l),
(234,559,l,{
"Letterink-NibData" = {
AngleInDegrees = 269.30131;
};
}),
(152,558,l,{
"Letterink-NibData" = {
AngleInDegrees = 180;
};
}),
(152,-1,l,{
"Letterink-NibData" = {
AngleInDegrees = 90;
};
})
);
}
);
width = 756;
},
{
anchors = (
{
name = bottom;
pos = (410,0);
},
{
name = center;
pos = (413,491);
},
{
name = top;
pos = (410,684);
},
{
name = topleft;
pos = (80,684);
}
);
hints = (
{
name = _corner.caps_vert;
origin = (0,9);
type = Corner;
}
);
layerId = "49C16FD3-6177-408B-A733-AEB3898BB77C";
shapes = (
{
closed = 1;
nodes = (
(209,1,l),
(209,338,l,{
"Letterink-NibData" = {
AngleInDegrees = 90;
};
}),
(614,338,l,{
"Letterink-NibData" = {
AngleInDegrees = 180;
};
}),
(614,1,l,{
"Letterink-NibData" = {
AngleInDegrees = 90;
};
}),
(656,1,l),
(656,685,l,{
"Letterink-NibData" = {
AngleInDegrees = 270;
};
}),
(614,685,l,{
"Letterink-NibData" = {
AngleInDegrees = 180;
};
}),
(614,378,l,{
"Letterink-NibData" = {
AngleInDegrees = 270;
};
}),
(209,378,l),
(209,569,l,{
"Letterink-NibData" = {
AngleInDegrees = 270;
};
}),
(167,569,l,{
"Letterink-NibData" = {
AngleInDegrees = 180;
};
}),
(167,1,l,{
"Letterink-NibData" = {
AngleInDegrees = 90;
};
})
);
}
);
width = 736;
}
);
unicode = 72;
userData = {
position = 554;
width = 61;
};
},
{
glyphname = H.ss01;
layers = (
{
anchors = (
{
name = bottom;
pos = (325,0);
},
{
name = center;
pos = (340,513);
},
{
name = top;
pos = (330,684);
},
{
name = topleft;
pos = (13,684);
}
);
layerId = "873CAA12-270D-4223-A88E-AE8E101FDBE8";
shapes = (
{
closed = 1;
nodes = (
(140,0,l),
(140,328,l,{
"Letterink-NibData" = {
AngleInDegrees = 90;
};
}),
(519,328,l,{
"Letterink-NibData" = {
AngleInDegrees = 180;
};
}),
(519,0,l,{
"Letterink-NibData" = {
AngleInDegrees = 90;
};
}),
(579,0,l),
(579,684,l,{
"Letterink-NibData" = {
AngleInDegrees = 270;
};
}),
(519,684,l,{
"Letterink-NibData" = {
AngleInDegrees = 180;
};
}),
(519,384,l,{
"Letterink-NibData" = {
AngleInDegrees = 270;
};
}),
(140,384,l),
(140,684,l,{
"Letterink-NibData" = {
AngleInDegrees = 270;
};
}),
(80,684,l,{
"Letterink-NibData" = {
AngleInDegrees = 180;
};
}),
(80,0,l,{
"Letterink-NibData" = {
AngleInDegrees = 90;
};
})
);
}
);
width = 659;
},
{
anchors = (
{
name = bottom;
pos = (335,0);
},
{
name = center;
pos = (324,512);
},
{
name = top;
pos = (322,684);
},
{
name = topleft;
pos = (15,684);
}
);
layerId = "0CAF3BED-C4AC-4024-B3E1-4C69D1EF7EC0";
shapes = (
{
closed = 1;
nodes = (
(157,-1,l),
(157,317,l,{
"Letterink-NibData" = {
AngleInDegrees = 90;
};
}),
(502,317,l,{
"Letterink-NibData" = {
AngleInDegrees = 180;
};
}),
(502,-1,l,{
"Letterink-NibData" = {
AngleInDegrees = 90;
};
}),
(584,-1,l),
(584,686,l,{
"Letterink-NibData" = {
AngleInDegrees = 270;
};
}),
(502,686,l,{
"Letterink-NibData" = {
AngleInDegrees = 180;
};
}),
(502,395,l,{
"Letterink-NibData" = {
AngleInDegrees = 270;
};
}),
(157,395,l),
(157,686,l,{
"Letterink-NibData" = {
AngleInDegrees = 270;
};
}),
(75,686,l,{
"Letterink-NibData" = {
AngleInDegrees = 180;
};
}),
(75,-1,l,{
"Letterink-NibData" = {
AngleInDegrees = 90;
};
})
);
}
);
width = 659;
},
{
anchors = (
{
name = bottom;
pos = (328,0);
},
{
name = center;
pos = (331,500);
},
{
name = top;
pos = (329,684);
},
{
name = topleft;
pos = (18,684);
}
);
layerId = "49C16FD3-6177-408B-A733-AEB3898BB77C";
shapes = (
{
closed = 1;
nodes = (
(122,1,l),
(122,338,l,{
"Letterink-NibData" = {
AngleInDegrees = 90;
};
}),
(538,338,l,{
"Letterink-NibData" = {
AngleInDegrees = 180;
};
}),
(538,1,l,{
"Letterink-NibData" = {
AngleInDegrees = 90;
};
}),
(580,1,l),
(580,685,l,{
"Letterink-NibData" = {
AngleInDegrees = 270;
};
}),
(538,685,l,{
"Letterink-NibData" = {
AngleInDegrees = 180;
};
}),
(538,378,l,{
"Letterink-NibData" = {
AngleInDegrees = 270;
};
}),
(122,378,l),
(122,685,l,{
"Letterink-NibData" = {
AngleInDegrees = 270;
};
}),
(80,685,l,{
"Letterink-NibData" = {
AngleInDegrees = 180;
};
}),
(80,1,l,{
"Letterink-NibData" = {
AngleInDegrees = 90;
};
})
);
}
);
width = 660;
}
);
metricLeft = "=|H";
metricRight = H;
userData = {
position = 525;
width = 61;
};
},
{
glyphname = H.swsh;
kernLeft = Swash;
layers = (
{
anchors = (
{
name = bottom;
pos = (399,0);
},
{
name = center;
pos = (430,355);
},
{
name = top;
pos = (428,684);
},
{
name = topleft;
pos = (66,684);
},
{
name = topswash;
pos = (236,500);
}
);
hints = (
{
name = _corner.caps_swash_vert;
origin = (0,9);
type = Corner;
}
);
layerId = "873CAA12-270D-4223-A88E-AE8E101FDBE8";
shapes = (
{
closed = 1;
nodes = (
(230,0,l),
(230,328,l,{
"Letterink-NibData" = {
AngleInDegrees = 90;
};
}),
(609,328,l,{
"Letterink-NibData" = {
AngleInDegrees = 180;
};
}),
(609,0,l,{
"Letterink-NibData" = {
AngleInDegrees = 90;
};
}),
(669,0,l),
(669,684,l,{
"Letterink-NibData" = {
AngleInDegrees = 270;
};
}),
(609,684,l,{
"Letterink-NibData" = {
AngleInDegrees = 180;
};
}),
(609,384,l,{
"Letterink-NibData" = {
AngleInDegrees = 270;
};
}),
(230,384,l),
(230,569,l,{
"Letterink-NibData" = {
AngleInDegrees = 270;
};
}),
(170,569,l,{
"Letterink-NibData" = {
AngleInDegrees = 180;
};
}),
(170,0,l,{
"Letterink-NibData" = {
AngleInDegrees = 90;
};
})
);
}
);
width = 749;
},
{
anchors = (
{
name = bottom;
pos = (394,0);
},
{
name = center;
pos = (417,355);
},
{
name = top;
pos = (424,675);
},
{
name = topleft;
pos = (57,684);
},
{
name = topswash;
pos = (246,500);
}
);
hints = (
{
name = _corner.caps_swash_vert;
origin = (0,9);
type = Corner;
}
);
layerId = "0CAF3BED-C4AC-4024-B3E1-4C69D1EF7EC0";
shapes = (
{
closed = 1;
nodes = (
(243,-1,l),
(243,317,l,{
"Letterink-NibData" = {
AngleInDegrees = 90;
};
}),
(588,317,l,{
"Letterink-NibData" = {
AngleInDegrees = 180;
};
}),
(588,-1,l,{
"Letterink-NibData" = {
AngleInDegrees = 90;
};
}),
(670,-1,l),
(670,686,l,{
"Letterink-NibData" = {
AngleInDegrees = 270;
};
}),
(588,686,l,{
"Letterink-NibData" = {
AngleInDegrees = 180;
};
}),
(588,395,l,{
"Letterink-NibData" = {
AngleInDegrees = 270;
};
}),
(243,395,l),
(243,559,l,{
"Letterink-NibData" = {
AngleInDegrees = 270;
};
}),
(161,559,l,{
"Letterink-NibData" = {
AngleInDegrees = 180;
};
}),
(161,-1,l,{
"Letterink-NibData" = {
AngleInDegrees = 90;
};
})
);
}
);
width = 745;
},
{
anchors = (
{
name = bottom;
pos = (415,0);
},
{
name = center;
pos = (438,356);
},
{
name = top;
pos = (435,694);
},
{
name = topleft;
pos = (95,684);
},
{
name = topswash;
pos = (229,500);
}
);
hints = (
{
name = _corner.caps_swash_vert;
origin = (0,9);
type = Corner;
}
);
layerId = "49C16FD3-6177-408B-A733-AEB3898BB77C";
shapes = (
{
closed = 1;
nodes = (
(229,1,l),
(229,338,l,{
"Letterink-NibData" = {
AngleInDegrees = 90;
};
}),
(634,338,l,{
"Letterink-NibData" = {
AngleInDegrees = 180;
};
}),
(634,1,l,{
"Letterink-NibData" = {
AngleInDegrees = 90;
};
}),
(676,1,l),
(676,685,l,{
"Letterink-NibData" = {
AngleInDegrees = 270;
};
}),
(634,685,l,{
"Letterink-NibData" = {
AngleInDegrees = 180;
};
}),
(634,378,l,{
"Letterink-NibData" = {
AngleInDegrees = 270;
};
}),
(229,378,l),
(229,569,l,{
"Letterink-NibData" = {
AngleInDegrees = 270;
};
}),
(187,569,l,{
"Letterink-NibData" = {
AngleInDegrees = 180;
};
}),
(187,1,l,{
"Letterink-NibData" = {
AngleInDegrees = 90;
};
})
);
}
);
width = 756;
}
);
metricRight = H;
userData = {
position = 554;
width = 61;
};
},
{
glyphname = I;
layers = (
{
anchors = (
{
name = bottom;
pos = (111,-1);
},
{
name = center;
pos = (113,386);
},
{
name = ogonek;
pos = (141,0);
},
{
name = top;
pos = (108,674);
},
{
name = topleft;
pos = (14,684);
}
);
layerId = "873CAA12-270D-4223-A88E-AE8E101FDBE8";
shapes = (
{
closed = 1;
nodes = (
(141,0,l),
(141,684,l,{
"Letterink-NibData" = {
AngleInDegrees = 270;
};
}),
(80,684,l,{
"Letterink-NibData" = {
AngleInDegrees = 180;
};
}),
(80,0,l,{
"Letterink-NibData" = {
AngleInDegrees = 90;
};
})
);
}
);
width = 221;
},
{
anchors = (
{
name = bottom;
pos = (116,0);
},
{
name = center;
pos = (115,386);
},
{
name = ogonek;
pos = (157,-1);
},
{
name = top;
pos = (114,675);
},
{
name = topleft;
pos = (9,684);
}
);
layerId = "0CAF3BED-C4AC-4024-B3E1-4C69D1EF7EC0";
shapes = (
{
closed = 1;
nodes = (
(157,-1,l),
(157,686,l,{
"Letterink-NibData" = {
AngleInDegrees = 270;
};
}),
(75,686,l,{
"Letterink-NibData" = {
AngleInDegrees = 180;
};
}),
(75,-1,l,{
"Letterink-NibData" = {
AngleInDegrees = 90;
};
})
);
}
);
width = 232;
},
{
anchors = (
{
name = bottom;
pos = (103,0);
},
{
name = center;
pos = (102,386);
},
{
name = ogonek;
pos = (125,1);
},
{
name = top;
pos = (100,686);
},
{
name = topleft;
pos = (14,684);
}
);
layerId = "49C16FD3-6177-408B-A733-AEB3898BB77C";
shapes = (
{
closed = 1;
nodes = (
(125,1,l),
(125,685,l,{
"Letterink-NibData" = {
AngleInDegrees = 270;
};
}),
(80,685,l,{
"Letterink-NibData" = {
AngleInDegrees = 180;
};
}),
(80,1,l,{
"Letterink-NibData" = {
AngleInDegrees = 90;
};
})
);
}
);
width = 205;
}
);
metricLeft = "=|H";
metricRight = H;
unicode = 73;
userData = {
position = 54;
width = 61;
};
},
{
glyphname = I.swsh;
kernLeft = Swash;
layers = (
{
anchors = (
{
name = bottom;
pos = (201,-1);
},
{
name = center;
pos = (203,386);
},
{
name = ogonek;
pos = (231,0);
},
{
name = top;
pos = (198,684);
},
{
name = topleft;
pos = (104,684);
}
);
hints = (
{
name = _corner.caps_swash;
origin = (1,3);
type = Corner;
}
);
layerId = "873CAA12-270D-4223-A88E-AE8E101FDBE8";
shapes = (
{
closed = 1;
nodes = (
(230,0,l),
(230,684,l,{
"Letterink-NibData" = {
AngleInDegrees = 270;
};
}),
(170,684,l,{
"Letterink-NibData" = {
AngleInDegrees = 180;
};
}),
(170,0,l,{
"Letterink-NibData" = {
AngleInDegrees = 90;
};
})
);
},
{
closed = 1;
nodes = (
(136,628,l),
(179,628,l),
(179,684,l),
(136,684,l)
);
}
);
width = 310;
},
{
anchors = (
{
name = bottom;
pos = (203,0);
},
{
name = center;
pos = (202,386);
},
{
name = ogonek;
pos = (244,-1);
},
{
name = top;
pos = (204,684);
},
{
name = topleft;
pos = (96,684);
}
);
hints = (
{
name = _corner.caps_swash;
origin = (1,3);
type = Corner;
}
);
layerId = "0CAF3BED-C4AC-4024-B3E1-4C69D1EF7EC0";
shapes = (
{
closed = 1;
nodes = (
(244,-1,l),
(244,684,l,{
"Letterink-NibData" = {
AngleInDegrees = 270;
};
}),
(162,684,l,{
"Letterink-NibData" = {
AngleInDegrees = 180;
};
}),
(162,-1,l,{
"Letterink-NibData" = {
AngleInDegrees = 90;
};
})
);
},
{
closed = 1;
nodes = (
(137,608,l),
(202,608,l),
(202,684,l),
(137,684,l)
);
}
);
width = 319;
},
{
anchors = (
{
name = bottom;
pos = (208,0);
},
{
name = center;
pos = (207,386);
},
{
name = ogonek;
pos = (231,1);
},
{
name = top;
pos = (205,684);
},
{
name = topleft;
pos = (117,684);
}
);
hints = (
{
name = _corner.caps_swash;
origin = (1,3);
type = Corner;
}
);
layerId = "49C16FD3-6177-408B-A733-AEB3898BB77C";
shapes = (
{
closed = 1;
nodes = (
(227,1,l),
(227,684,l,{
"Letterink-NibData" = {
AngleInDegrees = 270;
};
}),
(185,684,l,{
"Letterink-NibData" = {
AngleInDegrees = 180;
};
}),
(185,1,l,{
"Letterink-NibData" = {
AngleInDegrees = 90;
};
})
);
},
{
closed = 1;
nodes = (
(140,643,l),
(193,643,l),
(193,683,l),
(140,683,l)
);
}
);
width = 307;
},
{
anchors = (
{
name = bottom;
pos = (179,0);
},
{
name = center;
pos = (178,386);
},
{
name = ogonek;
pos = (202,1);
},
{
name = top;
pos = (176,684);
},
{
name = topleft;
pos = (88,684);
}
);
associatedMasterId = "49C16FD3-6177-408B-A733-AEB3898BB77C";
hints = (
{
name = _corner.caps_swash_vert;
options = 1;
origin = (0,1);
type = Corner;
}
);
layerId = "AE169FFE-AC8B-4E8A-9035-7F809B0493BD";
name = "5 Jan 22, 09:48";
shapes = (
{
closed = 1;
nodes = (
(198,1,l),
(198,576,l,{
"Letterink-NibData" = {
AngleInDegrees = 270;
};
}),
(156,576,l,{
"Letterink-NibData" = {
AngleInDegrees = 180;
};
}),
(156,1,l,{
"Letterink-NibData" = {
AngleInDegrees = 90;
};
})
);
}
);
width = 301;
},
{
anchors = (
{
name = bottom;
pos = (188,-1);
},
{
name = center;
pos = (190,386);
},
{
name = ogonek;
pos = (218,0);
},
{
name = top;
pos = (185,684);
},
{
name = topleft;
pos = (91,684);
}
);
associatedMasterId = "873CAA12-270D-4223-A88E-AE8E101FDBE8";
hints = (
{
name = _corner.caps_swash_vert;
options = 1;
origin = (0,1);
type = Corner;
}
);
layerId = "3371C301-BE15-409D-9B62-CF3BC4452A16";
name = "5 Jan 22, 09:51";
shapes = (
{
closed = 1;
nodes = (
(217,0,l),
(217,569,l,{
"Letterink-NibData" = {
AngleInDegrees = 270;
};
}),
(157,569,l,{
"Letterink-NibData" = {
AngleInDegrees = 180;
};
}),
(157,0,l,{
"Letterink-NibData" = {
AngleInDegrees = 90;
};
})
);
}
);
width = 314;
}
);
metricLeft = H.swsh;
metricRight = I;
userData = {
position = 54;
width = 61;
};
},
{
glyphname = I.swsh.001;
kernLeft = Swash;
layers = (
{
anchors = (
{
name = bottom;
pos = (213,-1);
},
{
name = center;
pos = (215,386);
},
{
name = ogonek;
pos = (243,0);
},
{
name = top;
pos = (210,684);
},
{
name = topleft;
pos = (116,684);
}
);
hints = (
{
name = _corner.caps_swash;
origin = (1,3);
type = Corner;
}
);
layerId = "873CAA12-270D-4223-A88E-AE8E101FDBE8";
shapes = (
{
closed = 1;
nodes = (
(242,0,l),
(242,684,l,{
"Letterink-NibData" = {
AngleInDegrees = 270;
};
}),
(182,684,l,{
"Letterink-NibData" = {
AngleInDegrees = 180;
};
}),
(182,0,l,{
"Letterink-NibData" = {
AngleInDegrees = 90;
};
})
);
},
{
closed = 1;
nodes = (
(143,628,l),
(186,628,l),
(186,684,l),
(143,684,l)
);
}
);
width = 320;
},
{
anchors = (
{
name = bottom;
pos = (211,0);
},
{
name = center;
pos = (210,386);
},
{
name = ogonek;
pos = (252,-1);
},
{
name = top;
pos = (212,684);
},
{
name = topleft;
pos = (104,684);
}
);
hints = (
{
name = _corner.caps_swash;
origin = (1,3);
type = Corner;
}
);
layerId = "0CAF3BED-C4AC-4024-B3E1-4C69D1EF7EC0";
shapes = (
{
closed = 1;
nodes = (
(252,-1,l),
(252,684,l,{
"Letterink-NibData" = {
AngleInDegrees = 270;
};
}),
(170,684,l,{
"Letterink-NibData" = {
AngleInDegrees = 180;
};
}),
(170,-1,l,{
"Letterink-NibData" = {
AngleInDegrees = 90;
};
})
);
},
{
closed = 1;
nodes = (
(145,608,l),
(210,608,l),
(210,684,l),
(145,684,l)
);
}
);
width = 298;
},
{
anchors = (
{
name = bottom;
pos = (200,0);
},
{
name = center;
pos = (199,386);
},
{
name = ogonek;
pos = (223,1);
},
{
name = top;
pos = (197,684);
},
{
name = topleft;
pos = (109,684);
}
);
hints = (
{
name = _corner.caps_swash;
origin = (1,3);
type = Corner;
}
);
layerId = "49C16FD3-6177-408B-A733-AEB3898BB77C";
shapes = (
{
closed = 1;
nodes = (
(219,1,l),
(219,684,l,{
"Letterink-NibData" = {
AngleInDegrees = 270;
};
}),
(177,684,l,{
"Letterink-NibData" = {
AngleInDegrees = 180;
};
}),
(177,1,l,{
"Letterink-NibData" = {
AngleInDegrees = 90;
};
})
);
},
{
closed = 1;
nodes = (
(142,643,l),
(185,643,l),
(185,683,l),
(142,683,l)
);
}
);
width = 298;
},
{
anchors = (
{
name = bottom;
pos = (179,0);
},
{
name = center;
pos = (178,386);
},
{
name = ogonek;
pos = (202,1);
},
{
name = top;
pos = (176,684);
},
{
name = topleft;
pos = (88,684);
}
);
associatedMasterId = "49C16FD3-6177-408B-A733-AEB3898BB77C";
hints = (
{
name = _corner.caps_swash_vert;
options = 1;
origin = (0,1);
type = Corner;
}
);
layerId = "AE169FFE-AC8B-4E8A-9035-7F809B0493BD";
name = "5 Jan 22, 09:48";
shapes = (
{
closed = 1;
nodes = (
(198,1,l),
(198,576,l,{
"Letterink-NibData" = {
AngleInDegrees = 270;
};
}),
(156,576,l,{
"Letterink-NibData" = {
AngleInDegrees = 180;
};
}),
(156,1,l,{
"Letterink-NibData" = {
AngleInDegrees = 90;
};
})
);
}
);
width = 301;
},
{
anchors = (
{
name = bottom;
pos = (188,-1);
},
{
name = center;
pos = (190,386);
},
{
name = ogonek;
pos = (218,0);
},
{
name = top;
pos = (185,684);
},
{
name = topleft;
pos = (91,684);
}
);
associatedMasterId = "873CAA12-270D-4223-A88E-AE8E101FDBE8";
hints = (
{
name = _corner.caps_swash_vert;
options = 1;
origin = (0,1);
type = Corner;
}
);
layerId = "3371C301-BE15-409D-9B62-CF3BC4452A16";
name = "5 Jan 22, 09:51";
shapes = (
{
closed = 1;
nodes = (
(217,0,l),
(217,569,l,{
"Letterink-NibData" = {
AngleInDegrees = 270;
};
}),
(157,569,l,{
"Letterink-NibData" = {
AngleInDegrees = 180;
};
}),
(157,0,l,{
"Letterink-NibData" = {
AngleInDegrees = 90;
};
})
);
}
);
width = 314;
}
);
userData = {
position = 54;
width = 61;
};
},
{
glyphname = J;
kernLeft = J;
kernRight = J;
layers = (
{
anchors = (
{
name = bottom;
pos = (220,0);
},
{
name = top;
pos = (240,682);
}
);
layerId = "873CAA12-270D-4223-A88E-AE8E101FDBE8";
shapes = (
{
closed = 1;
nodes = (
(330,-7,o),
(406,68,o),
(406,188,cs),
(406,687,l,{
"Letterink-NibData" = {
AngleInDegrees = 270;
};
}),
(347,687,l,{
"Letterink-NibData" = {
AngleInDegrees = 180;
};
}),
(347,680,o),
(311,660,o),
(293,660,cs,{
"Letterink-NibData" = {
AngleInDegrees = 270;
};
}),
(247,660,o),
(198,696,o),
(150,696,cs,{
"Letterink-NibData" = {
AngleInDegrees = 270;
};
}),
(124,696,o),
(105,691,o),
(46,667,c,{
"Letterink-NibData" = {
AngleInDegrees = 153.43495;
};
}),
(71,617,l,{
"Letterink-NibData" = {
AngleInDegrees = 66.25051;
};
}),
(96,628,o),
(124,641,o),
(150,641,cs,{
"Letterink-NibData" = {
AngleInDegrees = 90;
};
}),
(194,641,o),
(247,605,o),
(291,605,cs,{
"Letterink-NibData" = {
AngleInDegrees = 90;
};
}),
(310,605,o),
(330,608,o),
(346,618,c,{
"Letterink-NibData" = {
AngleInDegrees = 180;
};
}),
(346,191,ls,{
"Letterink-NibData" = {
AngleInDegrees = 180;
};
}),
(346,104,o),
(295,49,o),
(213,49,cs,{
"Letterink-NibData" = {
AngleInDegrees = 270;
};
}),
(132,49,o),
(81,96,o),
(81,171,c,{
"Letterink-NibData" = {
AngleInDegrees = 275.01311;
};
}),
(24,176,l,{
"Letterink-NibData" = {
AngleInDegrees = 178.71267;
};
}),
(27,64,o),
(98,-7,o),
(210,-7,cs,{
"Letterink-NibData" = {
AngleInDegrees = 90;
};
})
);
}
);
width = 482;
},
{
anchors = (
{
name = bottom;
pos = (225,0);
},
{
name = top;
pos = (225,684);
}
);
layerId = "0CAF3BED-C4AC-4024-B3E1-4C69D1EF7EC0";
shapes = (
{
closed = 1;
nodes = (
(336,-7,o),
(414,70,o),
(414,193,cs),
(414,689,l,{
"Letterink-NibData" = {
AngleInDegrees = 270;
};
}),
(345,689,l,{
"Letterink-NibData" = {
AngleInDegrees = 211.6075;
};
}),
(337,676,o),
(307,663,o),
(287,663,cs,{
"Letterink-NibData" = {
AngleInDegrees = 270;
};
}),
(245,663,o),
(212,698,o),
(162,698,cs,{
"Letterink-NibData" = {
AngleInDegrees = 270;
};
}),
(126,698,o),
(104,692,o),
(37,664,c,{
"Letterink-NibData" = {
AngleInDegrees = 153.09391;
};
}),
(71,597,l,{
"Letterink-NibData" = {
AngleInDegrees = 67.52057;
};
}),
(100,609,o),
(129,620,o),
(154,620,cs,{
"Letterink-NibData" = {
AngleInDegrees = 90;
};
}),
(195,620,o),
(249,587,o),
(282,587,cs,{
"Letterink-NibData" = {
AngleInDegrees = 90;
};
}),
(304,587,o),
(319,589,o),
(332,594,c,{
"Letterink-NibData" = {
AngleInDegrees = 180;
};
}),
(332,196,ls,{
"Letterink-NibData" = {
AngleInDegrees = 180;
};
}),
(332,118,o),
(287,69,o),
(215,69,cs,{
"Letterink-NibData" = {
AngleInDegrees = 270;
};
}),
(139,69,o),
(94,115,o),
(98,188,c,{
"Letterink-NibData" = {
AngleInDegrees = 274.39871;
};
}),
(20,194,l,{
"Letterink-NibData" = {
AngleInDegrees = 181.88819;
};
}),
(16,71,o),
(90,-7,o),
(212,-7,cs,{
"Letterink-NibData" = {
AngleInDegrees = 90;
};
})
);
}
);
width = 485;
},
{
anchors = (
{
name = bottom;
pos = (227,0);
},
{
name = top;
pos = (228,684);
}
);
layerId = "49C16FD3-6177-408B-A733-AEB3898BB77C";
shapes = (
{
closed = 1;
nodes = (
(330,-6,o),
(404,68,o),
(404,185,cs),
(404,688,l,{
"Letterink-NibData" = {
AngleInDegrees = 270;
};
}),
(357,688,l,{
"Letterink-NibData" = {
AngleInDegrees = 209.35776;
};
}),
(348,672,o),
(320,660,o),
(298,660,cs,{
"Letterink-NibData" = {
AngleInDegrees = 270;
};
}),
(257,660,o),
(196,697,o),
(152,697,cs,{
"Letterink-NibData" = {
AngleInDegrees = 270;
};
}),
(126,697,o),
(108,691,o),
(57,672,c,{
"Letterink-NibData" = {
AngleInDegrees = 153.43495;
};
}),
(75,636,l,{
"Letterink-NibData" = {
AngleInDegrees = 70.82099;
};
}),
(98,644,o),
(123,658,o),
(152,658,cs,{
"Letterink-NibData" = {
AngleInDegrees = 90;
};
}),
(212,658,o),
(236,621,o),
(296,621,cs,{
"Letterink-NibData" = {
AngleInDegrees = 90;
};
}),
(317,621,o),
(343,625,o),
(362,644,c,{
"Letterink-NibData" = {
AngleInDegrees = 180;
};
}),
(362,188,ls,{
"Letterink-NibData" = {
AngleInDegrees = 180;
};
}),
(362,93,o),
(306,34,o),
(216,34,cs,{
"Letterink-NibData" = {
AngleInDegrees = 270;
};
}),
(130,34,o),
(75,82,o),
(73,159,c,{
"Letterink-NibData" = {
AngleInDegrees = 275.5722;
};
}),
(32,163,l,{
"Letterink-NibData" = {
AngleInDegrees = 176.71075;
};
}),
(38,59,o),
(108,-6,o),
(213,-6,cs,{
"Letterink-NibData" = {
AngleInDegrees = 90;
};
})
);
}
);
width = 480;
}
);
metricRight = "=H*.95";
unicode = 74;
userData = {
position = 333;
width = 53;
};
},
{
glyphname = J.ss01;
kernLeft = Jtext;
kernRight = J;
layers = (
{
anchors = (
{
name = bottom;
pos = (245,0);
},
{
name = top;
pos = (391,684);
}
);
layerId = "873CAA12-270D-4223-A88E-AE8E101FDBE8";
shapes = (
{
closed = 1;
nodes = (
(350,-7,o),
(426,78,o),
(426,213,cs),
(426,684,l,{
"Letterink-NibData" = {
AngleInDegrees = 270;
};
}),
(364,684,l,{
"Letterink-NibData" = {
AngleInDegrees = 177.91744;
};
}),
(366,629,l,{
"Letterink-NibData" = {
AngleInDegrees = 180;
};
}),
(366,216,ls,{
"Letterink-NibData" = {
AngleInDegrees = 180;
};
}),
(366,114,o),
(315,49,o),
(233,49,cs,{
"Letterink-NibData" = {
AngleInDegrees = 270;
};
}),
(140,49,o),
(81,116,o),
(81,191,c,{
"Letterink-NibData" = {
AngleInDegrees = 275.01311;
};
}),
(24,196,l,{
"Letterink-NibData" = {
AngleInDegrees = 178.71267;
};
}),
(27,84,o),
(106,-7,o),
(230,-7,cs,{
"Letterink-NibData" = {
AngleInDegrees = 90;
};
})
);
}
);
width = 502;
},
{
anchors = (
{
name = bottom;
pos = (265,0);
},
{
name = top;
pos = (411,684);
}
);
layerId = "0CAF3BED-C4AC-4024-B3E1-4C69D1EF7EC0";
shapes = (
{
closed = 1;
nodes = (
(368,-9,o),
(454,78,o),
(454,216,cs),
(454,684,l,{
"Letterink-NibData" = {
AngleInDegrees = 270;
};
}),
(372,684,l,{
"Letterink-NibData" = {
AngleInDegrees = 180;
};
}),
(372,606,l,{
"Letterink-NibData" = {
AngleInDegrees = 180;
};
}),
(372,219,ls,{
"Letterink-NibData" = {
AngleInDegrees = 180;
};
}),
(372,126,o),
(307,67,o),
(235,67,cs,{
"Letterink-NibData" = {
AngleInDegrees = 270;
};
}),
(139,67,o),
(94,121,o),
(98,206,c,{
"Letterink-NibData" = {
AngleInDegrees = 274.39871;
};
}),
(20,212,l,{
"Letterink-NibData" = {
AngleInDegrees = 181.88819;
};
}),
(16,77,o),
(90,-9,o),
(232,-9,cs,{
"Letterink-NibData" = {
AngleInDegrees = 90;
};
})
);
}
);
width = 525;
},
{
anchors = (
{
name = bottom;
pos = (268,0);
},
{
name = top;
pos = (423,684);
}
);
layerId = "49C16FD3-6177-408B-A733-AEB3898BB77C";
shapes = (
{
closed = 1;
nodes = (
(363,-6,o),
(444,78,o),
(444,211,cs),
(444,685,l,{
"Letterink-NibData" = {
AngleInDegrees = 268.5679;
};
}),
(404,684,l,{
"Letterink-NibData" = {
AngleInDegrees = 184.66686;
};
}),
(400,635,l,{
"Letterink-NibData" = {
AngleInDegrees = 179.61024;
};
}),
(403,214,ls,{
"Letterink-NibData" = {
AngleInDegrees = 180;
};
}),
(404,102,o),
(335,34,o),
(234,34,cs,{
"Letterink-NibData" = {
AngleInDegrees = 270;
};
}),
(139,34,o),
(78,91,o),
(76,182,c,{
"Letterink-NibData" = {
AngleInDegrees = 275.19443;
};
}),
(32,186,l,{
"Letterink-NibData" = {
AngleInDegrees = 178.68309;
};
}),
(34,68,o),
(113,-6,o),
(234,-6,cs,{
"Letterink-NibData" = {
AngleInDegrees = 90;
};
})
);
}
);
width = 520;
}
);
metricLeft = J;
metricRight = J;
userData = {
position = 333;
width = 53;
};
},
{
glyphname = J.swsh;
kernLeft = J;
kernRight = J;
layers = (
{
anchors = (
{
name = bottom;
pos = (260,0);
},
{
name = top;
pos = (280,682);
}
);
layerId = "873CAA12-270D-4223-A88E-AE8E101FDBE8";
shapes = (
{
closed = 1;
nodes = (
(362,-7,o),
(446,76,o),
(446,208,cs),
(446,687,l,{
"Letterink-NibData" = {
AngleInDegrees = 270;
};
}),
(387,687,l,{
"Letterink-NibData" = {
AngleInDegrees = 180;
};
}),
(386,211,ls,{
"Letterink-NibData" = {
AngleInDegrees = 180;
};
}),
(386,112,o),
(329,49,o),
(231,49,cs,{
"Letterink-NibData" = {
AngleInDegrees = 270;
};
}),
(141,49,o),
(81,104,o),
(81,191,c,{
"Letterink-NibData" = {
AngleInDegrees = 275.01311;
};
}),
(24,196,l,{
"Letterink-NibData" = {
AngleInDegrees = 178.71267;
};
}),
(27,71,o),
(107,-7,o),
(230,-7,cs,{
"Letterink-NibData" = {
AngleInDegrees = 90;
};
})
);
},
{
closed = 1;
nodes = (
(310,632,o),
(278,704,o),
(171,704,cs),
(64,704,o),
(-4,586,o),
(58,507,cs),
(98,455,o),
(177,457,o),
(206,507,c),
(170,542,l),
(153,519,o),
(123,519,o),
(106,541,cs),
(73,585,o),
(107,648,o),
(171,648,cs),
(236,648,o),
(308,561,o),
(421,646,c),
(387,687,l)
);
}
);
width = 522;
},
{
anchors = (
{
name = bottom;
pos = (265,0);
},
{
name = top;
pos = (265,684);
}
);
layerId = "0CAF3BED-C4AC-4024-B3E1-4C69D1EF7EC0";
shapes = (
{
closed = 1;
nodes = (
(368,-12,o),
(454,73,o),
(454,208,cs),
(454,685,l,{
"Letterink-NibData" = {
AngleInDegrees = 270;
};
}),
(372,685,l,{
"Letterink-NibData" = {
AngleInDegrees = 211.6075;
};
}),
(372,211,ls,{
"Letterink-NibData" = {
AngleInDegrees = 180;
};
}),
(372,121,o),
(321,64,o),
(233,64,cs,{
"Letterink-NibData" = {
AngleInDegrees = 270;
};
}),
(147,64,o),
(93,118,o),
(98,203,c,{
"Letterink-NibData" = {
AngleInDegrees = 274.39871;
};
}),
(20,209,l,{
"Letterink-NibData" = {
AngleInDegrees = 181.88819;
};
}),
(16,74,o),
(97,-12,o),
(232,-12,cs,{
"Letterink-NibData" = {
AngleInDegrees = 90;
};
})
);
},
{
closed = 1;
nodes = (
(303,634,o),
(283,703,o),
(169,703,cs),
(49,703,o),
(-12,574,o),
(48,494,cs),
(92,437,o),
(183,439,o),
(220,494,c),
(159,540,l),
(146,522,o),
(127,522,o),
(114,540,cs),
(87,575,o),
(109,627,o),
(169,627,cs),
(227,627,o),
(302,536,o),
(421,630,c),
(373,685,l)
);
}
);
width = 525;
},
{
anchors = (
{
name = bottom;
pos = (267,0);
},
{
name = top;
pos = (268,684);
}
);
background = {
shapes = (
{
closed = 1;
nodes = (
(390,-6,o),
(444,86,o),
(444,185,cs),
(444,688,l,{
"Letterink-NibData" = {
AngleInDegrees = "270";
};
}),
(397,688,l,{
"Letterink-NibData" = {
AngleInDegrees = "209.35776";
};
}),
(388,672,o),
(360,660,o),
(338,660,cs,{
"Letterink-NibData" = {
AngleInDegrees = "270";
};
}),
(320,660,o),
(300,666,o),
(280,674,cs,{
"Letterink-NibData" = {
AngleInDegrees = "291.57131";
};
}),
(237,691,o),
(207,697,o),
(192,697,cs,{
"Letterink-NibData" = {
AngleInDegrees = "270";
};
}),
(166,697,o),
(148,691,o),
(97,672,c,{
"Letterink-NibData" = {
AngleInDegrees = "153.43495";
};
}),
(115,636,l,{
"Letterink-NibData" = {
AngleInDegrees = "70.82098999999999";
};
}),
(138,644,o),
(163,658,o),
(192,658,cs,{
"Letterink-NibData" = {
AngleInDegrees = "90";
};
}),
(213,658,o),
(231,651,o),
(249,643,cs,{
"Letterink-NibData" = {
AngleInDegrees = "113.42869";
};
}),
(279,630,o),
(303,621,o),
(336,621,cs,{
"Letterink-NibData" = {
AngleInDegrees = "90";
};
}),
(357,621,o),
(383,625,o),
(402,644,c,{
"Letterink-NibData" = {
AngleInDegrees = "180";
};
}),
(402,188,ls,{
"Letterink-NibData" = {
AngleInDegrees = "180";
};
}),
(402,121,o),
(372,34,o),
(256,34,cs,{
"Letterink-NibData" = {
AngleInDegrees = "270";
};
}),
(167,34,o),
(115,86,o),
(113,159,c,{
"Letterink-NibData" = {
AngleInDegrees = "275.5722";
};
}),
(72,163,l,{
"Letterink-NibData" = {
AngleInDegrees = "176.71075";
};
}),
(77,76,o),
(123,-6,o),
(253,-6,cs,{
"Letterink-NibData" = {
AngleInDegrees = "90";
};
})
);
},
{
closed = 1;
nodes = (
(390,-6,o),
(444,86,o),
(444,185,cs),
(444,688,l,{
"Letterink-NibData" = {
AngleInDegrees = "270";
};
}),
(397,688,l,{
"Letterink-NibData" = {
AngleInDegrees = "209.35776";
};
}),
(388,672,o),
(360,660,o),
(338,660,cs,{
"Letterink-NibData" = {
AngleInDegrees = "270";
};
}),
(320,660,o),
(300,666,o),
(280,674,cs,{
"Letterink-NibData" = {
AngleInDegrees = "291.57131";
};
}),
(237,691,o),
(207,697,o),
(192,697,cs,{
"Letterink-NibData" = {
AngleInDegrees = "270";
};
}),
(166,697,o),
(148,691,o),
(97,672,c,{
"Letterink-NibData" = {
AngleInDegrees = "153.43495";
};
}),
(115,636,l,{
"Letterink-NibData" = {
AngleInDegrees = "70.82098999999999";
};
}),
(138,644,o),
(163,658,o),
(192,658,cs,{
"Letterink-NibData" = {
AngleInDegrees = "90";
};
}),
(213,658,o),
(231,651,o),
(249,643,cs,{
"Letterink-NibData" = {
AngleInDegrees = "113.42869";
};
}),
(279,630,o),
(303,621,o),
(336,621,cs,{
"Letterink-NibData" = {
AngleInDegrees = "90";
};
}),
(357,621,o),
(383,625,o),
(402,644,c,{
"Letterink-NibData" = {
AngleInDegrees = "180";
};
}),
(402,188,ls,{
"Letterink-NibData" = {
AngleInDegrees = "180";
};
}),
(402,121,o),
(372,34,o),
(256,34,cs,{
"Letterink-NibData" = {
AngleInDegrees = "270";
};
}),
(167,34,o),
(115,86,o),
(113,159,c,{
"Letterink-NibData" = {
AngleInDegrees = "275.5722";
};
}),
(72,163,l,{
"Letterink-NibData" = {
AngleInDegrees = "176.71075";
};
}),
(77,76,o),
(123,-6,o),
(253,-6,cs,{
"Letterink-NibData" = {
AngleInDegrees = "90";
};
})
);
}
);
};
layerId = "49C16FD3-6177-408B-A733-AEB3898BB77C";
shapes = (
{
closed = 1;
nodes = (
(362,-6,o),
(444,76,o),
(444,205,cs),
(444,686,l,{
"Letterink-NibData" = {
AngleInDegrees = 270;
};
}),
(402,686,l,{
"Letterink-NibData" = {
AngleInDegrees = 180;
};
}),
(402,208,ls,{
"Letterink-NibData" = {
AngleInDegrees = 180;
};
}),
(402,101,o),
(338,34,o),
(236,34,cs,{
"Letterink-NibData" = {
AngleInDegrees = 270;
};
}),
(138,34,o),
(75,90,o),
(73,179,c,{
"Letterink-NibData" = {
AngleInDegrees = 275.5722;
};
}),
(32,183,l,{
"Letterink-NibData" = {
AngleInDegrees = 176.71075;
};
}),
(39,67,o),
(116,-6,o),
(233,-6,cs,{
"Letterink-NibData" = {
AngleInDegrees = 90;
};
})
);
},
{
closed = 1;
nodes = (
(319,627,o),
(276,702,o),
(177,702,cs),
(68,702,o),
(16,585,o),
(68,516,cs),
(109,463,o),
(183,471,o),
(214,516,c),
(183,540,l),
(161,510,o),
(124,510,o),
(102,540,cs),
(67,587,o),
(100,662,o),
(177,662,cs),
(248,662,o),
(318,576,o),
(422,656,c),
(402,686,l)
);
}
);
width = 520;
}
);
metricLeft = J;
metricRight = J;
userData = {
position = 333;
width = 53;
};
},
{
glyphname = K;
kernLeft = E;
kernRight = K;
layers = (
{
anchors = (
{
name = bottom;
pos = (350,0);
},
{
name = top;
pos = (350,684);
}
);
hints = (
{
name = _corner.caps_vert;
origin = (0,0);
type = Corner;
}
);
layerId = "873CAA12-270D-4223-A88E-AE8E101FDBE8";
shapes = (
{
closed = 1;
nodes = (
(215,568,l,{
"Letterink-NibData" = {
AngleInDegrees = 270;
};
}),
(155,568,l,{
"Letterink-NibData" = {
AngleInDegrees = 180;
};
}),
(155,1,l,{
"Letterink-NibData" = {
AngleInDegrees = 90;
};
}),
(217,1,l)
);
},
{
closed = 1;
nodes = (
(491,540,o),
(426,430,o),
(382,403,cs),
(344,379,o),
(280,389,o),
(207,389,c),
(207,335,l),
(275,335,o),
(358,323,o),
(414,357,cs),
(471,393,o),
(544,513,o),
(617,690,c),
(553,690,l)
);
},
{
closed = 1;
nodes = (
(438,309,o),
(463,184,o),
(533,72,cs),
(570,12,o),
(603,-14,o),
(646,-14,cs),
(677,-14,o),
(701,-2,o),
(718,22,c),
(675,54,l),
(664,44,o),
(661,40,o),
(646,40,cs),
(627,40,o),
(613,53,o),
(583,100,cs),
(521,202,o),
(490,350,o),
(369,388,c),
(351,336,l)
);
}
);
width = 729;
},
{
anchors = (
{
name = bottom;
pos = (347,2);
},
{
name = top;
pos = (347,684);
}
);
hints = (
{
name = _corner.caps_vert;
origin = (0,0);
type = Corner;
}
);
layerId = "0CAF3BED-C4AC-4024-B3E1-4C69D1EF7EC0";
shapes = (
{
closed = 1;
nodes = (
(234,568,l,{
"Letterink-NibData" = {
AngleInDegrees = 270;
};
}),
(152,568,l,{
"Letterink-NibData" = {
AngleInDegrees = 180;
};
}),
(152,0,l,{
"Letterink-NibData" = {
AngleInDegrees = 90;
};
}),
(236,0,l)
);
},
{
closed = 1;
nodes = (
(515,583,o),
(448,444,o),
(395,411,cs),
(359,389,o),
(278,399,o),
(205,399,c),
(205,325,l),
(272,325,o),
(379,313,o),
(437,349,cs),
(522,401,o),
(603,585,o),
(646,690,c),
(560,690,l)
);
},
{
closed = 1;
nodes = (
(448,301,o),
(471,181,o),
(542,66,cs),
(572,20,o),
(606,-24,o),
(664,-24,cs),
(707,-24,o),
(729,-3,o),
(743,15,c),
(686,62,l),
(674,51,o),
(673,50,o),
(664,50,cs),
(646,50,o),
(631,72,o),
(610,106,cs),
(548,206,o),
(517,358,o),
(390,397,c),
(366,327,l)
);
}
);
width = 745;
},
{
anchors = (
{
name = bottom;
pos = (350,1);
},
{
name = top;
pos = (350,684);
}
);
background = {
hints = (
{
name = _corner.caps_vert;
origin = (1,1);
type = Corner;
}
);
shapes = (
{
closed = 1;
nodes = (
(333,347,l),
(557,30,ls),
(574,6,o),
(597,-7,o),
(623,-7,cs),
(646,-7,o),
(672,2,o),
(689,22,c),
(656,45,l),
(648,38,o),
(638,33,o),
(626,33,cs),
(610,33,o),
(596,44,o),
(590,53,cs),
(373,360,l)
);
},
{
closed = 1;
nodes = (
(209,353,l),
(209,569,l),
(167,569,l),
(167,2,l),
(211,2,l),
(211,335,l)
);
},
{
closed = 1;
nodes = (
(205,325,l),
(238,327,o),
(266,313,o),
(357,344,c),
(372,346,l),
(417,374,o),
(471,467,o),
(493,505,cs),
(497,512,o),
(533,581,o),
(588,685,c),
(537,685,l),
(492,591,o),
(479,568,o),
(459,531,cs),
(437,490,o),
(411,451,o),
(387,420,cs),
(372,401,o),
(360,389,o),
(335,378,cs),
(317,370,o),
(296,363,o),
(265,363,cs),
(199,363,l)
);
},
{
closed = 1;
nodes = (
(343,347,l),
(557,30,ls),
(573,6,o),
(597,-7,o),
(623,-7,cs),
(646,-7,o),
(672,2,o),
(689,22,c),
(656,45,l),
(648,38,o),
(638,33,o),
(626,33,cs),
(610,33,o),
(596,44,o),
(590,53,cs),
(383,360,l)
);
}
);
};
hints = (
{
name = _corner.caps_vert;
origin = (0,0);
type = Corner;
}
);
layerId = "49C16FD3-6177-408B-A733-AEB3898BB77C";
shapes = (
{
closed = 1;
nodes = (
(209,569,l,{
"Letterink-NibData" = {
AngleInDegrees = 270;
};
}),
(167,569,l,{
"Letterink-NibData" = {
AngleInDegrees = 180;
};
}),
(167,2,l,{
"Letterink-NibData" = {
AngleInDegrees = 90;
};
}),
(210,2,l,{
"Letterink-NibData" = {
AngleInDegrees = 359.89895;
};
})
);
},
{
closed = 1;
nodes = (
(510,582,o),
(439,434,o),
(380,397,cs),
(339,372,o),
(279,382,o),
(207,382,c),
(207,342,l),
(275,342,o),
(349,330,o),
(402,363,cs),
(477,410,o),
(556,581,o),
(601,690,c),
(555,690,l)
);
},
{
closed = 1;
nodes = (
(439,314,o),
(465,186,o),
(533,75,cs),
(554,42,o),
(586,-7,o),
(639,-7,cs),
(680,-7,o),
(697,17,o),
(705,25,c),
(676,51,l),
(663,41,o),
(658,33,o),
(639,33,cs),
(610,33,o),
(590,63,o),
(569,97,cs),
(505,200,o),
(475,345,o),
(359,381,c),
(347,343,l)
);
}
);
width = 726;
},
{
anchors = (
{
name = bottom;
pos = (317,1);
},
{
name = top;
pos = (317,684);
}
);
associatedMasterId = "49C16FD3-6177-408B-A733-AEB3898BB77C";
hints = (
{
name = _corner.caps_vert;
origin = (0,40);
type = Corner;
}
);
layerId = "1BCB2C10-2623-4918-902D-2981A5FDCE64";
name = "3 Jan 22, 15:56";
shapes = (
{
closed = 1;
nodes = (
(178,2,l),
(178,325,l,{
"Letterink-NibData" = {
AngleInDegrees = 90;
};
}),
(206,325,o),
(234,316,o),
(306,338,c,{
"Letterink-NibData" = {
AngleInDegrees = 144.70944;
};
}),
(524,30,ls,{
"Letterink-NibData" = {
AngleInDegrees = 144.68879;
};
}),
(541,6,o),
(564,-7,o),
(590,-7,cs,{
"Letterink-NibData" = {
AngleInDegrees = 90;
};
}),
(613,-7,o),
(639,2,o),
(656,22,c,{
"Letterink-NibData" = {
AngleInDegrees = 304.87533;
};
}),
(623,45,l,{
"Letterink-NibData" = {
AngleInDegrees = 228.81408;
};
}),
(615,38,o),
(605,33,o),
(593,33,cs,{
"Letterink-NibData" = {
AngleInDegrees = 270;
};
}),
(577,33,o),
(563,44,o),
(557,53,cs,{
"Letterink-NibData" = {
AngleInDegrees = 324.69946;
};
}),
(346,351,l,{
"Letterink-NibData" = {
AngleInDegrees = 53.1301;
};
}),
(390,384,o),
(439,469,o),
(460,505,cs,{
"Letterink-NibData" = {
AngleInDegrees = 29.74488;
};
}),
(464,512,o),
(500,581,o),
(555,685,c,{
"Letterink-NibData" = {
AngleInDegrees = 270;
};
}),
(504,685,l,{
"Letterink-NibData" = {
AngleInDegrees = 205.58153;
};
}),
(459,591,o),
(446,568,o),
(426,531,cs,{
"Letterink-NibData" = {
AngleInDegrees = 208.21735;
};
}),
(404,490,o),
(378,451,o),
(354,420,cs,{
"Letterink-NibData" = {
AngleInDegrees = 218.29016;
};
}),
(339,401,o),
(327,389,o),
(302,378,cs,{
"Letterink-NibData" = {
AngleInDegrees = 246.03751;
};
}),
(284,370,o),
(263,363,o),
(232,363,cs,{
"Letterink-NibData" = {
AngleInDegrees = 270;
};
}),
(176,363,l),
(176,569,l,{
"Letterink-NibData" = {
AngleInDegrees = 270;
};
}),
(134,569,l,{
"Letterink-NibData" = {
AngleInDegrees = 180;
};
}),
(134,2,l,{
"Letterink-NibData" = {
AngleInDegrees = 90;
};
})
);
}
);
width = 690;
},
{
anchors = (
{
name = bottom;
pos = (331,0);
},
{
name = top;
pos = (331,684);
}
);
associatedMasterId = "873CAA12-270D-4223-A88E-AE8E101FDBE8";
hints = (
{
name = _corner.caps_vert;
origin = (0,43);
type = Corner;
}
);
layerId = "B157C245-E4E9-4EC0-9AA7-1D66DF414921";
name = "5 Jan 22, 08:54";
shapes = (
{
closed = 1;
nodes = (
(198,1,l),
(198,314,l,{
"Letterink-NibData" = {
AngleInDegrees = 91.06091;
};
}),
(252,313,o),
(269,313,o),
(308,325,c,{
"Letterink-NibData" = {
AngleInDegrees = 144.72124;
};
}),
(516,31,ls,{
"Letterink-NibData" = {
AngleInDegrees = 144.68879;
};
}),
(533,7,o),
(559,-8,o),
(588,-8,cs,{
"Letterink-NibData" = {
AngleInDegrees = 90;
};
}),
(616,-8,o),
(646,5,o),
(665,30,c,{
"Letterink-NibData" = {
AngleInDegrees = 304.82449;
};
}),
(619,62,l,{
"Letterink-NibData" = {
AngleInDegrees = 216.8699;
};
}),
(613,54,o),
(602,48,o),
(590,48,cs,{
"Letterink-NibData" = {
AngleInDegrees = 270;
};
}),
(579,48,o),
(569,53,o),
(562,63,cs,{
"Letterink-NibData" = {
AngleInDegrees = 324.71118;
};
}),
(361,347,l,{
"Letterink-NibData" = {
AngleInDegrees = 50.19443;
};
}),
(379,362,o),
(391,374,o),
(416,409,cs,{
"Letterink-NibData" = {
AngleInDegrees = 34.99202;
};
}),
(423,419,o),
(449,459,o),
(468,494,cs,{
"Letterink-NibData" = {
AngleInDegrees = 29.57784;
};
}),
(489,531,o),
(513,576,o),
(570,684,c,{
"Letterink-NibData" = {
AngleInDegrees = 270;
};
}),
(501,684,l,{
"Letterink-NibData" = {
AngleInDegrees = 205.46335;
};
}),
(471,621,o),
(447,570,o),
(425,530,cs,{
"Letterink-NibData" = {
AngleInDegrees = 209.74488;
};
}),
(405,495,o),
(377,450,o),
(356,423,cs,{
"Letterink-NibData" = {
AngleInDegrees = 217.56859;
};
}),
(346,410,o),
(326,395,o),
(306,386,cs,{
"Letterink-NibData" = {
AngleInDegrees = 246.37062;
};
}),
(290,379,o),
(271,372,o),
(240,372,cs,{
"Letterink-NibData" = {
AngleInDegrees = 270;
};
}),
(196,372,l),
(196,568,l,{
"Letterink-NibData" = {
AngleInDegrees = 270;
};
}),
(136,568,l,{
"Letterink-NibData" = {
AngleInDegrees = 180;
};
}),
(136,1,l,{
"Letterink-NibData" = {
AngleInDegrees = 90;
};
})
);
}
);
width = 694;
},
{
anchors = (
{
name = bottom;
pos = (335,2);
},
{
name = top;
pos = (335,684);
}
);
associatedMasterId = "0CAF3BED-C4AC-4024-B3E1-4C69D1EF7EC0";
hints = (
{
name = _corner.caps_vert;
origin = (0,43);
type = Corner;
}
);
layerId = "626F738B-09BC-4BBA-AAC3-9DFB1A7EBE44";
name = "5 Jan 22, 08:55";
shapes = (
{
closed = 1;
nodes = (
(214,0,l),
(214,303,l,{
"Letterink-NibData" = {
AngleInDegrees = 91.27303;
};
}),
(259,302,o),
(277,305,o),
(304,312,c,{
"Letterink-NibData" = {
AngleInDegrees = 144.81479;
};
}),
(500,34,ls,{
"Letterink-NibData" = {
AngleInDegrees = 145.30485;
};
}),
(518,8,o),
(551,-8,o),
(586,-8,cs,{
"Letterink-NibData" = {
AngleInDegrees = 90;
};
}),
(611,-8,o),
(646,7,o),
(666,38,c,{
"Letterink-NibData" = {
AngleInDegrees = 305.36246;
};
}),
(604,82,l,{
"Letterink-NibData" = {
AngleInDegrees = 209.74488;
};
}),
(600,75,o),
(594,70,o),
(586,70,cs,{
"Letterink-NibData" = {
AngleInDegrees = 270;
};
}),
(573,70,o),
(567,73,o),
(556,88,cs,{
"Letterink-NibData" = {
AngleInDegrees = 324.79985;
};
}),
(374,346,l,{
"Letterink-NibData" = {
AngleInDegrees = 45;
};
}),
(375,347,o),
(396,362,o),
(423,401,cs,{
"Letterink-NibData" = {
AngleInDegrees = 35.31121;
};
}),
(440,425,o),
(460,459,o),
(474,484,cs,{
"Letterink-NibData" = {
AngleInDegrees = 29.42746;
};
}),
(496,523,o),
(504,538,o),
(583,686,c,{
"Letterink-NibData" = {
AngleInDegrees = 270;
};
}),
(493,686,l,{
"Letterink-NibData" = {
AngleInDegrees = 205.1593;
};
}),
(462,620,o),
(435,567,o),
(413,530,cs,{
"Letterink-NibData" = {
AngleInDegrees = 209.93151;
};
}),
(394,497,o),
(370,457,o),
(348,430,cs,{
"Letterink-NibData" = {
AngleInDegrees = 219.09386;
};
}),
(335,414,o),
(321,406,o),
(300,396,cs,{
"Letterink-NibData" = {
AngleInDegrees = 245.22486;
};
}),
(287,390,o),
(270,385,o),
(242,384,cs,{
"Letterink-NibData" = {
AngleInDegrees = 268.09085;
};
}),
(212,383,l),
(212,568,l,{
"Letterink-NibData" = {
AngleInDegrees = 270;
};
}),
(130,568,l,{
"Letterink-NibData" = {
AngleInDegrees = 180;
};
}),
(130,0,l,{
"Letterink-NibData" = {
AngleInDegrees = 90;
};
})
);
}
);
width = 693;
}
);
metricLeft = H;
unicode = 75;
userData = {
position = 542;
width = 57;
};
},
